<svg width="50" height="57" viewBox="0 0 50 57" fill="none" xmlns="http://www.w3.org/2000/svg">
  <path fill-rule="evenodd" clip-rule="evenodd" d="M24.5462 0C26.0524 0 27.2734 1.21523 27.2734 2.71429V6.33347H45C47.7614 6.33347 50 8.57204 50 11.3335V34.8097C50 37.5711 47.7614 39.8096 45 39.8096H27.2734V43.7552L38.7491 51.0972C40.0161 51.9079 40.3829 53.5872 39.5684 54.8482C38.7539 56.1092 37.0665 56.4743 35.7995 55.6636L27.2734 50.2087V54.2857C27.2734 55.7848 26.0524 57 24.5462 57C23.0399 57 21.8189 55.7848 21.8189 54.2857V50.2088L13.2929 55.6637C12.0259 56.4743 10.3385 56.1092 9.52398 54.8483C8.70948 53.5873 9.0763 51.9079 10.3433 51.0973L21.8189 43.7553V39.8096H5C2.23858 39.8096 0 37.5711 0 34.8096V11.3335C0 8.57204 2.23858 6.33347 5 6.33347H21.8189V2.71429C21.8189 1.21523 23.0399 0 24.5462 0ZM12.0179 16.2861C10.9028 16.2861 9.9988 17.2313 9.9988 18.3973C9.9988 19.5632 10.9028 20.5084 12.0179 20.5084H25.8119C26.927 20.5084 27.831 19.5632 27.831 18.3973C27.831 17.2313 26.927 16.2861 25.8119 16.2861H12.0179ZM9.9988 26.8417C9.9988 25.6757 10.9028 24.7305 12.0179 24.7305H38.8888C40.0039 24.7305 40.9079 25.6757 40.9079 26.8417C40.9079 28.0076 40.0039 28.9528 38.8888 28.9528H12.0179C10.9028 28.9528 9.9988 28.0076 9.9988 26.8417Z" fill="#C669FF"/>
</svg>
