<svg width="58" height="57" viewBox="0 0 58 57" fill="none" xmlns="http://www.w3.org/2000/svg">
  <path fill-rule="evenodd" clip-rule="evenodd" d="M17.647 19.7919C17.4158 19.9255 17.1329 19.9255 16.9016 19.7919L1.0193 10.6198C0.506304 10.3235 0.506302 9.56854 1.0193 9.27228L16.9016 0.100175C17.1329 -0.033392 17.4158 -0.0333917 17.647 0.100176L33.4493 8.66013C34.1322 9.03006 34.1512 10.0033 33.4832 10.3995L17.647 19.7919ZM15.7834 21.817C16.7085 22.3513 17.84 22.3513 18.7651 21.817L23.9651 18.814C24.015 18.7609 24.0738 18.7138 24.1416 18.6746L40.0239 9.50252C40.2552 9.36895 40.538 9.36895 40.7693 9.50252L56.6516 18.6746C56.9081 18.8228 57.0364 19.0856 57.0364 19.3484H57.0608V29.4095C57.0608 29.8369 56.7217 30.1834 56.3034 30.1834H55.5459C55.1276 30.1834 54.7884 29.8369 54.7884 29.4095V21.0981L40.7693 29.1942C40.538 29.3278 40.2552 29.3278 40.0239 29.1942L25.6064 20.8681V22.514C25.6064 27.1157 21.876 30.8461 17.2743 30.8461C12.6726 30.8461 8.94217 27.1157 8.94217 22.514V17.8662L15.7834 21.817ZM0.0170993 45.0069C-0.137098 46.1007 0.773147 47.0012 1.87772 47.0012H23.7165C26.1222 43.7858 29.5245 41.4992 33.4067 40.7072C31.0535 35.9628 26.1228 32.6969 20.4212 32.6969H14.3342C7.0341 32.6969 0.997761 38.0509 0.0170993 45.0069ZM41.8874 31.2165C40.9623 31.7508 39.8308 31.7508 38.9057 31.2165L32.0645 27.2657V31.913C32.0645 36.5147 35.7949 40.2452 40.3966 40.2452C44.9983 40.2452 48.7287 36.5147 48.7287 31.913V27.2656L41.8874 31.2165ZM24.9998 56.402C23.8952 56.402 22.985 55.5014 23.1392 54.4077C24.1198 47.4517 30.1562 42.0977 37.4563 42.0977H43.5433C50.8434 42.0977 56.8797 47.4517 57.8604 54.4077C58.0146 55.5014 57.1044 56.402 55.9998 56.402H24.9998Z" fill="#C669FF"/>
</svg>
