<svg width="170" height="167" viewBox="0 0 170 167" fill="none" xmlns="http://www.w3.org/2000/svg">
  <path fill-rule="evenodd" clip-rule="evenodd" d="M105.476 29C110.103 29 113.854 33.1009 113.854 38.1597V43.6554H142.725C144.003 43.6554 145.14 44.4647 145.559 45.6718L154.603 71.7307C155.279 73.6798 153.832 75.7142 151.769 75.7142H30.3971C27.8417 75.7142 25.5666 74.0956 24.7288 71.6814L16.3851 47.639C15.7086 45.6898 17.156 43.6554 19.2192 43.6554H45.9937V38.1597C45.9937 33.1009 49.7446 29 54.3715 29H105.476ZM107.99 43.6555L51.8582 43.6554V38.1597C51.8582 36.642 52.9834 35.4118 54.3715 35.4118H105.476C106.865 35.4118 107.99 36.642 107.99 38.1597V43.6555Z" fill="#20B7F7"/>
  <path fill-rule="evenodd" clip-rule="evenodd" d="M15 132V61.1867L20.3967 77.1335C21.2213 79.5702 23.5076 81.2101 26.0801 81.2101H76.9996V86.3698C76.9996 88.5789 78.7904 90.3698 80.9996 90.3698H87.2419C89.4511 90.3698 91.2419 88.5789 91.2419 86.3698V81.2101H144.857V132C144.857 135.314 142.171 138 138.857 138H21C17.6863 138 15 135.314 15 132Z" fill="#20B7F7"/>
  <ellipse cx="142.753" cy="130.723" rx="24.7527" ry="24.7235" fill="white"/>
  <ellipse cx="142.753" cy="130.723" rx="19.1484" ry="19.1257" fill="#42DB92"/>
  <path d="M132.011 131.715L139.231 139.587L152.56 122.793" stroke="white" stroke-width="4" stroke-linecap="round" stroke-linejoin="round"/>
</svg>
