<svg width="194" height="167" viewBox="0 0 194 167" fill="none" xmlns="http://www.w3.org/2000/svg">
  <path fill-rule="evenodd" clip-rule="evenodd" d="M16.708 78.9548L4.85761 67.1044C3.8813 66.1281 2.29839 66.1281 1.32208 67.1044C0.345766 68.0808 0.345766 69.6637 1.32208 70.64L17.232 86.5499C18.2083 87.5262 19.7912 87.5262 20.7675 86.5499L36.6774 70.64C37.6537 69.6637 37.6537 68.0808 36.6774 67.1044C35.7011 66.1281 34.1182 66.1281 33.1419 67.1044L21.7592 78.4872C24.957 39.8553 57.3215 9.5 96.775 9.5C129.906 9.5 158.044 30.9072 168.101 60.6527C168.543 61.9607 169.962 62.6625 171.27 62.2202C172.578 61.778 173.28 60.3592 172.838 59.0512C162.115 27.3364 132.115 4.5 96.775 4.5C54.3995 4.5 19.693 37.3367 16.708 78.9548Z" fill="#DAE4ED"/>
  <path fill-rule="evenodd" clip-rule="evenodd" d="M177.039 88.0441L188.89 99.8955C189.867 100.872 191.45 100.872 192.426 99.8955C193.402 98.9192 193.402 97.3363 192.426 96.36L176.516 80.4501C175.54 79.4738 173.957 79.4738 172.981 80.4501L157.071 96.36C156.094 97.3363 156.094 98.9192 157.071 99.8955C158.047 100.872 159.63 100.872 160.606 99.8955L171.987 88.5145C168.77 127.135 136.229 157.5 96.5337 157.5C63.2004 157.5 34.9022 136.084 24.7898 106.343C24.3453 105.036 22.9253 104.337 21.618 104.781C20.3108 105.226 19.6114 106.646 20.0559 107.953C30.8415 139.673 61.0095 162.5 96.5337 162.5C139.129 162.5 174.038 129.674 177.039 88.0441Z" fill="#DAE4ED"/>
  <rect x="61.1641" y="38" width="97" height="47" rx="3" transform="rotate(15 61.1641 38)" fill="#20B7F7"/>
  <circle cx="101.929" cy="73.252" r="19.5" transform="rotate(15 101.929 73.252)" fill="white"/>
  <circle r="4.5" transform="matrix(-0.965926 -0.258819 -0.258819 0.965926 136.444 83.5354)" fill="white"/>
  <rect x="43" y="66" width="101" height="51" rx="5" fill="#20B7F7" stroke="white" stroke-width="4"/>
  <circle cx="93.5" cy="91.5" r="19.5" fill="white"/>
  <circle r="4.5" transform="matrix(-1 0 0 1 57.5 92.5)" fill="white"/>
  <circle r="4.5" transform="matrix(-1 0 0 1 129.5 92.5)" fill="white"/>
  <path d="M101.864 96.871C101.864 98.1937 101.544 99.351 100.903 100.343C100.283 101.314 99.446 102.079 98.392 102.637C97.338 103.195 96.1807 103.546 94.92 103.691V105.644C94.92 105.933 94.827 106.161 94.641 106.326C94.4757 106.512 94.2483 106.605 93.959 106.605C93.6903 106.605 93.463 106.512 93.277 106.326C93.091 106.161 92.998 105.933 92.998 105.644V103.722C91.1587 103.619 89.5157 103.174 88.069 102.389C86.643 101.604 85.6613 100.55 85.124 99.227C85.0413 99.041 85 98.8343 85 98.607C85 98.297 85.1033 98.0283 85.31 97.801C85.5167 97.5737 85.806 97.4187 86.178 97.336C86.24 97.3153 86.333 97.305 86.457 97.305C86.7463 97.305 87.0253 97.398 87.294 97.584C87.5833 97.77 87.8003 98.0283 87.945 98.359C88.255 99.041 88.875 99.6093 89.805 100.064C90.735 100.519 91.7993 100.798 92.998 100.901V92.438C90.8073 92.1073 89.0713 91.353 87.79 90.175C86.5293 88.9763 85.899 87.4987 85.899 85.742C85.899 83.9647 86.5603 82.518 87.883 81.402C89.2263 80.286 90.9313 79.635 92.998 79.449V77.961C92.998 77.6717 93.091 77.4443 93.277 77.279C93.463 77.093 93.6903 77 93.959 77C94.2483 77 94.4757 77.093 94.641 77.279C94.827 77.4443 94.92 77.6717 94.92 77.961V79.449C96.4493 79.573 97.7203 79.9863 98.733 80.689C99.7663 81.371 100.645 82.3217 101.368 83.541C101.595 83.9337 101.709 84.2953 101.709 84.626C101.709 85.1013 101.513 85.463 101.12 85.711C100.913 85.8557 100.665 85.928 100.376 85.928C100.107 85.928 99.849 85.8557 99.601 85.711C99.353 85.5663 99.1567 85.3597 99.012 85.091C98.578 84.285 98.0303 83.6443 97.369 83.169C96.7283 82.673 95.912 82.363 94.92 82.239V90.02C97.0693 90.3093 98.764 91.0533 100.004 92.252C101.244 93.43 101.864 94.9697 101.864 96.871ZM88.968 85.773C88.968 86.703 89.2573 87.5193 89.836 88.222C90.4353 88.904 91.4893 89.4103 92.998 89.741V82.208C91.7787 82.332 90.797 82.704 90.053 83.324C89.3297 83.944 88.968 84.7603 88.968 85.773ZM94.92 100.839C96.036 100.653 96.9557 100.229 97.679 99.568C98.4023 98.886 98.764 98.018 98.764 96.964C98.764 95.972 98.4437 95.104 97.803 94.36C97.1623 93.616 96.2013 93.0787 94.92 92.748V100.839Z" fill="#20B7F7"/>
  <ellipse cx="132.027" cy="111.489" rx="24.7527" ry="24.7235" fill="white"/>
  <ellipse cx="132.027" cy="111.489" rx="19.1484" ry="19.1257" fill="#42DB92"/>
  <path d="M121.285 112.48L128.505 120.352L141.835 103.559" stroke="white" stroke-width="4" stroke-linecap="round" stroke-linejoin="round"/>
</svg>
