<svg width="46" height="51" viewBox="0 0 46 51" fill="none" xmlns="http://www.w3.org/2000/svg">
  <path fill-rule="evenodd" clip-rule="evenodd" d="M35.0676 0.765517C35.4951 -0.255172 36.9412 -0.255173 37.3687 0.765516L39.0739 4.83665C39.2537 5.26606 39.6577 5.55958 40.1217 5.59793L44.5205 5.96157C45.6233 6.05274 46.0702 7.42811 45.2316 8.1501L41.8866 11.0298C41.5338 11.3336 41.3795 11.8085 41.4864 12.2616L42.4998 16.5575C42.7539 17.6345 41.584 18.4846 40.6382 17.9101L36.8657 15.6187C36.6911 15.5127 36.4971 15.4532 36.3006 15.4402C36.0498 15.424 35.7953 15.4836 35.5725 15.6188L31.8001 17.9102C31.5634 18.054 31.3126 18.1085 31.0737 18.0926C30.357 18.0461 29.7458 17.3657 29.9364 16.5575L30.9499 12.2616C31.0568 11.8085 30.9025 11.3336 30.5497 11.0298L27.2047 8.1501C26.3661 7.42811 26.813 6.05274 27.9158 5.96157L32.3146 5.59793C32.7786 5.55958 33.1826 5.26606 33.3624 4.83666L35.0676 0.765517ZM38.6702 21.0922L36.2201 19.604L33.7428 21.1087C29.9596 23.4066 25.2798 20.0065 26.2961 15.6984L26.9616 12.8773L24.7651 10.9863C23.7905 10.1473 23.25 9.0877 23.0817 7.99758L6 7.99756C2.68629 7.99755 -3.86526e-06 10.6839 0 13.9976L3.54745e-05 44.41C3.93397e-05 47.7237 2.68633 50.41 6.00004 50.41H32.6702C35.9839 50.41 38.6702 47.7237 38.6702 44.41V21.0922ZM5.52441 23.904C5.52441 22.8524 6.33223 22 7.32872 22H19.6556C20.6521 22 21.4599 22.8524 21.4599 23.904C21.4599 24.9555 20.6521 25.8079 19.6556 25.8079H7.32872C6.33223 25.8079 5.52441 24.9555 5.52441 23.904ZM7.32872 29.6157C6.33223 29.6157 5.52441 30.4682 5.52441 31.5197C5.52441 32.5712 6.33223 33.4236 7.32872 33.4236H31.3416C32.3381 33.4236 33.1459 32.5712 33.1459 31.5197C33.1459 30.4682 32.3381 29.6157 31.3416 29.6157H7.32872ZM7.32872 37.2321C6.33223 37.2321 5.52441 38.0845 5.52441 39.136C5.52441 40.1876 6.33223 41.04 7.32872 41.04H31.3416C32.3381 41.04 33.1459 40.1876 33.1459 39.136C33.1459 38.0845 32.3381 37.2321 31.3416 37.2321H7.32872Z" fill="#C669FF"/>
</svg>
