<svg width="28" height="28" viewBox="0 0 28 28" fill="none" xmlns="http://www.w3.org/2000/svg">
  <path fill-rule="evenodd" clip-rule="evenodd" d="M27.0603 14.0728C27.0603 21.3479 21.1627 27.2455 13.8876 27.2455C6.61248 27.2455 0.714844 21.3479 0.714844 14.0728C0.714844 6.79766 6.61248 0.900024 13.8876 0.900024C21.1627 0.900024 27.0603 6.79766 27.0603 14.0728ZM15.2941 6.8323C14.8174 5.67833 13.1829 5.67833 12.7062 6.8323L11.5885 9.5379C11.3883 10.0226 10.9341 10.3547 10.4115 10.3985L7.4941 10.643C6.26184 10.7463 5.75879 12.2797 6.69039 13.0928L8.93705 15.0539C9.32692 15.3942 9.49726 15.9219 9.37998 16.4259L8.70421 19.3302C8.42228 20.5419 9.74264 21.4919 10.8019 20.8396L13.266 19.3221C13.7162 19.0448 14.2841 19.0448 14.7343 19.3221L17.1984 20.8396C18.2576 21.4919 19.578 20.5419 19.2961 19.3302L18.6203 16.4259C18.503 15.9219 18.6734 15.3942 19.0632 15.0539L21.3099 13.0928C22.2415 12.2797 21.7384 10.7463 20.5062 10.643L17.5888 10.3985C17.0662 10.3547 16.612 10.0226 16.4117 9.5379L15.2941 6.8323Z" fill="#20B7F7"/>
</svg>
