<svg width="54" height="43" viewBox="0 0 54 43" fill="none" xmlns="http://www.w3.org/2000/svg">
  <path fill-rule="evenodd" clip-rule="evenodd" d="M17.4463 0C15.5192 0 13.957 1.66152 13.957 3.71111V23.0089C13.957 25.0585 15.5192 26.72 17.4463 26.72H38.9516C39.3752 26.72 39.7878 26.8545 40.1301 27.1041L47.1736 32.241C47.8344 32.7229 48.7629 32.2509 48.7629 31.433V26.72H50.2458C52.1729 26.72 53.7351 25.0585 53.7351 23.0089V3.71111C53.7351 1.66152 52.1729 0 50.2458 0H17.4463ZM23 7C21.8954 7 21 7.89543 21 9C21 10.1046 21.8954 11 23 11H34C35.1046 11 36 10.1046 36 9C36 7.89543 35.1046 7 34 7H23ZM21 17C21 15.8954 21.8954 15 23 15H45C46.1046 15 47 15.8954 47 17C47 18.1046 46.1046 19 45 19H23C21.8954 19 21 18.1046 21 17Z" fill="#F2B71E"/>
  <path d="M17.4464 28.8945H39.7781V32.6056C39.7781 34.6552 38.2159 36.3167 36.2888 36.3167H14.7835C14.3599 36.3167 13.9473 36.4512 13.605 36.7008L6.56151 41.8376C5.90068 42.3196 4.97226 41.8476 4.97226 41.0297V36.3167H3.48931C1.56222 36.3167 0 34.6552 0 32.6056V13.3078C0 11.2582 1.56222 9.59668 3.48931 9.59668H11.3402V22.4C11.3402 25.9868 14.074 28.8945 17.4464 28.8945Z" fill="#F2B71E"/>
</svg>
