<svg width="50" height="46" viewBox="0 0 50 46" fill="none" xmlns="http://www.w3.org/2000/svg">
  <path d="M7.73552 32.584L0.402845 42.6807C-0.601007 44.0629 0.386383 46.0003 2.09463 46.0003H17.5602C18.2296 46.0003 18.8587 45.6797 19.2521 45.138L22.5108 40.6509C16.5509 40.0226 11.302 37.0097 7.73552 32.584Z" fill="#20B7F7"/>
  <path d="M27.1681 40.651L30.4268 45.138C30.8202 45.6797 31.4492 46.0003 32.1186 46.0003H47.5842C49.2925 46.0003 50.2799 44.0629 49.2761 42.6807L41.9434 32.584C38.377 37.0098 33.128 40.0226 27.1681 40.651Z" fill="#20B7F7"/>
  <path fill-rule="evenodd" clip-rule="evenodd" d="M43.6579 18.8182C43.6579 29.2112 35.2327 37.6364 24.8397 37.6364C14.4467 37.6364 6.02148 29.2112 6.02148 18.8182C6.02148 8.4252 14.4467 0 24.8397 0C35.2327 0 43.6579 8.4252 43.6579 18.8182ZM26.8492 8.47468C26.1682 6.82615 23.8332 6.82615 23.1522 8.47469L21.5555 12.3398C21.2695 13.0322 20.6206 13.5067 19.8741 13.5692L15.7064 13.9186C13.946 14.0661 13.2273 16.2566 14.5582 17.4183L17.7677 20.2199C18.3247 20.706 18.568 21.4598 18.4005 22.1798L17.4351 26.3288C17.0323 28.0598 18.9186 29.417 20.4318 28.4851L23.9519 26.3172C24.595 25.9212 25.4064 25.9212 26.0495 26.3172L29.5696 28.4851C31.0828 29.417 32.9691 28.0598 32.5663 26.3288L31.6009 22.1798C31.4334 21.4598 31.6767 20.706 32.2337 20.2199L35.4432 17.4183C36.7741 16.2566 36.0554 14.0661 34.295 13.9186L30.1273 13.5692C29.3808 13.5067 28.7319 13.0322 28.4458 12.3398L26.8492 8.47468Z" fill="#20B7F7"/>
</svg>
