<svg width="52" height="45" viewBox="0 0 52 45" fill="none" xmlns="http://www.w3.org/2000/svg">
  <path fill-rule="evenodd" clip-rule="evenodd" d="M6.21642 1.98113C5.68816 1.22245 6.18153 0 7.10601 0H44.7749C45.6994 0 46.1927 1.22245 45.6645 1.98113C44.8683 3.12453 44.313 4.40282 44.032 5.74622H45.501C52.3122 5.74622 53.868 13.0719 49.7032 18.1186L43.3245 25.8482C42.4355 31.3909 37.3236 35.6209 31.1728 35.6209H28.9252V39.2166C28.9252 39.7689 29.3729 40.2166 29.9252 40.2166H34.0864C36.6142 40.2166 38.9702 41.3538 40.5423 43.2521C41.0887 43.9119 40.5519 44.8129 39.6953 44.8129H12.4098C11.5531 44.8129 11.0164 43.9119 11.5628 43.2521C13.1349 41.3538 15.4909 40.2166 18.0187 40.2166H22.1799C22.7322 40.2166 23.1799 39.7689 23.1799 39.2166V35.6209H20.7081C14.4919 35.6209 9.33678 31.3004 8.52944 25.671L2.297 18.1186C-1.86772 13.0719 -0.311984 5.74622 6.49926 5.74622H7.84893C7.56783 4.40282 7.01254 3.12453 6.21642 1.98113ZM24.6053 6.57094C24.2466 6.63733 23.9533 6.87942 23.8271 7.19992L19.6128 12.8131C19.1675 13.4062 19.6103 14.2328 20.3732 14.2328C20.6746 14.2328 20.9576 14.0939 21.1336 13.8596L23.7602 10.361V25H20.6359C20.0591 25 19.5914 25.4477 19.5914 26C19.5914 26.5523 20.0591 27 20.6359 27H24.5376H28.3646H32.1255C32.7023 27 33.17 26.5523 33.17 26C33.17 25.4477 32.7023 25 32.1255 25H29.1419V7.55273C29.1419 7.00045 28.6743 6.55273 28.0974 6.55273H24.8047L24.7988 6.55275L24.7931 6.55273C24.7294 6.55273 24.6665 6.55894 24.6053 6.57094ZM8.25963 20.0894L7.74353 9.1934H6.49926C4.38992 9.1934 3.66714 10.1745 3.40997 11.0543C3.07675 12.1942 3.29811 14.0771 4.76704 15.8572L8.25963 20.0894ZM43.7406 20.0894L44.2567 9.1934H45.501C47.6103 9.1934 48.3331 10.1745 48.5903 11.0543C48.9235 12.1942 48.7021 14.0771 47.2332 15.8572L43.7406 20.0894Z" fill="#F2B71E"/>
</svg>
