<svg width="64" height="42" viewBox="0 0 64 42" fill="none" xmlns="http://www.w3.org/2000/svg">
  <path fill-rule="evenodd" clip-rule="evenodd" d="M25 0C22.7909 0 21 1.79086 21 4V17C21 19.2091 22.7909 21 25 21H38C40.2091 21 42 19.2091 42 17V4C42 1.79086 40.2091 0 38 0H25ZM31.5 3.5C32.3284 3.5 33 4.17157 33 5V9H37C37.8284 9 38.5 9.67157 38.5 10.5C38.5 11.3284 37.8284 12 37 12H33V16C33 16.8284 32.3284 17.5 31.5 17.5C30.6716 17.5 30 16.8284 30 16V12H26C25.1716 12 24.5 11.3284 24.5 10.5C24.5 9.67157 25.1716 9 26 9H30V5C30 4.17157 30.6716 3.5 31.5 3.5Z" fill="#C669FF"/>
  <path d="M11.0752 36.1873C11.0752 36.9665 10.9577 37.6838 10.7227 38.3393C10.4877 38.9948 10.1352 39.5637 9.66527 40.046C9.20767 40.5284 8.63258 40.9056 7.93999 41.1777C7.24741 41.4498 6.4497 41.5858 5.54686 41.5858C4.63166 41.5858 3.82777 41.4498 3.13518 41.1777C2.4426 40.9056 1.86132 40.5284 1.39135 40.046C0.933753 39.5637 0.587461 38.9948 0.352476 38.3393C0.117492 37.6838 0 36.9665 0 36.1873V28.6175C0 28.3414 0.223858 28.1175 0.5 28.1175H2.39402C2.67016 28.1175 2.89402 28.3414 2.89402 28.6175V36.076C2.89402 36.4842 2.95585 36.8614 3.07953 37.2077C3.21557 37.554 3.40109 37.857 3.63607 38.1167C3.87106 38.364 4.14933 38.5619 4.47088 38.7103C4.80481 38.8464 5.16347 38.9144 5.54686 38.9144C5.93026 38.9144 6.28274 38.8464 6.60429 38.7103C6.92585 38.5619 7.20412 38.364 7.43911 38.1167C7.67409 37.857 7.85342 37.554 7.9771 37.2077C8.11314 36.8614 8.18116 36.4842 8.18116 36.076V28.6175C8.18116 28.3414 8.40502 28.1175 8.68116 28.1175H10.5752C10.8513 28.1175 11.0752 28.3414 11.0752 28.6175V36.1873Z" fill="#C669FF"/>
  <path d="M13.0641 28.5C13.0641 28.2239 13.2879 28 13.5641 28H15.3468C15.6229 28 15.8468 28.2239 15.8468 28.5V40.9745C15.8468 41.2506 15.6229 41.4745 15.3468 41.4745H13.5641C13.2879 41.4745 13.0641 41.2506 13.0641 40.9745V28.5Z" fill="#C669FF"/>
  <path d="M25.5926 39.3885C25.8202 39.5554 25.8665 39.88 25.6679 40.0806C25.2866 40.4656 24.8375 40.7757 24.3204 41.0107C23.6402 41.3199 22.9353 41.4745 22.2056 41.4745C21.513 41.4745 20.8575 41.3632 20.2391 41.1406C19.6331 40.9179 19.1013 40.6026 18.6437 40.1944C18.1985 39.7739 17.846 39.2731 17.5863 38.6918C17.3266 38.1105 17.1967 37.4612 17.1967 36.7439C17.1967 36.0266 17.3266 35.3773 17.5863 34.796C17.846 34.2147 18.1985 33.72 18.6437 33.3119C19.1013 32.8914 19.6331 32.5698 20.2391 32.3472C20.8575 32.1246 21.513 32.0133 22.2056 32.0133C22.8487 32.0133 23.43 32.1246 23.9494 32.3472C24.4812 32.5698 24.9264 32.8914 25.2851 33.3119C25.6561 33.72 25.9406 34.2147 26.1385 34.796C26.3363 35.3773 26.4353 36.0266 26.4353 36.7439V37.1158C26.4353 37.3919 26.2114 37.6158 25.9353 37.6158H20.5949C20.2775 37.6158 20.0361 37.9122 20.1729 38.1986C20.3023 38.4693 20.4789 38.7017 20.7029 38.8958C21.0739 39.205 21.5315 39.3596 22.0757 39.3596C22.5333 39.3596 22.9167 39.2607 23.2259 39.0628C23.4103 38.9422 23.5805 38.8033 23.7364 38.6462C23.9311 38.4499 24.2416 38.3978 24.4646 38.5613L25.5926 39.3885ZM23.1656 35.7236C23.4366 35.7236 23.6681 35.5034 23.6006 35.2409C23.5315 34.9721 23.3942 34.731 23.1888 34.5177C22.8672 34.1838 22.4529 34.0168 21.9459 34.0168C21.6367 34.0168 21.3646 34.0663 21.1296 34.1652C20.8946 34.2642 20.6905 34.394 20.5174 34.5548C20.3566 34.7032 20.2268 34.8826 20.1278 35.0928C20.1114 35.1304 20.0962 35.1685 20.0825 35.207C19.9858 35.4773 20.2209 35.7236 20.508 35.7236H23.1656Z" fill="#C669FF"/>
  <path d="M33.4147 40.1442C33.4147 40.131 33.4039 40.1202 33.3907 40.1202C33.3825 40.1202 33.3749 40.1244 33.3704 40.1313C33.062 40.6079 32.6501 40.9505 32.1346 41.1591C31.6276 41.3694 31.0896 41.4745 30.5206 41.4745C30.1002 41.4745 29.692 41.4127 29.2963 41.289C28.9129 41.1777 28.5728 41.0045 28.2759 40.7695C27.9791 40.5346 27.7441 40.2439 27.571 39.8976C27.3978 39.5513 27.3113 39.1494 27.3113 38.6918C27.3113 38.1723 27.404 37.7333 27.5895 37.3746C27.7874 37.016 28.0471 36.7191 28.3687 36.4842C28.7026 36.2492 29.0798 36.0699 29.5003 35.9462C29.9208 35.8101 30.3537 35.7112 30.7989 35.6494C31.2565 35.5875 31.7079 35.5504 32.1532 35.538C32.4196 35.5308 32.6734 35.5257 32.9147 35.5227C33.1908 35.5193 33.4263 35.2901 33.345 35.0262C33.2624 34.758 33.1063 34.5328 32.8767 34.3508C32.5304 34.0539 32.1161 33.9055 31.6337 33.9055C31.1761 33.9055 30.7556 34.0045 30.3722 34.2023C30.1536 34.3117 29.9479 34.4467 29.755 34.6076C29.5322 34.7934 29.1982 34.8049 28.9956 34.5972L28.2442 33.8271C28.048 33.626 28.0547 33.3004 28.2792 33.1315C28.7045 32.8114 29.1796 32.5624 29.7044 32.3843C30.397 32.137 31.1143 32.0133 31.8563 32.0133C32.6726 32.0133 33.3405 32.1184 33.8599 32.3287C34.3917 32.5265 34.8122 32.8234 35.1214 33.2191C35.443 33.6149 35.6656 34.1034 35.7892 34.6847C35.9129 35.2536 35.9748 35.9153 35.9748 36.6697V40.7519C35.9748 41.028 35.7509 41.2519 35.4748 41.2519H33.9147C33.6385 41.2519 33.4147 41.028 33.4147 40.7519V40.1442ZM32.7283 37.3004C32.518 37.3004 32.2521 37.3128 31.9306 37.3375C31.6214 37.3499 31.3184 37.3994 31.0215 37.4859C30.7371 37.5725 30.4897 37.7024 30.2795 37.8755C30.0816 38.0487 29.9827 38.2898 29.9827 38.599C29.9827 38.9329 30.1249 39.1803 30.4093 39.3411C30.6938 39.5019 30.9906 39.5822 31.2998 39.5822C31.5719 39.5822 31.8316 39.5451 32.079 39.4709C32.3387 39.3967 32.5675 39.2916 32.7654 39.1556C32.9632 39.0195 33.1178 38.8464 33.2292 38.6361C33.3528 38.4259 33.4147 38.1785 33.4147 37.8941V37.8004C33.4147 37.5243 33.1908 37.3004 32.9147 37.3004H32.7283Z" fill="#C669FF"/>
  <path d="M37.3496 32.7359C37.3496 32.4598 37.5734 32.2359 37.8496 32.2359H39.6323C39.9084 32.2359 40.1323 32.4598 40.1323 32.7359V33.6597C40.1323 33.6725 40.1427 33.6829 40.1555 33.6829C40.1641 33.6829 40.1719 33.6781 40.176 33.6706C40.4714 33.1203 40.8217 32.71 41.2268 32.44C41.635 32.1555 42.1482 32.0133 42.7666 32.0133C42.9274 32.0133 43.0882 32.0195 43.2489 32.0318C43.2725 32.0336 43.2958 32.0357 43.3188 32.0381C43.5431 32.0609 43.6942 32.2625 43.6942 32.4879V34.0391C43.6942 34.3409 43.4 34.5552 43.1005 34.5177C42.915 34.4806 42.7171 34.4621 42.5069 34.4621C41.9751 34.4621 41.5546 34.5363 41.2454 34.6847C40.9362 34.8331 40.695 35.0433 40.5219 35.3154C40.3611 35.5751 40.256 35.8905 40.2065 36.2615C40.157 36.6326 40.1323 37.0407 40.1323 37.4859V40.7519C40.1323 41.028 39.9084 41.2519 39.6323 41.2519H37.8496C37.5734 41.2519 37.3496 41.028 37.3496 40.7519V32.7359Z" fill="#C669FF"/>
  <path d="M44.8593 32.7359C44.8593 32.4598 45.0831 32.2359 45.3593 32.2359H47.0307C47.3068 32.2359 47.5307 32.4598 47.5307 32.7359V33.4374C47.5307 33.45 47.5409 33.4603 47.5536 33.4603C47.5623 33.4603 47.5702 33.4554 47.5742 33.4476C47.6604 33.2787 47.7819 33.1098 47.9388 32.9409C48.0996 32.7677 48.2913 32.6131 48.5139 32.4771C48.7365 32.341 48.99 32.2297 49.2745 32.1431C49.559 32.0566 49.8681 32.0133 50.2021 32.0133C50.907 32.0133 51.4759 32.1246 51.9088 32.3472C52.3417 32.5575 52.6756 32.8543 52.9106 33.2377C53.1579 33.6211 53.3249 34.0725 53.4115 34.5919C53.498 35.1114 53.5413 35.6741 53.5413 36.2801V40.7519C53.5413 41.028 53.3175 41.2519 53.0413 41.2519H51.2586C50.9825 41.2519 50.7586 41.028 50.7586 40.7519V36.8366C50.7586 36.5769 50.7462 36.311 50.7215 36.0389C50.7091 35.7545 50.6535 35.4948 50.5546 35.2598C50.468 35.0248 50.3257 34.8331 50.1279 34.6847C49.9424 34.5363 49.6703 34.4621 49.3116 34.4621C48.9529 34.4621 48.6623 34.5301 48.4397 34.6661C48.2171 34.7898 48.0439 34.963 47.9203 35.1856C47.8089 35.3958 47.7347 35.637 47.6976 35.9091C47.6605 36.1812 47.642 36.4656 47.642 36.7624V40.7519C47.642 41.028 47.4181 41.2519 47.142 41.2519H45.3593C45.0831 41.2519 44.8593 41.028 44.8593 40.7519V32.7359Z" fill="#C669FF"/>
  <path d="M60.799 40.1442C60.799 40.131 60.7882 40.1202 60.775 40.1202C60.7668 40.1202 60.7592 40.1244 60.7548 40.1313C60.4463 40.6079 60.0344 40.9505 59.5189 41.1591C59.0119 41.3694 58.4739 41.4745 57.905 41.4745C57.4845 41.4745 57.0763 41.4127 56.6806 41.289C56.2972 41.1777 55.9571 41.0045 55.6602 40.7695C55.3634 40.5346 55.1284 40.2439 54.9553 39.8976C54.7821 39.5513 54.6956 39.1494 54.6956 38.6918C54.6956 38.1723 54.7883 37.7333 54.9738 37.3746C55.1717 37.016 55.4314 36.7191 55.753 36.4842C56.0869 36.2492 56.4641 36.0699 56.8846 35.9462C57.3051 35.8101 57.738 35.7112 58.1832 35.6494C58.6408 35.5875 59.0922 35.5504 59.5375 35.538C59.8039 35.5308 60.0577 35.5257 60.299 35.5227C60.5751 35.5193 60.8106 35.2901 60.7293 35.0262C60.6467 34.758 60.4906 34.5328 60.261 34.3508C59.9147 34.0539 59.5004 33.9055 59.018 33.9055C58.5604 33.9055 58.1399 34.0045 57.7565 34.2023C57.5379 34.3117 57.3322 34.4467 57.1393 34.6076C56.9165 34.7934 56.5825 34.8049 56.3799 34.5972L55.6285 33.8271C55.4323 33.626 55.439 33.3004 55.6635 33.1315C56.0888 32.8114 56.5639 32.5624 57.0887 32.3843C57.7813 32.137 58.4986 32.0133 59.2407 32.0133C60.0569 32.0133 60.7248 32.1184 61.2442 32.3287C61.776 32.5265 62.1965 32.8234 62.5057 33.2191C62.8273 33.6149 63.0499 34.1034 63.1735 34.6847C63.2972 35.2536 63.3591 35.9153 63.3591 36.6697V40.7519C63.3591 41.028 63.1352 41.2519 62.8591 41.2519H61.299C61.0228 41.2519 60.799 41.028 60.799 40.7519V40.1442ZM60.1126 37.3004C59.9023 37.3004 59.6364 37.3128 59.3149 37.3375C59.0057 37.3499 58.7027 37.3994 58.4058 37.4859C58.1214 37.5725 57.874 37.7024 57.6638 37.8755C57.4659 38.0487 57.367 38.2898 57.367 38.599C57.367 38.9329 57.5092 39.1803 57.7936 39.3411C58.0781 39.5019 58.3749 39.5822 58.6841 39.5822C58.9562 39.5822 59.2159 39.5451 59.4633 39.4709C59.723 39.3967 59.9518 39.2916 60.1497 39.1556C60.3476 39.0195 60.5022 38.8464 60.6135 38.6361C60.7371 38.4259 60.799 38.1785 60.799 37.8941V37.8004C60.799 37.5243 60.5751 37.3004 60.299 37.3004H60.1126Z" fill="#C669FF"/>
</svg>
