<svg width="45" height="30" viewBox="0 0 45 30" fill="none" xmlns="http://www.w3.org/2000/svg">
  <path fill-rule="evenodd" clip-rule="evenodd" d="M19 0.599976C16.7909 0.599976 15 2.39083 15 4.59997V11.3C15 13.5091 16.7909 15.3 19 15.3H25.7C27.9091 15.3 29.7 13.5091 29.7 11.3V4.59998C29.7 2.39084 27.9091 0.599976 25.7 0.599976H19ZM22.35 3.04998C22.9299 3.04998 23.4 3.52008 23.4 4.09998V6.89998H26.2C26.7799 6.89998 27.25 7.37008 27.25 7.94998C27.25 8.52987 26.7799 8.99998 26.2 8.99998H23.4V11.8C23.4 12.3799 22.9299 12.85 22.35 12.85C21.7701 12.85 21.3 12.3799 21.3 11.8V8.99998H18.5C17.9201 8.99998 17.45 8.52987 17.45 7.94998C17.45 7.37008 17.9201 6.89998 18.5 6.89998H21.3V4.09998C21.3 3.52008 21.7701 3.04998 22.35 3.04998Z" fill="#C669FF"/>
  <path d="M8.0534 25.9312C8.0534 26.4766 7.97116 26.9787 7.80667 27.4375C7.64218 27.8964 7.39545 28.2946 7.06647 28.6322C6.74615 28.9699 6.34359 29.2339 5.85878 29.4244C5.37397 29.6148 4.81557 29.7101 4.18359 29.7101C3.54294 29.7101 2.98022 29.6148 2.49541 29.4244C2.0106 29.2339 1.60371 28.9699 1.27473 28.6322C0.954408 28.2946 0.712004 27.8964 0.547515 27.4375C0.383026 26.9787 0.300781 26.4766 0.300781 25.9312V20.7823C0.300781 20.5061 0.524639 20.2823 0.800781 20.2823H1.82659C2.10273 20.2823 2.32659 20.5061 2.32659 20.7823V25.8532C2.32659 26.1389 2.36988 26.403 2.45645 26.6454C2.55168 26.8878 2.68154 27.0999 2.84603 27.2817C3.01052 27.4548 3.20531 27.5934 3.4304 27.6972C3.66415 27.7925 3.91521 27.8401 4.18359 27.8401C4.45196 27.8401 4.6987 27.7925 4.92379 27.6972C5.14888 27.5934 5.34367 27.4548 5.50815 27.2817C5.67264 27.0999 5.79817 26.8878 5.88475 26.6454C5.97998 26.403 6.02759 26.1389 6.02759 25.8532V20.7823C6.02759 20.5061 6.25145 20.2823 6.52759 20.2823H7.5534C7.82955 20.2823 8.0534 20.5061 8.0534 20.7823V25.9312Z" fill="#C669FF"/>
  <path d="M9.44564 20.7C9.44564 20.4239 9.6695 20.2 9.94564 20.2H10.8935C11.1697 20.2 11.3935 20.4239 11.3935 20.7V29.1322C11.3935 29.4083 11.1697 29.6322 10.8935 29.6322H9.94564C9.6695 29.6322 9.44564 29.4083 9.44564 29.1322V20.7Z" fill="#C669FF"/>
  <path d="M18.0908 28.0804C18.3184 28.2473 18.3652 28.5733 18.1567 28.7636C17.9149 28.9841 17.6377 29.1654 17.3251 29.3075C16.8489 29.5239 16.3555 29.6322 15.8447 29.6322C15.3599 29.6322 14.901 29.5542 14.4682 29.3984C14.044 29.2426 13.6717 29.0218 13.3514 28.7361C13.0397 28.4418 12.793 28.0912 12.6112 27.6843C12.4294 27.2774 12.3385 26.8229 12.3385 26.3207C12.3385 25.8186 12.4294 25.3641 12.6112 24.9572C12.793 24.5503 13.0397 24.204 13.3514 23.9183C13.6717 23.624 14.044 23.3989 14.4682 23.2431C14.901 23.0872 15.3599 23.0093 15.8447 23.0093C16.2949 23.0093 16.7018 23.0872 17.0654 23.2431C17.4376 23.3989 17.7493 23.624 18.0004 23.9183C18.2601 24.204 18.4592 24.5503 18.5977 24.9572C18.7362 25.3641 18.8055 25.8186 18.8055 26.3207V26.4311C18.8055 26.7072 18.5816 26.9311 18.3055 26.9311H14.9018C14.5845 26.9311 14.3411 27.2326 14.5111 27.5005C14.5886 27.6226 14.6825 27.7315 14.7928 27.8271C15.0525 28.0435 15.3729 28.1518 15.7538 28.1518C16.0741 28.1518 16.3425 28.0825 16.5589 27.944C16.6461 27.8869 16.7288 27.8241 16.8069 27.7553C17.0145 27.5727 17.3242 27.5183 17.5472 27.6818L18.0908 28.0804ZM16.3706 25.6065C16.6416 25.6065 16.8775 25.3811 16.7755 25.13C16.7213 24.9966 16.6405 24.8741 16.5329 24.7624C16.3078 24.5287 16.0178 24.4118 15.6629 24.4118C15.4464 24.4118 15.256 24.4464 15.0915 24.5157C14.927 24.5849 14.7842 24.6758 14.663 24.7884C14.5504 24.8923 14.4595 25.0178 14.3903 25.165C14.291 25.3919 14.4947 25.6065 14.7424 25.6065H16.3706Z" fill="#C669FF"/>
  <path d="M23.691 28.701C23.691 28.6917 23.6835 28.6842 23.6743 28.6842C23.6685 28.6842 23.6632 28.6871 23.6601 28.6919C23.4442 29.0255 23.1558 29.2653 22.795 29.4114C22.4401 29.5586 22.0635 29.6322 21.6652 29.6322C21.3709 29.6322 21.0852 29.5889 20.8082 29.5023C20.5398 29.4244 20.3017 29.3032 20.0939 29.1387C19.8862 28.9742 19.7217 28.7708 19.6005 28.5283C19.4793 28.2859 19.4187 28.0046 19.4187 27.6843C19.4187 27.3207 19.4836 27.0133 19.6135 26.7623C19.752 26.5112 19.9338 26.3034 20.1589 26.1389C20.3926 25.9744 20.6567 25.8489 20.951 25.7623C21.2454 25.6671 21.5484 25.5978 21.86 25.5546C22.1803 25.5113 22.4963 25.4853 22.808 25.4766C22.9401 25.4731 23.0678 25.4702 23.1911 25.4681C23.4672 25.4634 23.7087 25.227 23.5872 24.979C23.5246 24.8513 23.4337 24.7401 23.3145 24.6455C23.072 24.4378 22.782 24.3339 22.4444 24.3339C22.1241 24.3339 21.8297 24.4031 21.5613 24.5417C21.4554 24.5946 21.3538 24.6563 21.2565 24.7265C21.0212 24.8964 20.6878 24.9104 20.4852 24.7028L20.1791 24.389C19.9829 24.1879 19.9892 23.8611 20.2211 23.7024C20.4861 23.521 20.7771 23.3765 21.0939 23.269C21.5787 23.0959 22.0808 23.0093 22.6002 23.0093C23.1716 23.0093 23.6391 23.0829 24.0027 23.2301C24.375 23.3686 24.6693 23.5764 24.8858 23.8534C25.1108 24.1304 25.2667 24.4724 25.3532 24.8793C25.4398 25.2775 25.4831 25.7407 25.4831 26.2688V28.9763C25.4831 29.2525 25.2593 29.4763 24.9831 29.4763H24.0871C23.8684 29.4763 23.691 29.299 23.691 29.0802V28.701ZM23.2106 26.7103C23.0634 26.7103 22.8773 26.719 22.6522 26.7363C22.4357 26.7449 22.2236 26.7796 22.0159 26.8402C21.8167 26.9008 21.6436 26.9917 21.4964 27.1129C21.3579 27.2341 21.2886 27.4029 21.2886 27.6193C21.2886 27.8531 21.3882 28.0262 21.5873 28.1388C21.7864 28.2513 21.9942 28.3076 22.2106 28.3076C22.4011 28.3076 22.5829 28.2816 22.7561 28.2297C22.9379 28.1777 23.098 28.1041 23.2365 28.0089C23.3751 27.9137 23.4833 27.7925 23.5612 27.6453C23.6478 27.4981 23.691 27.325 23.691 27.1259C23.691 26.8964 23.505 26.7103 23.2755 26.7103H23.2106Z" fill="#C669FF"/>
  <path d="M26.4455 23.6651C26.4455 23.389 26.6693 23.1651 26.9455 23.1651H27.8934C28.1695 23.1651 28.3934 23.389 28.3934 23.6651V24.1618C28.3934 24.1708 28.4007 24.178 28.4096 24.178C28.4156 24.178 28.4211 24.1747 28.424 24.1694C28.6308 23.7842 28.876 23.497 29.1596 23.308C29.4452 23.1089 29.8045 23.0093 30.2374 23.0093C30.3499 23.0093 30.4625 23.0136 30.575 23.0223C30.7613 23.0366 30.8867 23.2038 30.8867 23.3907V24.4274C30.8867 24.6386 30.6808 24.7886 30.4711 24.7624C30.3413 24.7364 30.2028 24.7235 30.0556 24.7235C29.6833 24.7235 29.389 24.7754 29.1725 24.8793C28.9561 24.9832 28.7873 25.1304 28.6661 25.3208C28.5535 25.5026 28.48 25.7234 28.4453 25.9831C28.4107 26.2428 28.3934 26.5285 28.3934 26.8402V28.9763C28.3934 29.2525 28.1695 29.4763 27.8934 29.4763H26.9455C26.6693 29.4763 26.4455 29.2525 26.4455 28.9763V23.6651Z" fill="#C669FF"/>
  <path d="M31.7023 23.6651C31.7023 23.389 31.9261 23.1651 32.2023 23.1651H33.1437C33.3804 23.1651 33.5723 23.357 33.5723 23.5937V24.0062C33.5723 24.015 33.5794 24.0222 33.5883 24.0222C33.5944 24.0222 33.5999 24.0188 33.6027 24.0134C33.6631 23.8951 33.7481 23.7769 33.8579 23.6586C33.9705 23.5374 34.1047 23.4292 34.2605 23.334C34.4163 23.2387 34.5938 23.1608 34.7929 23.1002C34.992 23.0396 35.2085 23.0093 35.4422 23.0093C35.9357 23.0093 36.3339 23.0872 36.6369 23.2431C36.9399 23.3902 37.1737 23.598 37.3382 23.8664C37.5113 24.1348 37.6282 24.4508 37.6888 24.8144C37.7494 25.178 37.7797 25.5719 37.7797 25.9961V28.9763C37.7797 29.2525 37.5558 29.4763 37.2797 29.4763H36.3318C36.0557 29.4763 35.8318 29.2525 35.8318 28.9763V26.3857C35.8318 26.2039 35.8232 26.0177 35.8058 25.8273C35.7972 25.6281 35.7582 25.4463 35.689 25.2819C35.6284 25.1174 35.5288 24.9832 35.3903 24.8793C35.2604 24.7754 35.07 24.7235 34.8189 24.7235C34.5678 24.7235 34.3644 24.7711 34.2086 24.8663C34.0527 24.9529 33.9315 25.0741 33.845 25.2299C33.767 25.3771 33.7151 25.5459 33.6891 25.7364C33.6632 25.9268 33.6502 26.1259 33.6502 26.3337V28.9763C33.6502 29.2525 33.4263 29.4763 33.1502 29.4763H32.2023C31.9261 29.4763 31.7023 29.2525 31.7023 28.9763V23.6651Z" fill="#C669FF"/>
  <path d="M42.8601 28.701C42.8601 28.6917 42.8525 28.6842 42.8433 28.6842C42.8375 28.6842 42.8322 28.6871 42.8291 28.6919C42.6132 29.0255 42.3249 29.2653 41.964 29.4114C41.6091 29.5586 41.2325 29.6322 40.8342 29.6322C40.5399 29.6322 40.2542 29.5889 39.9772 29.5023C39.7088 29.4244 39.4707 29.3032 39.2629 29.1387C39.0552 28.9742 38.8907 28.7708 38.7695 28.5283C38.6483 28.2859 38.5877 28.0046 38.5877 27.6843C38.5877 27.3207 38.6526 27.0133 38.7825 26.7623C38.921 26.5112 39.1028 26.3034 39.3279 26.1389C39.5616 25.9744 39.8257 25.8489 40.12 25.7623C40.4144 25.6671 40.7174 25.5978 41.029 25.5546C41.3494 25.5113 41.6654 25.4853 41.977 25.4766C42.1091 25.4731 42.2368 25.4702 42.3601 25.4681C42.6362 25.4634 42.8777 25.227 42.7562 24.979C42.6936 24.8513 42.6027 24.7401 42.4835 24.6455C42.2411 24.4378 41.951 24.3339 41.6134 24.3339C41.2931 24.3339 40.9987 24.4031 40.7304 24.5417C40.6244 24.5946 40.5228 24.6563 40.4255 24.7265C40.1903 24.8964 39.8568 24.9104 39.6542 24.7028L39.3481 24.389C39.1519 24.1879 39.1582 23.8611 39.3901 23.7024C39.6551 23.521 39.9461 23.3765 40.2629 23.269C40.7477 23.0959 41.2498 23.0093 41.7692 23.0093C42.3406 23.0093 42.8081 23.0829 43.1717 23.2301C43.544 23.3686 43.8383 23.5764 44.0548 23.8534C44.2799 24.1304 44.4357 24.4724 44.5223 24.8793C44.6088 25.2775 44.6521 25.7407 44.6521 26.2688V28.9763C44.6521 29.2525 44.4283 29.4763 44.1521 29.4763H43.2561C43.0374 29.4763 42.8601 29.299 42.8601 29.0802V28.701ZM42.3796 26.7103C42.2324 26.7103 42.0463 26.719 41.8212 26.7363C41.6047 26.7449 41.3926 26.7796 41.1849 26.8402C40.9857 26.9008 40.8126 26.9917 40.6654 27.1129C40.5269 27.2341 40.4577 27.4029 40.4577 27.6193C40.4577 27.8531 40.5572 28.0262 40.7563 28.1388C40.9554 28.2513 41.1632 28.3076 41.3797 28.3076C41.5701 28.3076 41.7519 28.2816 41.9251 28.2297C42.1069 28.1777 42.267 28.1041 42.4056 28.0089C42.5441 27.9137 42.6523 27.7925 42.7302 27.6453C42.8168 27.4981 42.8601 27.325 42.8601 27.1259C42.8601 26.8964 42.674 26.7103 42.4445 26.7103H42.3796Z" fill="#C669FF"/>
</svg>
