<svg width="40" height="47" viewBox="0 0 40 47" fill="none" xmlns="http://www.w3.org/2000/svg">
  <path fill-rule="evenodd" clip-rule="evenodd" d="M19.6369 0.699463C20.8419 0.699463 21.8188 1.67164 21.8188 2.87089V5.76623H35C37.7614 5.76623 40 8.00481 40 10.7662V27.5472C40 30.3086 37.7614 32.5472 35 32.5472H21.8188V35.7035L30.9994 41.5772C32.013 42.2257 32.3064 43.5692 31.6548 44.578C31.0032 45.5868 29.6533 45.8789 28.6397 45.2304L21.8188 40.8664V44.128C21.8188 45.3273 20.8419 46.2995 19.6369 46.2995C18.432 46.2995 17.4551 45.3273 17.4551 44.128V40.8665L10.6344 45.2304C9.62075 45.8789 8.27083 45.5869 7.61922 44.5781C6.96762 43.5693 7.26108 42.2258 8.27468 41.5773L17.4551 35.7037V32.5472H5C2.23858 32.5472 0 30.3086 0 27.5472V10.7662C0 8.00481 2.23858 5.76623 5 5.76623H17.4551V2.87089C17.4551 1.67164 18.432 0.699463 19.6369 0.699463ZM9.61425 13.7284C8.72217 13.7284 7.999 14.4845 7.999 15.4173C7.999 16.35 8.72217 17.1062 9.61425 17.1062H20.6495C21.5416 17.1062 22.2647 16.35 22.2647 15.4173C22.2647 14.4845 21.5416 13.7284 20.6495 13.7284H9.61425ZM7.999 22.1728C7.999 21.24 8.72217 20.4839 9.61425 20.4839H31.111C32.0031 20.4839 32.7263 21.24 32.7263 22.1728C32.7263 23.1056 32.0031 23.8617 31.111 23.8617H9.61425C8.72217 23.8617 7.999 23.1056 7.999 22.1728Z" fill="white"/>
</svg>
