<svg width="32" height="36" viewBox="0 0 32 36" fill="none" xmlns="http://www.w3.org/2000/svg">
  <path d="M13.4034 21.4446C14.0718 22.1129 15.1116 22.262 15.8836 21.7167C17.1584 20.8163 18.4213 19.6723 19.6723 18.2848C21.8496 15.8707 25.5404 11.5904 30.7484 5.44568C31.2755 4.82424 31.5496 4.02726 31.5162 3.21304C31.4829 2.39882 31.1445 1.62694 30.5682 1.05072C29.992 0.474498 29.2201 0.136093 28.4059 0.102723C27.5917 0.0693535 26.7947 0.343461 26.1733 0.870599C20.0394 6.07137 15.7591 9.76398 13.3341 11.9484C11.9436 13.1986 10.7982 14.4606 9.89875 15.7323C9.35307 16.5038 9.50225 17.5434 10.1704 18.2116L13.4034 21.4446Z" fill="#C669FF"/>
  <path d="M7.80874 20.9671C7.08213 20.2407 5.93665 20.1467 5.10135 20.7449L4.76255 20.9876C3.68351 21.7603 2.87609 22.8541 2.45546 24.1129L0.79512 29.0818C0.428079 30.1802 1.47746 31.2239 2.57388 30.8508L7.52688 29.1657C8.77155 28.7423 9.85255 27.94 10.6184 26.8714L10.8728 26.5164C11.4716 25.6809 11.3776 24.5347 10.6506 23.808L7.80874 20.9671Z" fill="#C669FF"/>
  <path d="M13.2 28.8C13.2 28.0268 13.8268 27.4 14.6 27.4L30 27.4C30.7732 27.4 31.4 28.0268 31.4 28.8C31.4 29.5732 30.7732 30.2 30 30.2H14.6C13.8268 30.2 13.2 29.5732 13.2 28.8Z" fill="#C669FF"/>
  <path d="M0.599998 34.4C0.599998 33.6268 1.2268 33 2 33H29.9728C30.746 33 31.3728 33.6268 31.3728 34.4C31.3728 35.1732 30.746 35.8 29.9728 35.8H2C1.2268 35.8 0.599998 35.1732 0.599998 34.4Z" fill="#C669FF"/>
</svg>
