<svg width="38" height="34" viewBox="0 0 38 34" fill="none" xmlns="http://www.w3.org/2000/svg">
  <path fill-rule="evenodd" clip-rule="evenodd" d="M25.8382 14.7543C25.6763 14.8478 25.4783 14.8478 25.3164 14.7543L19.3857 11.3293C19.2538 9.56707 17.8728 8.00865 15.9724 8.00865H13.9489C13.8878 7.78268 13.9711 7.52209 14.1988 7.3906L25.3164 0.970124C25.4783 0.876627 25.6763 0.876627 25.8382 0.970125L36.9558 7.3906C37.1354 7.49429 37.2252 7.67826 37.2252 7.86222H37.2423V14.905C37.2423 15.2042 37.0049 15.4467 36.7121 15.4467H36.1818C35.889 15.4467 35.6516 15.2042 35.6516 14.905V9.08705L25.8382 14.7543ZM15.4 33.8001C14.2954 33.8001 13.379 32.8955 13.5992 31.8131C14.5308 27.2349 18.6182 23.7871 23.5196 23.7871H27.7804C32.6818 23.7871 36.7692 27.2349 37.7008 31.8131C37.921 32.8955 37.0046 33.8001 35.9 33.8001H15.4ZM26.6211 16.1685C25.9735 16.5424 25.1815 16.5424 24.5339 16.1684L19.745 13.4029V16.6559C19.745 19.8771 22.3563 22.4884 25.5775 22.4884C28.7987 22.4884 31.41 19.8771 31.41 16.6559V13.4028L26.6211 16.1685ZM1.62622 9.94717C0.783316 9.94717 0.100006 10.6897 0.100006 11.6057V20.23C0.100006 21.146 0.783315 21.8885 1.62622 21.8885H9.90378C10.4062 21.8885 10.8903 22.0776 11.2596 22.4183L13.6461 24.619C14.2868 25.2098 15.324 24.7554 15.324 23.8839V21.8885H15.9727C16.8156 21.8885 17.4989 21.146 17.4989 20.23V11.6057C17.4989 10.6897 16.8156 9.94717 15.9726 9.94717H1.62622Z" fill="#F2B71E"/>
</svg>
