<svg width="34" height="35" viewBox="0 0 34 35" fill="none" xmlns="http://www.w3.org/2000/svg">
  <path d="M23.9276 0.934616C24.2174 0.644855 24.574 0.499828 24.9973 0.500001C25.4212 0.499536 25.7767 0.644678 26.0665 0.934849L33.5553 8.42367C33.8451 8.71343 33.9901 9.07005 33.9901 9.49325C33.99 9.9168 33.8455 10.2735 33.5557 10.5632C33.266 10.853 32.909 10.9978 32.4853 10.998L27.6718 10.9977L27.6714 26.4189C27.6715 26.6417 27.5992 26.8252 27.4542 26.9702C27.3092 27.1152 27.1257 27.1875 26.9029 27.1874L23.0913 27.1877C22.8687 27.1876 22.6846 27.1151 22.5397 26.9703C22.3949 26.8254 22.3226 26.6416 22.3223 26.4187L22.3223 10.998L17.5085 10.9976C17.0853 10.9976 16.7286 10.8526 16.4389 10.5628C16.1491 10.2731 16.0042 9.9165 16.0041 9.49325C16.0043 9.06953 16.149 8.7132 16.4387 8.4235L23.9276 0.934616Z" fill="#20B7F7"/>
  <path d="M5.04261 20.2845H20.1312L20.1312 14.4419H5.04261C4.23591 14.4419 3.58195 15.0958 3.58195 15.9025V18.8238C3.58195 19.6305 4.23591 20.2845 5.04261 20.2845Z" fill="#20B7F7"/>
  <path d="M1.87295 21.7452C1.06625 21.7452 0.412292 22.3991 0.412292 23.2058V26.1271C0.412292 26.9338 1.06625 27.5878 1.87295 27.5878H20.1311V21.7452H1.87295Z" fill="#20B7F7"/>
  <path d="M3.40028 30.6C3.40028 29.8268 4.13515 29.2 5.04166 29.2H25.5589C26.4654 29.2 27.2003 29.8268 27.2003 30.6V33.4C27.2003 34.1732 26.4654 34.8 25.5589 34.8H5.04166C4.13515 34.8 3.40028 34.1732 3.40028 33.4V30.6Z" fill="#20B7F7"/>
  <path d="M11.1561 10.0096C11.5856 9.549 11.8003 8.97321 11.8003 8.28226C11.8003 7.73937 11.6543 7.27051 11.3622 6.87568C11.0788 6.47262 10.6322 6.13948 10.0224 5.87626C9.69599 5.74465 9.36531 5.63361 9.03034 5.54313C8.67819 5.42797 8.41194 5.33749 8.23157 5.27168C8.05979 5.19765 7.91378 5.10717 7.79353 5.00024C7.67329 4.8933 7.61316 4.75758 7.61316 4.59307C7.61316 4.37098 7.69905 4.19001 7.87083 4.05018C8.0512 3.91034 8.2874 3.84042 8.57942 3.84042C8.94016 3.84042 9.20642 3.94736 9.37819 4.16122C9.55856 4.37509 9.64875 4.6342 9.64875 4.93854V5.04959C9.64875 5.05464 9.64907 5.05957 9.64972 5.06437C9.65944 5.13643 9.7473 5.16437 9.81974 5.17054C9.83877 5.17216 9.85908 5.17297 9.88065 5.17297H11.5168C11.5856 5.17297 11.6414 5.15241 11.6843 5.11128C11.7273 5.07015 11.7487 5.01669 11.7487 4.95088V4.5067C11.7487 3.8651 11.5383 3.33455 11.1175 2.91504C10.7052 2.49554 10.1211 2.23643 9.36531 2.13772C9.30519 2.1295 9.27513 2.09659 9.27513 2.03901L9.28801 1.42209C9.28801 1.35629 9.26654 1.30282 9.22359 1.26169C9.18065 1.22056 9.12482 1.2 9.05611 1.2H8.16715C8.09844 1.2 8.04261 1.22056 7.99967 1.26169C7.95672 1.30282 7.93525 1.35629 7.93525 1.42209L7.96102 2.05135C7.96102 2.10893 7.93095 2.14183 7.87083 2.15006C7.12359 2.26522 6.53954 2.54489 6.11868 2.98907C5.70642 3.43326 5.50028 3.98848 5.50028 4.65476C5.50028 5.12362 5.60335 5.53079 5.80948 5.87626C6.01562 6.22174 6.29476 6.50552 6.64691 6.72762C6.84445 6.85923 7.06776 6.97438 7.31684 7.07309C7.56592 7.1718 7.86224 7.27873 8.2058 7.39389C8.71255 7.5584 9.08187 7.70646 9.31378 7.83807C9.54568 7.96968 9.66163 8.15065 9.66163 8.38096C9.66163 8.58661 9.58003 8.77168 9.41684 8.93619C9.26224 9.09248 9.03034 9.17062 8.72114 9.17062C8.37758 9.17062 8.11132 9.07192 7.92237 8.8745C7.742 8.67709 7.65181 8.43854 7.65181 8.15887V8.01081C7.65181 7.96968 7.63034 7.93678 7.5874 7.9121C7.54445 7.8792 7.48862 7.86275 7.41991 7.86275H5.78372C5.715 7.86275 5.65918 7.88332 5.61623 7.92444C5.57329 7.96557 5.55181 8.01904 5.55181 8.08484V8.62773C5.55181 9.2282 5.75365 9.72585 6.15734 10.1207C6.5696 10.5155 7.14077 10.7664 7.87083 10.8733C7.93095 10.8816 7.96102 10.9145 7.96102 10.972L7.94813 11.4779C7.94813 11.626 8.02114 11.7 8.16715 11.7H9.08187C9.22789 11.7 9.30089 11.626 9.30089 11.4779L9.28801 10.9597C9.28801 10.9021 9.31807 10.8692 9.37819 10.861C10.1426 10.7458 10.7352 10.462 11.1561 10.0096Z" fill="#20B7F7"/>
</svg>
