<svg width="37" height="34" viewBox="0 0 37 34" fill="none" xmlns="http://www.w3.org/2000/svg">
  <path fill-rule="evenodd" clip-rule="evenodd" d="M7.5 9.2C7.5 8.09543 8.39543 7.2 9.5 7.2H27.2C28.3046 7.2 29.2 8.09543 29.2 9.2V24.8C29.2 25.9046 28.3046 26.8 27.2 26.8H9.5C8.39543 26.8 7.5 25.9046 7.5 24.8V9.2ZM10.6001 10.7554C10.6001 10.1962 11.0534 9.74292 11.6126 9.74292H18.5299C19.0891 9.74292 19.5424 10.1962 19.5424 10.7554C19.5424 11.3146 19.0891 11.7679 18.5299 11.7679H11.6126C11.0534 11.7679 10.6001 11.3146 10.6001 10.7554ZM11.6126 13.7931C11.0534 13.7931 10.6001 14.2464 10.6001 14.8056C10.6001 15.3648 11.0534 15.8181 11.6126 15.8181H25.0876C25.6468 15.8181 26.1001 15.3648 26.1001 14.8056C26.1001 14.2464 25.6468 13.7931 25.0876 13.7931H11.6126ZM10.6001 18.8563C10.6001 18.2971 11.0534 17.8438 11.6126 17.8438H25.0876C25.6468 17.8438 26.1001 18.2971 26.1001 18.8563C26.1001 19.4155 25.6468 19.8688 25.0876 19.8688H11.6126C11.0534 19.8688 10.6001 19.4155 10.6001 18.8563ZM11.6126 21.8936C11.0534 21.8936 10.6001 22.3469 10.6001 22.9061C10.6001 23.4653 11.0534 23.9186 11.6126 23.9186H25.0876C25.6468 23.9186 26.1001 23.4653 26.1001 22.9061C26.1001 22.3469 25.6468 21.8936 25.0876 21.8936H11.6126Z" fill="#F2B71E"/>
  <rect x="6.09979" y="0.200001" width="24.5" height="5.6" rx="2" fill="#F2B71E"/>
  <path d="M4.70001 0.9C4.70001 0.513401 4.38661 0.200001 4.00001 0.200001H3.30001C1.75362 0.200001 0.500013 1.4536 0.500013 3C0.500013 4.5464 1.75362 5.8 3.30001 5.8H4.00001C4.38661 5.8 4.70001 5.4866 4.70001 5.1V0.9Z" fill="#F2B71E"/>
  <path d="M31.9996 0.9C31.9996 0.513401 32.313 0.200001 32.6996 0.200001H33.3996C34.946 0.200001 36.1996 1.4536 36.1996 3C36.1996 4.5464 34.946 5.8 33.3996 5.8H32.6996C32.313 5.8 31.9996 5.4866 31.9996 5.1V0.9Z" fill="#F2B71E"/>
  <rect x="6.09979" y="28.2" width="24.5" height="5.6" rx="2" fill="#F2B71E"/>
  <path d="M4.70001 28.9C4.70001 28.5134 4.38661 28.2 4.00001 28.2H3.30001C1.75362 28.2 0.500013 29.4536 0.500013 31C0.500013 32.5464 1.75361 33.8 3.30001 33.8H4.00001C4.38661 33.8 4.70001 33.4866 4.70001 33.1V28.9Z" fill="#F2B71E"/>
  <path d="M31.9996 28.9C31.9996 28.5134 32.313 28.2 32.6996 28.2H33.3996C34.946 28.2 36.1996 29.4536 36.1996 31C36.1996 32.5464 34.946 33.8 33.3996 33.8H32.6996C32.313 33.8 31.9996 33.4866 31.9996 33.1V28.9Z" fill="#F2B71E"/>
</svg>
