<svg width="16" height="16" viewBox="0 0 16 16" fill="none" xmlns="http://www.w3.org/2000/svg">
  <path fill-rule="evenodd" clip-rule="evenodd" d="M11.4388 8.50018H2.75C2.55109 8.50018 2.36032 8.42118 2.21967 8.28055C2.07902 8.13993 2 7.9492 2 7.75033C2 7.7503 2 7.75028 2 7.75025C2.00002 7.9491 2.07903 8.1398 2.21967 8.28041C2.36032 8.42103 2.55109 8.50003 2.75 8.50003H11.439L11.4388 8.50018ZM7.99892 12.2492C7.99892 12.2493 7.99892 12.2493 7.99892 12.2493C7.99892 12.4484 8.07804 12.6394 8.21887 12.7802C8.3597 12.921 8.55071 13.0001 8.74987 13.0001C8.94904 13.0001 9.14004 12.921 9.28087 12.7802L13.7809 8.28109C13.8507 8.21144 13.9061 8.12869 13.9439 8.03759C13.977 7.95788 13.9961 7.87314 14.0003 7.78713C13.996 7.87309 13.977 7.95778 13.9439 8.03744C13.9061 8.12854 13.8507 8.21129 13.7809 8.28095L9.28087 12.7801C9.14004 12.9209 8.94904 13 8.74987 13C8.55071 13 8.3597 12.9209 8.21887 12.7801C8.07806 12.6393 7.99894 12.4483 7.99892 12.2492ZM7.99853 3.25102C7.99854 3.34963 8.018 3.44726 8.0558 3.53834C8.09361 3.62944 8.14903 3.71219 8.21887 3.78184L11.4392 7.00033H11.4391L8.21887 3.78199C8.14903 3.71233 8.09361 3.62958 8.0558 3.53849C8.01799 3.44739 7.99853 3.34972 7.99853 3.25109C7.99853 3.25107 7.99853 3.25104 7.99853 3.25102ZM14.4058 8.22918C14.3428 8.38082 14.2502 8.51902 14.134 8.63502L9.63443 13.1337C9.39983 13.3682 9.08164 13.5 8.74987 13.5C8.4181 13.5 8.09992 13.3682 7.86532 13.1337C7.63072 12.8991 7.49892 12.581 7.49892 12.2493C7.49892 11.9176 7.63079 11.5994 7.86539 11.3649L10.2315 9.00008H2.75C2.41848 9.00008 2.10054 8.86841 1.86612 8.63403C1.6317 8.39966 1.5 8.08178 1.5 7.75033C1.5 7.41887 1.6317 7.10099 1.86612 6.86662C2.10054 6.63224 2.41848 6.50057 2.75 6.50057H10.2318L7.86539 4.13554C7.74916 4.01952 7.65693 3.88175 7.59398 3.73008C7.53097 3.57825 7.49853 3.41548 7.49853 3.25109C7.49853 3.08671 7.53097 2.92394 7.59399 2.7721C7.65693 2.62044 7.74915 2.48267 7.86538 2.36665C7.98139 2.25051 8.11915 2.15835 8.27079 2.09543C8.42265 2.03243 8.58545 2 8.74987 2C8.91429 2 9.07709 2.03243 9.22895 2.09543C9.38072 2.1584 9.5188 2.25088 9.63487 2.36716L14.1344 6.86582C14.2506 6.98182 14.3428 7.11957 14.4058 7.27121C14.4688 7.42304 14.5012 7.58581 14.5012 7.7502C14.5012 7.91458 14.4688 8.07735 14.4058 8.22918Z" fill="white"/>
</svg>
