<svg width="16" height="17" viewBox="0 0 16 17" fill="none" xmlns="http://www.w3.org/2000/svg">
<path d="M15.4042 3.78224L12.6642 1.04224C12.3066 0.706336 11.838 0.5136 11.3475 0.500693C10.8571 0.487786 10.379 0.65561 10.0042 0.972241L1.0042 9.97224C0.680969 10.2982 0.479707 10.7254 0.434203 11.1822L0.00420295 15.3522C-0.00926809 15.4987 0.00973728 15.6463 0.0598642 15.7846C0.109991 15.9229 0.190005 16.0484 0.294203 16.1522C0.387643 16.2449 0.498459 16.3182 0.620297 16.368C0.742134 16.4178 0.872596 16.443 1.0042 16.4422H1.0942L5.2642 16.0622C5.721 16.0167 6.14824 15.8155 6.4742 15.4922L15.4742 6.49224C15.8235 6.12321 16.0123 5.63075 15.9992 5.12278C15.9861 4.6148 15.7721 4.13275 15.4042 3.78224ZM12.0042 7.12224L9.3242 4.44224L11.2742 2.44224L14.0042 5.17224L12.0042 7.12224Z" fill="currentColor"/>
</svg>
