<svg width="16" height="17" viewBox="0 0 16 17" fill="none" xmlns="http://www.w3.org/2000/svg">
  <path fill-rule="evenodd" clip-rule="evenodd" d="M4.92839 9.45229C4.77677 9.73419 4.86743 9.96658 5.17981 10.279L5.46934 10.5685C5.78553 10.8847 6.02248 10.9727 6.29638 10.8199C6.39581 10.7666 6.50248 10.6831 6.61677 10.5685L8.33905 8.84658C8.66134 8.56696 8.99353 8.68277 9.30591 8.99515C9.62591 9.31134 9.82019 9.6881 9.53067 10.0313L6.94858 12.6146C6.03048 13.5327 4.63924 13.7498 3.50477 12.6146C2.48305 11.5932 2.58667 10.0885 3.50477 9.17038L8.66934 4.00391C9.58743 3.08543 10.9474 2.83819 12.1135 4.00391C13.2754 5.16619 13.1044 6.45762 12.3992 7.16277C11.9535 7.60848 12.0027 8.13038 12.2808 8.43515L12.5665 8.72048C13.0011 9.15096 13.3973 9.01762 13.824 8.58372C15.2869 6.83096 15.1958 4.21762 13.5497 2.56772C11.8046 0.826385 8.97791 0.826385 7.23353 2.56772L2.06743 7.73419C0.326481 9.47896 0.326481 12.306 2.06743 14.0508C3.81219 15.7921 6.63924 15.7921 8.384 14.0508L10.9669 11.4675C11.7474 10.2828 11.6373 8.74372 10.597 7.70372C9.56039 6.66715 8.08267 6.64429 6.9021 7.41L5.17981 9.13229C5.06591 9.24658 4.98172 9.35324 4.92839 9.45229Z" fill="currentColor"/>
</svg>
