<svg width="16" height="15" viewBox="0 0 16 15" fill="none" xmlns="http://www.w3.org/2000/svg">
  <path fill-rule="evenodd" clip-rule="evenodd" d="M4 0.5C1.79086 0.5 0 2.29086 0 4.5V10.5C0 12.7091 1.79086 14.5 4 14.5H6.7C7.25229 14.5 7.7 14.0523 7.7 13.5C7.7 12.9477 7.25229 12.5 6.7 12.5H4C2.89543 12.5 2 11.6046 2 10.5V4.5C2 3.39543 2.89543 2.5 4 2.5H6.7C7.25229 2.5 7.7 2.05228 7.7 1.5C7.7 0.947715 7.25229 0.5 6.7 0.5H4ZM5 5.80704V9.1499C5 9.53562 5.34286 9.85705 5.72857 9.85705H9.60714V12.4928C9.60714 12.7285 9.73571 12.9213 9.95 13.0285C10.0357 13.0499 10.1214 13.0499 10.1643 13.0499C10.3143 13.0499 10.4429 13.007 10.55 12.8999L15.5857 7.86419C15.8214 7.67133 15.8 7.28562 15.5857 7.07133L10.55 2.05705C10.25 1.73562 9.60714 1.92847 9.60714 2.44276V5.0999H5.72857C5.34286 5.0999 5 5.42133 5 5.80704Z" fill="currentColor"/>
</svg>
