<svg width="16" height="17" viewBox="0 0 16 17" fill="none" xmlns="http://www.w3.org/2000/svg">
  <path d="M0 8.5C0 9.97022 1.19644 11.1667 2.66667 11.1667C3.37244 11.1667 4.01067 10.8867 4.488 10.4378L9.81333 13.4813C9.79733 13.5969 9.77778 13.7124 9.77778 13.8333C9.77778 15.3036 10.9742 16.5 12.4444 16.5C13.9147 16.5 15.1111 15.3036 15.1111 13.8333C15.1111 12.3631 13.9147 11.1667 12.4444 11.1667C11.7387 11.1667 11.1004 11.4467 10.6231 11.8956L5.29778 8.85289C5.31378 8.73644 5.33333 8.62089 5.33333 8.5C5.33333 8.37911 5.31378 8.26356 5.29778 8.14711L10.6231 5.10444C11.1004 5.55333 11.7387 5.83333 12.4444 5.83333C13.9147 5.83333 15.1111 4.63689 15.1111 3.16667C15.1111 1.69644 13.9147 0.5 12.4444 0.5C10.9742 0.5 9.77778 1.69644 9.77778 3.16667C9.77778 3.28756 9.79733 3.40311 9.81333 3.51956L4.488 6.56222C3.99645 6.09527 3.34465 5.83442 2.66667 5.83333C1.19644 5.83333 0 7.02978 0 8.5Z" fill="currentColor"/>
</svg>
