<svg width="16" height="11" viewBox="0 0 16 11" fill="none" xmlns="http://www.w3.org/2000/svg">
  <path d="M9.69592 9.98068L15.1782 6.04303C15.3073 5.96672 15.4143 5.85807 15.4886 5.7278C15.563 5.59753 15.6021 5.45013 15.6021 5.30014C15.6021 5.15015 15.563 5.00275 15.4886 4.87248C15.4143 4.74221 15.3073 4.63356 15.1782 4.55726L9.69592 0.619599C9.56524 0.542732 9.41654 0.501811 9.26493 0.500989C9.11332 0.500167 8.96418 0.539473 8.83267 0.614919C8.70116 0.690364 8.59195 0.799261 8.51614 0.930557C8.44032 1.06185 8.40058 1.21087 8.40097 1.36249V2.89986C6.77601 2.89986 2.21748 2.89986 0.462705 9.96118C0.330085 10.4948 1.13731 10.8183 1.51709 10.4206C4.52592 7.26986 8.40097 7.70042 8.40097 7.70042V9.2378C8.40097 9.90988 9.12826 10.3155 9.69592 9.98188V9.98068Z" fill="currentColor"/>
</svg>
