<svg width="14" height="13" viewBox="0 0 14 13" fill="none" xmlns="http://www.w3.org/2000/svg">
  <path fill-rule="evenodd" clip-rule="evenodd"
        d="M0.595216 6.97847C0.658151 7.13014 0.7508 7.26837 0.867 7.38439L5.36655 11.8839C5.60115 12.1185 5.91933 12.2503 6.2511 12.2503C6.58288 12.2503 6.90106 12.1185 7.13566 11.8839C7.37026 11.6493 7.50205 11.3312 7.50205 10.9994C7.50205 10.6676 7.37019 10.3494 7.13559 10.1148L4.76945 7.74952H12.251C12.5825 7.74952 12.9004 7.61782 13.1349 7.3834C13.3693 7.14898 13.501 6.83104 13.501 6.49952C13.501 6.16799 13.3693 5.85005 13.1349 5.61563C12.9004 5.38121 12.5825 5.24952 12.251 5.24952H4.76919L7.13559 2.88401C7.25182 2.76797 7.34405 2.63017 7.40699 2.47847C7.47001 2.32661 7.50245 2.16381 7.50245 1.99939C7.50245 1.83497 7.47001 1.67217 7.40699 1.5203C7.34405 1.36861 7.25183 1.23081 7.1356 1.11477C7.01959 0.998605 6.88183 0.906424 6.73019 0.843499C6.57832 0.780483 6.41552 0.748047 6.2511 0.748047C6.08669 0.748047 5.92389 0.780482 5.77202 0.843499C5.62026 0.906475 5.48217 0.998977 5.3661 1.11528L0.86655 5.61483C0.750352 5.73085 0.658151 5.86863 0.595217 6.0203C0.532201 6.17216 0.499763 6.33497 0.499763 6.49939C0.499763 6.66381 0.532202 6.82661 0.595216 6.97847Z"
        fill="currentColor"/>
</svg>
