<svg width="16" height="12" viewBox="0 0 16 12" fill="none" xmlns="http://www.w3.org/2000/svg">
  <path fill-rule="evenodd" clip-rule="evenodd"
        d="M0.0333947 2.1341C0.0114629 2.25272 0 2.37502 0 2.5V9.83333C0 10.9379 0.895431 11.8333 2 11.8333H14C15.1046 11.8333 16 10.9379 16 9.83333V2.5C16 2.37547 15.9886 2.25361 15.9668 2.13538L9.03543 7.62275C8.42925 8.10264 7.57261 8.10264 6.96642 7.62275L0.0333947 2.1341ZM14.6667 0.613807C14.4582 0.540104 14.2338 0.5 14 0.5H2C1.76672 0.5 1.54277 0.539939 1.33461 0.613354L8.00093 5.89086L14.6667 0.613807Z"
        fill="currentColor"/>
</svg>
