<svg width="12" height="15" viewBox="0 0 12 15" fill="none" xmlns="http://www.w3.org/2000/svg">
  <path d="M0.877458 13.9636L0.860299 13.9733M0.877458 13.9636L0.860299 13.9733M0.877458 13.9636L0.860299 13.9733M0.877458 13.9636L0.860299 13.9733M1.5005 2.2381V2.2218L1.50014 2.20551C1.49676 2.04987 1.55341 1.90869 1.64246 1.81087L0.533282 0.801058L1.64246 1.81087C1.72509 1.72012 1.82664 1.67479 1.92347 1.66699H10.0765C10.1734 1.67479 10.2749 1.72012 10.3575 1.81087C10.4466 1.90869 10.5032 2.04987 10.4999 2.20551L10.4995 2.2218V2.2381V12.8439L6.61379 10.5624L5.83151 10.1031L5.06144 10.5825L1.5005 12.7998V2.2381Z" stroke="currentColor" stroke-width="3"/>
</svg>
