<svg width="12" height="15" viewBox="0 0 12 15" fill="none" xmlns="http://www.w3.org/2000/svg">
  <path d="M0.833333 12.8333C0.833333 13.75 1.58333 14.5 2.5 14.5H9.16667C10.0833 14.5 10.8333 13.75 10.8333 12.8333V5.5C10.8333 4.58333 10.0833 3.83333 9.16667 3.83333H2.5C1.58333 3.83333 0.833333 4.58333 0.833333 5.5V12.8333ZM10.8333 1.33333H8.75L8.15833 0.741667C8.00833 0.591667 7.79167 0.5 7.575 0.5H4.09167C3.875 0.5 3.65833 0.591667 3.50833 0.741667L2.91667 1.33333H0.833333C0.375 1.33333 0 1.70833 0 2.16667C0 2.625 0.375 3 0.833333 3H10.8333C11.2917 3 11.6667 2.625 11.6667 2.16667C11.6667 1.70833 11.2917 1.33333 10.8333 1.33333Z" fill="currentColor"/>
</svg>
