<svg width="14" height="12" viewBox="0 0 14 12" fill="none" xmlns="http://www.w3.org/2000/svg">
  <path fill-rule="evenodd" clip-rule="evenodd" d="M10.4388 6.50018H1.75C1.55109 6.50018 1.36032 6.42118 1.21967 6.28055C1.07902 6.13993 1 5.9492 1 5.75033C1 5.7503 1 5.75028 1 5.75025C1.00002 5.9491 1.07903 6.1398 1.21967 6.28041C1.36032 6.42103 1.55109 6.50003 1.75 6.50003H10.439L10.4388 6.50018ZM6.99892 10.2492C6.99892 10.2493 6.99892 10.2493 6.99892 10.2493C6.99892 10.4484 7.07804 10.6394 7.21887 10.7802C7.3597 10.921 7.55071 11.0001 7.74987 11.0001C7.94904 11.0001 8.14004 10.921 8.28087 10.7802L12.7809 6.28109C12.8507 6.21144 12.9061 6.12869 12.9439 6.03759C12.977 5.95788 12.9961 5.87314 13.0003 5.78713C12.996 5.87309 12.977 5.95778 12.9439 6.03744C12.9061 6.12854 12.8507 6.21129 12.7809 6.28095L8.28087 10.7801C8.14004 10.9209 7.94904 11 7.74987 11C7.55071 11 7.3597 10.9209 7.21887 10.7801C7.07806 10.6393 6.99894 10.4483 6.99892 10.2492ZM6.99853 1.25102C6.99854 1.34963 7.018 1.44726 7.0558 1.53834C7.09361 1.62944 7.14903 1.71219 7.21887 1.78184L10.4392 5.00033H10.4391L7.21887 1.78199C7.14903 1.71233 7.09361 1.62958 7.0558 1.53849C7.01799 1.44739 6.99853 1.34972 6.99853 1.25109C6.99853 1.25107 6.99853 1.25104 6.99853 1.25102ZM13.4058 6.22918C13.3428 6.38082 13.2502 6.51902 13.134 6.63502L8.63443 11.1337C8.39983 11.3682 8.08164 11.5 7.74987 11.5C7.4181 11.5 7.09992 11.3682 6.86532 11.1337C6.63072 10.8991 6.49892 10.581 6.49892 10.2493C6.49892 9.9176 6.63079 9.59941 6.86539 9.36486L9.23153 7.00008H1.75C1.41848 7.00008 1.10054 6.86841 0.866117 6.63403C0.631696 6.39966 0.5 6.08178 0.5 5.75033C0.5 5.41887 0.631696 5.10099 0.866116 4.86662C1.10054 4.63224 1.41848 4.50057 1.75 4.50057H9.23179L6.86539 2.13554C6.74916 2.01952 6.65693 1.88175 6.59398 1.73008C6.53097 1.57825 6.49853 1.41548 6.49853 1.25109C6.49853 1.08671 6.53097 0.923935 6.59399 0.772102C6.65693 0.62044 6.74915 0.482666 6.86538 0.366655C6.98139 0.250509 7.11915 0.158346 7.27079 0.0954334C7.42265 0.0324293 7.58545 0 7.74987 0C7.91429 0 8.07709 0.0324291 8.22895 0.0954334C8.38072 0.158396 8.5188 0.25088 8.63487 0.367162L13.1344 4.86582C13.2506 4.98182 13.3428 5.11957 13.4058 5.27121C13.4688 5.42304 13.5012 5.58581 13.5012 5.7502C13.5012 5.91458 13.4688 6.07735 13.4058 6.22918Z" fill="white"/>
</svg>
