<svg width="25" height="22" viewBox="0 0 25 22" fill="none" xmlns="http://www.w3.org/2000/svg">
<path fill-rule="evenodd" clip-rule="evenodd" d="M12.8772 17.9998C17.923 17.9998 22.0134 13.9704 22.0134 8.99992C22.0134 4.0294 17.923 0 12.8772 0C7.83133 0 3.74087 4.0294 3.74087 8.99992C3.74087 13.9704 7.83133 17.9998 12.8772 17.9998ZM12.0581 4.05309C12.3887 3.26467 13.5224 3.26467 13.853 4.05309L14.6282 5.90162C14.7671 6.23274 15.0821 6.45967 15.4445 6.48959L17.468 6.65666C18.3227 6.72723 18.6716 7.77485 18.0254 8.33043L16.4672 9.6703C16.1968 9.90281 16.0787 10.2633 16.16 10.6077L16.6287 12.592C16.8242 13.4198 15.9085 14.0689 15.1738 13.6232L13.4647 12.5864C13.1525 12.397 12.7586 12.397 12.4464 12.5864L10.7374 13.6232C10.0027 14.0689 9.0869 13.4198 9.28244 12.592L9.75114 10.6077C9.83248 10.2633 9.71434 9.90281 9.44393 9.6703L7.88571 8.33043C7.23957 7.77485 7.58847 6.72723 8.44314 6.65666L10.4666 6.48959C10.829 6.45967 11.1441 6.23275 11.2829 5.90162L12.0581 4.05309ZM1.01394 20.4124L4.57397 15.5836C6.30549 17.7002 8.85388 19.1411 11.7474 19.4416L10.1653 21.5876C9.97429 21.8467 9.66889 22 9.34388 22H1.83531C1.00595 22 0.526569 21.0734 1.01394 20.4124ZM15.5907 21.5876L14.0085 19.4417C16.9021 19.1412 19.4505 17.7002 21.182 15.5836L24.742 20.4124C25.2293 21.0734 24.75 22 23.9206 22H16.412C16.087 22 15.7816 21.8467 15.5907 21.5876Z" fill="currentColor"/>
</svg>
