<svg width="19" height="22" viewBox="0 0 19 22" fill="none" xmlns="http://www.w3.org/2000/svg">
  <path d="M2.1197 19.381C2.1197 20.8214 3.27684 22 4.69113 22H14.9768C16.3911 22 17.5483 20.8214 17.5483 19.381V7.85714C17.5483 6.41667 16.3911 5.23809 14.9768 5.23809H4.69113C3.27684 5.23809 2.1197 6.41667 2.1197 7.85714V19.381ZM17.5483 1.30952H14.334L13.4211 0.379762C13.1897 0.144048 12.8554 0 12.5211 0H7.14684C6.81256 0 6.47827 0.144048 6.24684 0.379762L5.33398 1.30952H2.1197C1.41256 1.30952 0.833984 1.89881 0.833984 2.61905C0.833984 3.33929 1.41256 3.92857 2.1197 3.92857H17.5483C18.2554 3.92857 18.834 3.33929 18.834 2.61905C18.834 1.89881 18.2554 1.30952 17.5483 1.30952Z" fill="currentColor"/>
</svg>
