<svg width="26" height="24" viewBox="0 0 26 24" fill="none" xmlns="http://www.w3.org/2000/svg">
<path fill-rule="evenodd" clip-rule="evenodd" d="M11.9467 1.11864C12.2538 0.943525 12.6305 0.943526 12.9375 1.11864L24.0674 7.46609C24.6914 7.82195 25.0766 8.4851 25.0766 9.20342V16.7157C25.0766 17.1805 24.6998 17.5573 24.235 17.5573C23.7702 17.5573 23.3934 17.1805 23.3934 16.7157V9.00159L23.0401 9.20306L22.3336 9.606L20.9205 10.4119L18.0944 12.0236L13.4329 14.6821C12.8188 15.0323 12.0654 15.0323 11.4513 14.6821L1.33077 8.9103C0.657973 8.5266 0.657974 7.55668 1.33077 7.17298L11.9467 1.11864ZM4.6847 13.1977C4.6847 12.814 5.09907 12.5733 5.4324 12.7634L11.4518 16.1963C12.0659 16.5465 12.8193 16.5465 13.4334 16.1963L19.8963 12.5105C20.2297 12.3204 20.6441 12.5611 20.6441 12.9448V18.4017C20.6441 18.7671 20.4447 19.1035 20.1241 19.2789L13.6245 22.8359C13.0263 23.1633 12.3025 23.1633 11.7042 22.8359L5.20462 19.2789C4.88404 19.1035 4.6847 18.7671 4.6847 18.4017V13.1977Z" fill="#829AB2"/>
</svg>
