<svg width="24" height="24" viewBox="0 0 24 24" fill="none" xmlns="http://www.w3.org/2000/svg">
<path fill-rule="evenodd" clip-rule="evenodd" d="M9 2C9 0.89543 9.89543 0 11 0H13C14.1046 0 15 0.895431 15 2V22C15 23.1046 14.1046 24 13 24H11C9.89543 24 9 23.1046 9 22V2ZM0 13C0 11.8954 0.895431 11 2 11H4C5.10457 11 6 11.8954 6 13V22C6 23.1046 5.10457 24 4 24H2C0.89543 24 0 23.1046 0 22V13ZM20 6C18.8954 6 18 6.89543 18 8V22C18 23.1046 18.8954 24 20 24H22C23.1046 24 24 23.1046 24 22V8C24 6.89543 23.1046 6 22 6H20Z" fill="currentColor"/>
</svg>
