<svg width="142" height="39" viewBox="0 0 142 39" fill="none" xmlns="http://www.w3.org/2000/svg">
  <path d="M54.2844 10.0093V20.3912C54.2844 21.5287 54.5737 22.4019 55.1524 23.0107C55.7311 23.6035 56.5444 23.8999 57.5923 23.8999C58.6558 23.8999 59.4769 23.6035 60.0556 23.0107C60.6343 22.4019 60.9236 21.5287 60.9236 20.3912V10.0093H64.2315V20.3672C64.2315 21.7931 63.9265 23.0027 63.3165 23.996C62.7222 24.9733 61.9167 25.7103 60.9001 26.2069C59.8992 26.7036 58.7809 26.9519 57.5453 26.9519C56.3254 26.9519 55.215 26.7036 54.214 26.2069C53.2287 25.7103 52.4467 24.9733 51.868 23.996C51.2893 23.0027 51 21.7931 51 20.3672V10.0093H54.2844Z" fill="#20B7F7"/>
  <path d="M70.6892 9V26.7837H67.4048V9H70.6892Z" fill="#20B7F7"/>
  <path d="M86.0161 19.8385C86.0161 20.3191 85.9848 20.7517 85.9223 21.1362H76.421C76.4992 22.0975 76.8276 22.8505 77.4063 23.3952C77.985 23.9399 78.6966 24.2123 79.5411 24.2123C80.7611 24.2123 81.6291 23.6756 82.1452 22.6021H85.6877C85.3123 23.8838 84.5929 24.9413 83.5294 25.7744C82.4658 26.5915 81.1599 27 79.6115 27C78.3603 27 77.2342 26.7196 76.2333 26.1589C75.248 25.5821 74.4738 24.773 73.9107 23.7316C73.3633 22.6903 73.0896 21.4887 73.0896 20.1268C73.0896 18.749 73.3633 17.5394 73.9107 16.498C74.4581 15.4566 75.2245 14.6555 76.2098 14.0948C77.1951 13.534 78.329 13.2537 79.6115 13.2537C80.8471 13.2537 81.9497 13.526 82.9194 14.0708C83.9047 14.6155 84.6633 15.3925 85.195 16.4019C85.7424 17.3952 86.0161 18.5407 86.0161 19.8385ZM82.6144 18.8772C82.5988 18.012 82.2938 17.3231 81.6995 16.8104C81.1052 16.2817 80.3779 16.0174 79.5177 16.0174C78.7044 16.0174 78.0162 16.2737 77.4532 16.7864C76.9058 17.283 76.5695 17.98 76.4444 18.8772H82.6144Z" fill="#20B7F7"/>
  <path d="M87.5689 20.0788C87.5689 18.733 87.8269 17.5394 88.3431 16.498C88.8748 15.4566 89.5864 14.6555 90.4779 14.0948C91.385 13.534 92.3938 13.2537 93.5043 13.2537C94.4739 13.2537 95.3185 13.4539 96.0379 13.8545C96.773 14.255 97.3595 14.7597 97.7975 15.3685V13.47H101.105V26.7837H97.7975V24.8371C97.3752 25.4619 96.7887 25.9826 96.0379 26.3992C95.3029 26.7997 94.4505 27 93.4808 27C92.386 27 91.385 26.7116 90.4779 26.1348C89.5864 25.5581 88.8748 24.749 88.3431 23.7076C87.8269 22.6502 87.5689 21.4406 87.5689 20.0788ZM97.7975 20.1268C97.7975 19.3097 97.6411 18.6128 97.3283 18.036C97.0154 17.4433 96.5932 16.9947 96.0614 16.6903C95.5297 16.3698 94.9588 16.2096 94.3488 16.2096C93.7389 16.2096 93.1758 16.3618 92.6597 16.6662C92.1436 16.9706 91.7213 17.4192 91.3929 18.012C91.0801 18.5888 90.9237 19.2777 90.9237 20.0788C90.9237 20.8798 91.0801 21.5848 91.3929 22.1936C91.7213 22.7864 92.1436 23.243 92.6597 23.5634C93.1915 23.8838 93.7545 24.0441 94.3488 24.0441C94.9588 24.0441 95.5297 23.8919 96.0614 23.5874C96.5932 23.267 97.0154 22.8184 97.3283 22.2417C97.6411 21.6489 97.7975 20.9439 97.7975 20.1268Z" fill="#20B7F7"/>
  <path d="M107.598 15.5367C108.02 14.8318 108.567 14.279 109.24 13.8785C109.928 13.478 110.71 13.2777 111.586 13.2777V16.8104H110.718C109.685 16.8104 108.903 17.0587 108.372 17.5554C107.856 18.0521 107.598 18.9172 107.598 20.1509V26.7837H104.313V13.47H107.598V15.5367Z" fill="#20B7F7"/>
  <path d="M121 13.2777C122.549 13.2777 123.8 13.7824 124.754 14.7917C125.708 15.785 126.185 17.1789 126.185 18.9733V26.7837H122.9V19.4299C122.9 18.3725 122.642 17.5634 122.126 17.0027C121.61 16.4259 120.906 16.1375 120.015 16.1375C119.108 16.1375 118.388 16.4259 117.857 17.0027C117.34 17.5634 117.082 18.3725 117.082 19.4299V26.7837H113.798V13.47H117.082V15.1282C117.52 14.5514 118.075 14.1028 118.748 13.7824C119.436 13.4459 120.187 13.2777 121 13.2777Z" fill="#20B7F7"/>
  <path d="M128.464 20.0788C128.464 18.733 128.722 17.5394 129.238 16.498C129.77 15.4566 130.481 14.6555 131.373 14.0948C132.28 13.534 133.289 13.2537 134.399 13.2537C135.369 13.2537 136.213 13.4539 136.933 13.8545C137.668 14.255 138.254 14.7597 138.692 15.3685V13.47H142V26.7837H138.692V24.8371C138.27 25.4619 137.683 25.9826 136.933 26.3992C136.198 26.7997 135.345 27 134.375 27C133.281 27 132.28 26.7116 131.373 26.1348C130.481 25.5581 129.77 24.749 129.238 23.7076C128.722 22.6502 128.464 21.4406 128.464 20.0788ZM138.692 20.1268C138.692 19.3097 138.536 18.6128 138.223 18.036C137.91 17.4433 137.488 16.9947 136.956 16.6903C136.424 16.3698 135.853 16.2096 135.244 16.2096C134.634 16.2096 134.071 16.3618 133.554 16.6662C133.038 16.9706 132.616 17.4192 132.288 18.012C131.975 18.5888 131.818 19.2777 131.818 20.0788C131.818 20.8798 131.975 21.5848 132.288 22.1936C132.616 22.7864 133.038 23.243 133.554 23.5634C134.086 23.8838 134.649 24.0441 135.244 24.0441C135.853 24.0441 136.424 23.8919 136.956 23.5874C137.488 23.267 137.91 22.8184 138.223 22.2417C138.536 21.6489 138.692 20.9439 138.692 20.1268Z" fill="#20B7F7"/>
  <path d="M30.4947 31.5798C32.6827 28.6291 33.9849 24.9439 33.9849 20.9504V20.3848H30.5232V20.9504C30.5232 26.9342 26.8536 32.0489 21.7148 34.03C22.14 34.0744 22.5712 34.0974 23.0075 34.0974C25.8036 34.0973 28.3909 33.161 30.4947 31.5798Z" fill="#20B7F7"/>
  <path d="M33.9851 0.5H30.5234V3.81418H33.9851V0.5Z" fill="#20B7F7"/>
  <path d="M39.9996 3.81445H36.5381V7.12853H39.9996V3.81445Z" fill="#20B7F7"/>
  <path d="M33.9851 7.125H30.5234V10.4391H33.9851V7.125Z" fill="#20B7F7"/>
  <path d="M39.9996 10.4395H36.5381V13.7536H39.9996V10.4395Z" fill="#20B7F7"/>
  <path d="M33.9851 13.7559H30.5234V17.07H33.9851V13.7559Z" fill="#20B7F7"/>
  <path d="M17.7185 38.4625C14.206 37.3312 11.1589 35.1034 8.95324 32.17C5.62418 29.6246 3.46151 25.5438 3.46151 20.9505V16.9741V16.0002V4.07066H6.01503V20.9505C6.01503 30.6161 13.6378 38.4795 23.0076 38.4795C32.3771 38.4795 39.9999 30.6161 39.9999 20.9505V20.3848V17.0707H36.5383V20.3848V20.9505C36.5383 28.6471 30.4685 34.9089 23.0076 34.9089C15.5464 34.9089 9.47639 28.6471 9.47639 20.9505V0.5H0.968795H0V16.0002V16.9741V20.9505C0 30.6161 7.62278 38.4795 16.9925 38.4795C17.2359 38.4796 17.4776 38.473 17.7185 38.4625Z" fill="#20B7F7"/>
</svg>
