<svg width="26" height="17" viewBox="0 0 26 17" fill="none" xmlns="http://www.w3.org/2000/svg">
<path fill-rule="evenodd" clip-rule="evenodd" d="M0.868277 2.45209C0.835493 2.62974 0.818359 2.81287 0.818359 3V14C0.818359 15.6569 2.1615 17 3.81836 17H22.182C23.8388 17 25.182 15.6569 25.182 14V3C25.182 2.8129 25.1649 2.6298 25.1321 2.45218L14.5755 10.6847C13.6524 11.4046 12.348 11.4046 11.425 10.6847L0.868277 2.45209ZM23.1607 0.163267C22.8539 0.0574586 22.5247 0 22.182 0H3.81836C3.4757 0 3.14646 0.0574482 2.83974 0.163239L13.0002 8.08691L23.1607 0.163267Z" fill="currentColor"/>
</svg>
