<svg width="16" height="16" viewBox="0 0 16 16" fill="none" xmlns="http://www.w3.org/2000/svg">
  <path fill-rule="evenodd" clip-rule="evenodd"
        d="M9.83038 2.61538C9.83038 3.50754 9.10715 4.23077 8.21499 4.23077C7.32284 4.23077 6.59961 3.50754 6.59961 2.61538C6.59961 1.72323 7.32284 1 8.21499 1C9.10715 1 9.83038 1.72323 9.83038 2.61538ZM9.83038 8C9.83038 8.89215 9.10715 9.61539 8.21499 9.61539C7.32284 9.61539 6.59961 8.89215 6.59961 8C6.59961 7.10785 7.32284 6.38462 8.21499 6.38462C9.10715 6.38462 9.83038 7.10785 9.83038 8ZM8.21499 15C9.10715 15 9.83038 14.2768 9.83038 13.3846C9.83038 12.4925 9.10715 11.7692 8.21499 11.7692C7.32284 11.7692 6.59961 12.4925 6.59961 13.3846C6.59961 14.2768 7.32284 15 8.21499 15Z"
        fill="currentColor"/>
</svg>
