<svg width="24" height="21" viewBox="0 0 24 21" fill="none" xmlns="http://www.w3.org/2000/svg">
<path fill-rule="evenodd" clip-rule="evenodd" d="M3.07822 8.97607C3.07822 4.01872 7.09695 0 12.0543 0C17.0116 0 21.0304 4.01873 21.0304 8.97607V14.5526H21.7084C22.5731 14.5526 23.2742 15.2536 23.2742 16.1184C23.2742 16.9832 22.5731 17.6842 21.7084 17.6842H2.39977C1.53501 17.6842 0.833984 16.9832 0.833984 16.1184C0.833984 15.2536 1.53501 14.5526 2.39977 14.5526H3.07822V8.97607ZM13.2089 21C14.4297 21 15.4194 20.0103 15.4194 18.7895H8.68738C8.68738 20.0103 9.67707 21 10.8979 21H13.2089Z" fill="currentColor"/>
</svg>
