<svg width="26" height="24" viewBox="0 0 26 24" fill="none" xmlns="http://www.w3.org/2000/svg">
<path fill-rule="evenodd" clip-rule="evenodd" d="M24.0796 6.95669L25.0415 9.97925C25.2629 10.6809 25.1987 11.4398 24.8624 12.0956C24.5261 12.7514 23.9441 13.2527 23.2395 13.4936L22.996 13.5775C22.6423 13.6964 22.3234 13.8983 22.0667 14.1658C21.81 14.4333 21.6233 14.7583 21.5227 15.1128C21.424 15.444 21.399 15.7922 21.4494 16.1338C21.4999 16.4753 21.6245 16.8021 21.8149 17.0919L22.1315 17.5476C22.5513 18.1479 22.7221 18.8836 22.6089 19.6039C22.4957 20.3243 22.1071 20.9747 21.5227 21.4218L19.0509 23.2449C18.7553 23.4677 18.4164 23.6284 18.0553 23.7173C17.6942 23.8062 17.3184 23.8214 16.9511 23.7618C16.5838 23.7023 16.2328 23.5693 15.9197 23.3711C15.6065 23.1728 15.3379 22.9136 15.1303 22.6092L14.9842 22.4053C14.7847 22.1101 14.5126 21.8695 14.1933 21.7059C13.8739 21.5423 13.5176 21.461 13.1578 21.4698C12.8144 21.4785 12.4779 21.5667 12.1754 21.7271C11.873 21.8875 11.613 22.1157 11.4166 22.3933L11.1365 22.7891C10.9365 23.0984 10.6747 23.3642 10.367 23.5704C10.0592 23.7766 9.71207 23.9189 9.34666 23.9886C9.18875 24.0038 9.02971 24.0038 8.8718 23.9886C8.28179 23.9955 7.70528 23.8146 7.22804 23.4728L4.7076 21.5897C4.09861 21.1406 3.69428 20.4728 3.58254 19.7316C3.47081 18.9903 3.66073 18.2356 4.11098 17.6316C4.33342 17.308 4.47479 16.9371 4.52347 16.5493C4.57215 16.1615 4.52676 15.7678 4.39103 15.4007L4.31797 15.2088C4.22346 14.8764 4.05072 14.5707 3.81377 14.3164C3.57682 14.0622 3.28235 13.8666 2.95426 13.7455H2.75944C2.04821 13.5099 1.46003 13.0074 1.12263 12.3472C0.785233 11.6869 0.725855 10.9222 0.957391 10.2191L1.95582 7.10062C2.05987 6.75678 2.23463 6.43771 2.46924 6.16327C2.70385 5.88883 2.99329 5.66488 3.31954 5.50538C3.63289 5.34633 3.97574 5.25158 4.32734 5.22684C4.67895 5.2021 5.03199 5.24789 5.36511 5.36145C5.72781 5.48169 6.11484 5.51286 6.49255 5.45224C6.87027 5.39162 7.22724 5.24105 7.53244 5.01361L7.69073 4.89367C7.96699 4.67652 8.19027 4.40106 8.3441 4.08761C8.49794 3.77416 8.5784 3.43069 8.57957 3.08253V2.79467C8.5763 2.06078 8.86748 1.35532 9.3897 0.831903C9.91193 0.308484 10.6229 0.00948301 11.3679 0H14.4728C14.8352 0.000962172 15.1939 0.0724506 15.5282 0.210359C15.8626 0.348268 16.1659 0.549881 16.4209 0.803617C16.957 1.34071 17.2548 2.06545 17.2489 2.81866V3.1545C17.2427 3.48524 17.3155 3.81279 17.4615 4.11072C17.6074 4.40865 17.8224 4.66862 18.089 4.86968L18.223 4.96563C18.4963 5.1675 18.815 5.30128 19.1521 5.35558C19.4892 5.40988 19.8346 5.38309 20.159 5.27749L20.5729 5.14555C20.9237 5.03102 21.2943 4.98725 21.6626 5.01684C22.0308 5.04644 22.3893 5.14881 22.7166 5.31783C23.0438 5.48686 23.3332 5.71908 23.5674 6.00065C23.8016 6.28221 23.9758 6.60736 24.0796 6.95669ZM10.6318 15.4848C11.3327 15.9461 12.1566 16.1923 12.9995 16.1923C14.1297 16.1923 15.2137 15.75 16.0129 14.9627C16.8121 14.1754 17.2611 13.1077 17.2611 11.9943C17.2611 11.164 17.0111 10.3524 16.5429 9.662C16.0746 8.97164 15.409 8.43358 14.6303 8.11584C13.8516 7.7981 12.9947 7.71497 12.1681 7.87695C11.3414 8.03893 10.5821 8.43875 9.98606 9.02585C9.39006 9.61295 8.98418 10.361 8.81975 11.1753C8.65531 11.9896 8.73971 12.8337 9.06226 13.6008C9.38481 14.3679 9.93103 15.0235 10.6318 15.4848ZM14.8271 11.9945C14.8271 12.9881 14.0094 13.7936 13.0007 13.7936C11.9921 13.7936 11.1743 12.9881 11.1743 11.9945C11.1743 11.0008 11.9921 10.1953 13.0007 10.1953C14.0094 10.1953 14.8271 11.0008 14.8271 11.9945Z" fill="#829AB2"/>
</svg>
