<svg width="14" height="14" viewBox="0 0 14 14" fill="none" xmlns="http://www.w3.org/2000/svg">
<path d="M6.74831 4.69924C5.50885 4.69924 4.49735 5.71073 4.49735 6.9502C4.49735 8.18966 5.50885 9.20115 6.74831 9.20115C7.98777 9.20115 8.99927 8.18966 8.99927 6.9502C8.99927 5.71073 7.98777 4.69924 6.74831 4.69924ZM13.4995 6.9502C13.4995 6.01807 13.5079 5.09438 13.4556 4.16394C13.4032 3.08321 13.1567 2.12406 12.3664 1.33378C11.5744 0.541803 10.617 0.29695 9.53626 0.244602C8.60413 0.192254 7.68044 0.200698 6.75 0.200698C5.81787 0.200698 4.89418 0.192254 3.96374 0.244602C2.88301 0.29695 1.92386 0.543492 1.13358 1.33378C0.341608 2.12575 0.0967548 3.08321 0.0444069 4.16394C-0.00794095 5.09607 0.000502276 6.01975 0.000502276 6.9502C0.000502276 7.88064 -0.00794095 8.80601 0.0444069 9.73645C0.0967548 10.8172 0.343296 11.7763 1.13358 12.5666C1.92555 13.3586 2.88301 13.6034 3.96374 13.6558C4.89587 13.7081 5.81956 13.6997 6.75 13.6997C7.68213 13.6997 8.60581 13.7081 9.53626 13.6558C10.617 13.6034 11.5761 13.3569 12.3664 12.5666C13.1584 11.7746 13.4032 10.8172 13.4556 9.73645C13.5096 8.80601 13.4995 7.88233 13.4995 6.9502ZM6.74831 10.4136C4.8317 10.4136 3.28491 8.8668 3.28491 6.9502C3.28491 5.03359 4.8317 3.48679 6.74831 3.48679C8.66492 3.48679 10.2117 5.03359 10.2117 6.9502C10.2117 8.8668 8.66492 10.4136 6.74831 10.4136ZM10.3536 4.15381C9.90607 4.15381 9.5447 3.79244 9.5447 3.34495C9.5447 2.89746 9.90607 2.53609 10.3536 2.53609C10.801 2.53609 11.1624 2.89746 11.1624 3.34495C11.1625 3.45121 11.1417 3.55645 11.1011 3.65464C11.0605 3.75284 11.0009 3.84206 10.9258 3.91719C10.8507 3.99233 10.7614 4.05191 10.6633 4.09251C10.5651 4.13311 10.4598 4.15394 10.3536 4.15381Z" fill="#829AB2"/>
</svg>
