<svg width="16" height="14" viewBox="0 0 16 14" fill="none" xmlns="http://www.w3.org/2000/svg">
<path d="M16 2.04405C15.4116 2.29787 14.7713 2.48054 14.1118 2.55168C14.7965 2.14488 15.3093 1.50219 15.5539 0.744209C14.9113 1.12645 14.2074 1.39448 13.4734 1.53642C13.1666 1.20843 12.7955 0.947146 12.3833 0.768836C11.9711 0.590526 11.5266 0.499016 11.0775 0.500008C9.26043 0.500008 7.79906 1.97291 7.79906 3.78038C7.79906 4.0342 7.82983 4.28801 7.87982 4.53222C5.159 4.38992 2.73236 3.09008 1.1191 1.09994C0.825142 1.60202 0.671099 2.1737 0.672996 2.75551C0.672996 3.89383 1.25177 4.89756 2.13436 5.48787C1.61424 5.46739 1.1063 5.32442 0.651845 5.07061V5.11099C0.651845 6.70503 1.77863 8.02603 3.28038 8.32984C2.99841 8.40308 2.70834 8.44055 2.41702 8.44136C2.20358 8.44136 2.00168 8.42021 1.79786 8.39137C2.2132 9.69121 3.42267 10.6353 4.86288 10.6661C3.73609 11.5487 2.32472 12.0678 0.792213 12.0678C0.517246 12.0678 0.26343 12.0582 0 12.0275C1.45367 12.96 3.17846 13.4984 5.03593 13.4984C11.066 13.4984 14.3656 8.50289 14.3656 4.16687C14.3656 4.02458 14.3656 3.88229 14.356 3.74C14.9944 3.27275 15.5539 2.69397 16 2.04405Z" fill="#829AB2"/>
</svg>
