<svg width="45" height="51" viewBox="0 0 45 51" fill="none" xmlns="http://www.w3.org/2000/svg">
  <path d="M18.2906 30.4923C19.2454 31.4471 20.7309 31.66 21.8338 30.881C23.6549 29.5947 25.459 27.9605 27.2462 25.9784C30.3565 22.5296 35.6291 16.4149 43.0691 7.63669C43.8221 6.74892 44.2137 5.61037 44.166 4.4472C44.1184 3.28403 43.6349 2.18135 42.8118 1.35817C41.9886 0.534999 40.8859 0.0515631 39.7227 0.00389277C38.5596 -0.0437785 37.421 0.347804 36.5333 1.10086C27.7706 8.53053 21.6558 13.8057 18.1916 16.9264C16.2051 18.7123 14.5689 20.5151 13.2839 22.3318C12.5044 23.434 12.7175 24.9192 13.6721 25.8738L18.2906 30.4923Z" fill="#20B7F7"/>
  <path d="M10.2982 29.8101C9.26018 28.7724 7.62379 28.6382 6.4305 29.4928L5.9465 29.8394C4.40502 30.9433 3.25156 32.5059 2.65067 34.3042L0.278746 41.4025C-0.2456 42.9717 1.25352 44.4627 2.81983 43.9298L9.89554 41.5225C11.6736 40.9175 13.2179 39.7715 14.312 38.2449L14.6754 37.7378C15.5309 36.5442 15.3965 34.9067 14.358 33.8685L10.2982 29.8101Z" fill="#20B7F7"/>
  <path d="M18 41C18 39.8954 18.8954 39 20 39L42 39C43.1046 39 44 39.8954 44 41C44 42.1046 43.1046 43 42 43H20C18.8954 43 18 42.1046 18 41Z" fill="#20B7F7"/>
  <path d="M0 49C0 47.8954 0.89543 47 2 47H41.9611C43.0657 47 43.9611 47.8954 43.9611 49C43.9611 50.1046 43.0657 51 41.9611 51H2C0.89543 51 0 50.1046 0 49Z" fill="#20B7F7"/>
</svg>
