<svg width="56" height="47" viewBox="0 0 56 47" fill="none" xmlns="http://www.w3.org/2000/svg">
  <path fill-rule="evenodd" clip-rule="evenodd" d="M24.9953 1.45021C26.5449 0.553054 28.456 0.553055 30.0056 1.45021L55.0025 15.9221C55.6202 16.2797 56.0005 16.9393 56.0005 17.653V35.9998C56.0005 36.8283 55.3289 37.4998 54.5005 37.4998C53.672 37.4998 53.0005 36.8283 53.0005 35.9998V18.2367L30.0056 31.5495C28.456 32.4466 26.5449 32.4466 24.9953 31.5495L1.99011 18.2307C0.659544 17.4604 0.659546 15.5393 1.99012 14.769L24.9953 1.45021ZM10.0005 28.0693C10.0005 27.299 10.8348 26.8179 11.5015 27.2039L25.9972 35.5961C26.9269 36.1344 28.0736 36.1344 29.0034 35.5961L44.4994 26.6247C45.1661 26.2388 46.0005 26.7198 46.0005 27.4902V35.2347C46.0005 36.3242 45.4098 37.3281 44.4574 37.8572L29.943 45.9207C28.7349 46.5919 27.266 46.5919 26.0579 45.9207L11.5435 37.8572C10.5911 37.3281 10.0005 36.3242 10.0005 35.2347V28.0693Z" fill="#F2B71E"/>
</svg>
