<?xml version="1.0" standalone="no"?>
<!DOCTYPE svg PUBLIC "-//W3C//DTD SVG 20010904//EN"
 "http://www.w3.org/TR/2001/REC-SVG-20010904/DTD/svg10.dtd">
<svg version="1.0" xmlns="http://www.w3.org/2000/svg"
 width="700.000000pt" height="700.000000pt" viewBox="0 0 700.000000 700.000000"
 preserveAspectRatio="xMidYMid meet">
<metadata>
Created by potrace 1.11, written by Peter Selinger 2001-2013
</metadata>
<g transform="translate(0.000000,700.000000) scale(0.100000,-0.100000)"
fill="#000000" stroke="none">
<path d="M668 6208 c-7 -23 -2 -3042 6 -3108 4 -36 9 -83 12 -105 5 -44 19
-128 38 -222 19 -92 95 -335 131 -418 175 -400 380 -684 678 -941 310 -266
652 -438 1042 -524 72 -16 155 -31 185 -35 30 -3 73 -8 95 -11 68 -10 305 -11
305 -2 0 4 -6 8 -14 8 -50 0 -372 152 -521 246 -90 56 -257 179 -323 237 -75
66 -245 242 -303 315 -34 42 -98 108 -143 146 -404 349 -643 817 -692 1356 -7
70 -13 2533 -7 2555 3 8 305 13 355 6 3 -1 7 -567 7 -1258 1 -692 3 -1278 5
-1303 3 -25 8 -79 11 -120 4 -41 8 -77 10 -80 2 -3 6 -27 9 -55 11 -84 65
-291 108 -414 98 -280 228 -515 413 -746 407 -508 1011 -836 1640 -892 143
-12 434 -6 535 11 14 3 54 10 90 16 483 84 956 341 1309 714 31 33 63 67 71
76 71 74 200 255 274 384 178 309 273 597 331 1001 3 22 8 217 10 433 l5 392
-245 0 c-189 0 -245 -3 -246 -12 0 -7 -2 -168 -3 -358 -2 -190 -6 -370 -10
-400 -46 -348 -149 -633 -328 -900 -39 -58 -74 -107 -77 -110 -4 -3 -22 -25
-41 -50 -87 -113 -289 -296 -421 -382 -205 -134 -459 -242 -644 -274 -16 -2
-37 -7 -47 -10 -61 -18 -261 -33 -398 -29 -85 2 -164 6 -175 8 -11 3 -45 8
-75 13 -30 4 -57 8 -60 9 -3 1 -32 7 -65 14 -151 33 -364 119 -534 216 -91 52
-233 160 -330 251 -184 175 -313 350 -425 579 -116 236 -175 454 -202 740 -1
17 -3 708 -3 1538 l-1 1507 -669 0 c-526 0 -670 -3 -673 -12z"/>
<path d="M4993 5985 l0 -235 243 0 c188 0 244 3 245 13 1 6 2 112 3 235 l1
222 -246 0 -245 0 -1 -235z"/>
<path d="M5849 5738 c0 -7 -1 -112 -2 -233 l0 -220 244 0 244 0 2 233 2 232
-245 0 c-188 0 -244 -3 -245 -12z"/>
<path d="M4994 5045 l0 -235 246 0 245 0 0 235 0 235 -245 0 -246 0 0 -235z"/>
<path d="M5850 4798 c-1 -24 -1 -223 -1 -340 l1 -118 245 0 244 0 0 235 0 235
-244 0 c-189 0 -245 -3 -245 -12z"/>
<path d="M4993 4105 l0 -235 246 2 246 3 0 230 0 230 -246 3 -246 2 0 -235z"/>
<path d="M5130 3400 l-136 -5 -1 -85 c-1 -79 -11 -219 -19 -265 -1 -11 -6 -40
-9 -65 -29 -217 -160 -556 -293 -754 -53 -79 -94 -138 -102 -146 -3 -3 -27
-32 -55 -65 -162 -194 -375 -359 -622 -483 -73 -36 -131 -68 -128 -70 10 -11
312 -2 405 12 132 19 126 18 251 54 178 52 354 135 504 239 58 40 80 65 141
156 62 94 178 312 228 429 42 97 124 369 141 463 2 17 7 39 9 50 4 23 17 109
22 145 8 61 17 212 18 295 l1 90 -110 5 c-60 3 -171 3 -245 0z"/>
</g>
</svg>
