<svg width="14" height="12" viewBox="0 0 14 12" fill="none" xmlns="http://www.w3.org/2000/svg">
  <path fill-rule="evenodd" clip-rule="evenodd"
        d="M13.4058 6.47896C13.3428 6.63062 13.2502 6.76885 13.134 6.88488L8.63443 11.3844C8.39983 11.619 8.08164 11.7508 7.74987 11.7508C7.4181 11.7508 7.09992 11.619 6.86532 11.3844C6.63072 11.1498 6.49892 10.8316 6.49892 10.4999C6.49892 10.1681 6.63079 9.84985 6.86539 9.61525L9.23153 7.25H1.75C1.41848 7.25 1.10054 7.11831 0.866117 6.88389C0.631696 6.64947 0.5 6.33152 0.5 6C0.5 5.66848 0.631696 5.35054 0.866116 5.11612C1.10054 4.8817 1.41848 4.75 1.75 4.75H9.23179L6.86539 2.3845C6.74916 2.26846 6.65693 2.13066 6.59398 1.97896C6.53097 1.8271 6.49853 1.66429 6.49853 1.49988C6.49853 1.33546 6.53097 1.17265 6.59399 1.02079C6.65693 0.869099 6.74915 0.731298 6.86538 0.615263C6.98139 0.499094 7.11915 0.406912 7.27079 0.343988C7.42265 0.280971 7.58545 0.248535 7.74987 0.248535C7.91429 0.248535 8.07709 0.280971 8.22895 0.343988C8.38072 0.406963 8.5188 0.499465 8.63487 0.61577L13.1344 5.11532C13.2506 5.23134 13.3428 5.36912 13.4058 5.52079C13.4688 5.67265 13.5012 5.83546 13.5012 5.99987C13.5012 6.16429 13.4688 6.3271 13.4058 6.47896Z"
        fill="#20B7F7"/>
</svg>
