<svg width="16" height="15" viewBox="0 0 16 15" fill="none" xmlns="http://www.w3.org/2000/svg">
  <path
    d="M15.7029 12.1841L9.61896 0.97809C9.45788 0.682145 9.22 0.435103 8.93034 0.262975C8.64069 0.0908463 8.30998 0 7.97304 0C7.6361 0 7.30539 0.0908463 7.01574 0.262975C6.72608 0.435103 6.48819 0.682145 6.32712 0.97809L0.236907 12.1841C0.0775026 12.4702 -0.00412508 12.7931 0.000160455 13.1206C0.004446 13.4481 0.094495 13.7688 0.261332 14.0506C0.428168 14.3325 0.665965 14.5657 0.951019 14.727C1.23607 14.8883 1.55843 14.9721 1.88595 14.97H14.0539C14.3787 14.9703 14.6981 14.8861 14.9806 14.7258C15.2631 14.5654 15.499 14.3344 15.6653 14.0554C15.8316 13.7763 15.9225 13.4588 15.9291 13.1341C15.9357 12.8093 15.8578 12.4884 15.7029 12.2028V12.1841ZM7.03921 4.18872C7.03921 3.94023 7.13792 3.70191 7.31363 3.5262C7.48935 3.35048 7.72767 3.25177 7.97616 3.25177C8.22466 3.25177 8.46298 3.35048 8.63869 3.5262C8.8144 3.70191 8.91312 3.94023 8.91312 4.18872V8.49247C8.91312 8.74097 8.8144 8.97929 8.63869 9.155C8.46298 9.33072 8.22466 9.42943 7.97616 9.42943C7.72767 9.42943 7.48935 9.33072 7.31363 9.155C7.13792 8.97929 7.03921 8.74097 7.03921 8.49247V4.18872ZM8.00115 12.6276C7.78866 12.6276 7.58094 12.5646 7.40426 12.4465C7.22758 12.3285 7.08987 12.1607 7.00855 11.9643C6.92724 11.768 6.90596 11.552 6.94742 11.3436C6.98887 11.1352 7.0912 10.9438 7.24145 10.7935C7.3917 10.6432 7.58314 10.5409 7.79155 10.4995C7.99996 10.458 8.21598 10.4793 8.41229 10.5606C8.60861 10.6419 8.77641 10.7796 8.89446 10.9563C9.01251 11.133 9.07552 11.3407 9.07552 11.5532C9.07552 11.8381 8.96233 12.1114 8.76085 12.3129C8.55936 12.5144 8.28609 12.6276 8.00115 12.6276Z"
    fill="#829AB2"/>
</svg>
