<svg width="16" height="17" viewBox="0 0 16 17" fill="none" xmlns="http://www.w3.org/2000/svg">
  <circle opacity="0.22" cx="8" cy="8.5" r="8" fill="#20B7F7"/>
  <path d="M8.91549 9.21497C8.91549 9.76725 8.45797 10.215 7.90568 10.215C7.3534 10.215 6.89588 9.76725 6.89588 9.21497V4.83301C6.89588 4.28072 7.3534 3.83301 7.90568 3.83301C8.45797 3.83301 8.91549 4.28072 8.91549 4.83301V9.21497ZM6.66699 12.2076C6.66699 12.0371 6.69841 11.8755 6.76124 11.7229C6.82407 11.5704 6.90935 11.4402 7.01706 11.3325C7.13375 11.2158 7.26839 11.126 7.42098 11.0632C7.57357 11.0004 7.73514 10.969 7.90569 10.969C8.07623 10.969 8.2378 11.0004 8.39039 11.0632C8.54298 11.126 8.67314 11.2158 8.78085 11.3325C8.89754 11.4402 8.9873 11.5704 9.05013 11.7229C9.11296 11.8755 9.14438 12.0371 9.14438 12.2076C9.14438 12.3782 9.11296 12.5398 9.05013 12.6924C8.9873 12.8449 8.89754 12.9796 8.78085 13.0963C8.67314 13.204 8.54298 13.2893 8.39039 13.3521C8.2378 13.4149 8.07623 13.4463 7.90569 13.4463C7.73514 13.4463 7.57357 13.4149 7.42098 13.3521C7.26839 13.2893 7.13375 13.204 7.01706 13.0963C6.90935 12.9796 6.82407 12.8449 6.76124 12.6924C6.69841 12.5398 6.66699 12.3782 6.66699 12.2076Z" fill="#20B7F7"/>
</svg>
