<svg width="20" height="16" viewBox="0 0 20 16" fill="none" xmlns="http://www.w3.org/2000/svg">
  <path fill-rule="evenodd" clip-rule="evenodd"
        d="M2 1C2 0.447716 2.44772 0 3 0H17C17.5523 0 18 0.447715 18 1V2.2C18 2.75228 17.5523 3.2 17 3.2H3C2.44772 3.2 2 2.75228 2 2.2V1ZM0 7.4C0 6.84772 0.447715 6.4 1 6.4H19C19.5523 6.4 20 6.84772 20 7.4V8.6C20 9.15228 19.5523 9.6 19 9.6H1C0.447715 9.6 0 9.15228 0 8.6V7.4ZM3 12.8C2.44772 12.8 2 13.2477 2 13.8V15C2 15.5523 2.44772 16 3 16H17C17.5523 16 18 15.5523 18 15V13.8C18 13.2477 17.5523 12.8 17 12.8H3Z"
        fill="#DAE4ED"/>
</svg>
