<svg width="18" height="22" viewBox="0 0 18 22" fill="none" xmlns="http://www.w3.org/2000/svg">
  <path d="M1.28571 19.381C1.28571 20.8214 2.44286 22 3.85714 22H14.1429C15.5571 22 16.7143 20.8214 16.7143 19.381V7.85714C16.7143 6.41667 15.5571 5.23809 14.1429 5.23809H3.85714C2.44286 5.23809 1.28571 6.41667 1.28571 7.85714V19.381ZM16.7143 1.30952H13.5L12.5871 0.379762C12.3557 0.144048 12.0214 0 11.6871 0H6.31286C5.97857 0 5.64429 0.144048 5.41286 0.379762L4.5 1.30952H1.28571C0.578571 1.30952 0 1.89881 0 2.61905C0 3.33929 0.578571 3.92857 1.28571 3.92857H16.7143C17.4214 3.92857 18 3.33929 18 2.61905C18 1.89881 17.4214 1.30952 16.7143 1.30952Z" fill="#829AB2"/>
</svg>
