<svg width="19" height="18" viewBox="0 0 19 18" fill="none" xmlns="http://www.w3.org/2000/svg">
  <path fill-rule="evenodd" clip-rule="evenodd" d="M11.5527 0.0527344C11.0004 0.0527344 10.5527 0.50045 10.5527 1.05273V1.55273H1.55273C1.00045 1.55273 0.552734 2.00045 0.552734 2.55273C0.552734 3.10502 1.00045 3.55273 1.55273 3.55273H10.5527V4.05273C10.5527 4.60502 11.0004 5.05273 11.5527 5.05273H14.5527C15.105 5.05273 15.5527 4.60502 15.5527 4.05273V3.55273H17.5527C18.105 3.55273 18.5527 3.10502 18.5527 2.55273C18.5527 2.00045 18.105 1.55273 17.5527 1.55273H15.5527V1.05273C15.5527 0.50045 15.105 0.0527344 14.5527 0.0527344H11.5527ZM11.5527 12.0527C11.0004 12.0527 10.5527 12.5004 10.5527 13.0527V13.5527H1.55273C1.00045 13.5527 0.552734 14.0005 0.552734 14.5527C0.552734 15.105 1.00045 15.5527 1.55273 15.5527H10.5527V16.0527C10.5527 16.605 11.0004 17.0527 11.5527 17.0527H14.5527C15.105 17.0527 15.5527 16.605 15.5527 16.0527V15.5527H17.5527C18.105 15.5527 18.5527 15.105 18.5527 14.5527C18.5527 14.0005 18.105 13.5527 17.5527 13.5527H15.5527V13.0527C15.5527 12.5005 15.105 12.0527 14.5527 12.0527H11.5527ZM3.55273 7.05273C3.55273 6.50045 4.00045 6.05273 4.55273 6.05273H7.55273C8.10502 6.05273 8.55273 6.50045 8.55273 7.05273V7.55273H17.5527C18.105 7.55273 18.5527 8.00045 18.5527 8.55273C18.5527 9.10502 18.105 9.55273 17.5527 9.55273H8.55273V10.0527C8.55273 10.605 8.10502 11.0527 7.55273 11.0527H4.55273C4.00045 11.0527 3.55273 10.605 3.55273 10.0527V9.55273H1.55273C1.00045 9.55273 0.552734 9.10502 0.552734 8.55273C0.552734 8.00045 1.00045 7.55273 1.55273 7.55273H3.55273V7.05273Z" fill="#20B7F7"/>
</svg>
