<svg width="26" height="24" viewBox="0 0 26 24" fill="none" xmlns="http://www.w3.org/2000/svg">
  <path d="M19.2706 19.1487C20.6532 17.3783 21.4761 15.1671 21.4761 12.771V12.4316H19.2886V12.771C19.2886 16.3613 16.9697 19.4301 13.7224 20.6188C13.991 20.6454 14.2636 20.6592 14.5393 20.6592C16.3062 20.6592 17.9411 20.0974 19.2706 19.1487Z" fill="#20B7F7"/>
  <path d="M21.476 0.5H19.2886V2.48851H21.476V0.5Z" fill="#20B7F7"/>
  <path d="M25.2768 2.48828H23.0894V4.47672H25.2768V2.48828Z" fill="#20B7F7"/>
  <path d="M21.476 4.47559H19.2886V6.46403H21.476V4.47559Z" fill="#20B7F7"/>
  <path d="M25.2765 6.46387H23.0891V8.45238H25.2765V6.46387Z" fill="#20B7F7"/>
  <path d="M21.476 8.45312H19.2886V10.4416H21.476V8.45312Z" fill="#20B7F7"/>
  <path d="M11.1967 23.2775C8.97702 22.5987 7.05153 21.262 5.65772 19.502C3.55402 17.9748 2.18739 15.5263 2.18739 12.7703V10.3845V9.80013V2.6424H3.80101V12.7703C3.80101 18.5697 8.61799 23.2877 14.5389 23.2877C20.4597 23.2877 25.2767 18.5697 25.2767 12.7703V12.4309V10.4424H23.0892V12.4309V12.7703C23.0892 17.3882 19.2536 21.1453 14.5389 21.1453C9.82403 21.1453 5.98831 17.3882 5.98831 12.7703V0.5H0.6122H0V9.80013V10.3844V12.7703C0 18.5697 4.81698 23.2877 10.7379 23.2877C10.8917 23.2877 11.0444 23.2838 11.1967 23.2775Z" fill="#20B7F7"/>
</svg>
