<svg width="167" height="97" viewBox="0 0 167 97" fill="none" xmlns="http://www.w3.org/2000/svg">
  <ellipse rx="12" ry="11.5" transform="matrix(-1 0 0 1 55.0002 14.5)" fill="#C669FF" fill-opacity="0.8"/>
  <rect width="15" height="15" rx="6" transform="matrix(-1 0 0 1 15.0002 39)" fill="#20B7F7"/>
  <path opacity="0.7" fill-rule="evenodd" clip-rule="evenodd" d="M157.088 34.9067C143.015 26.7819 141.942 12.7092 142.573 4.18644L133.301 3.50058C132.593 13.0729 133.575 32.0664 152.439 42.9581L157.088 34.9067Z" fill="#C669FF"/>
  <path opacity="0.7" fill-rule="evenodd" clip-rule="evenodd" d="M79.5505 84.9379C86.3304 87.7557 93.9646 89.511 101.133 87.5903L98.7265 78.6102C94.4652 79.752 89.139 78.8551 83.1185 76.3529C77.1835 73.8862 71.1879 70.1183 65.899 66.3882L60.5407 73.9856C66.0405 77.8645 72.6852 82.0846 79.5505 84.9379Z" fill="#F2B71E"/>
</svg>
