<svg width="24" height="24" viewBox="0 0 24 24" fill="none" xmlns="http://www.w3.org/2000/svg">
  <g clip-path="url(#clip0)">
    <path fill-rule="evenodd" clip-rule="evenodd"
          d="M20.799 2.00005C20.4693 1.99718 20.1516 2.12394 19.9144 2.35303H19.9132L17.6746 4.59285C15.9158 3.70227 13.9716 3.23949 12.0002 3.24217C6.36859 3.24217 1.60221 6.94335 0 12.0455C0.752956 14.4349 2.20143 16.5454 4.16021 18.1073L2.30773 19.9597C2.07865 20.1969 1.95188 20.5146 1.95475 20.8443C1.95762 21.1741 2.08988 21.4895 2.32305 21.7227C2.55623 21.9559 2.87165 22.0881 3.2014 22.091C3.53114 22.0939 3.84882 21.9671 4.08601 21.738L21.6927 4.13131C21.9218 3.89412 22.0486 3.57644 22.0457 3.24669C22.0428 2.91695 21.9106 2.60152 21.6774 2.36835C21.4442 2.13518 21.1288 2.00291 20.799 2.00005ZM14.5549 7.71129L14.5557 7.7105V7.71175C14.5554 7.7116 14.5552 7.71144 14.5549 7.71129ZM12.6517 9.61579L14.5549 7.71129C13.5943 7.14446 12.4725 6.91296 11.366 7.0532C10.2591 7.19348 9.2303 7.69775 8.44138 8.48667C7.65245 9.2756 7.14818 10.3044 7.0079 11.4113C6.86762 12.5181 7.09929 13.6402 7.66646 14.601L9.57049 12.697C9.45725 12.2705 9.458 11.8218 9.57267 11.3957C9.68734 10.9697 9.91192 10.5812 10.2239 10.2692C10.5359 9.95721 10.9244 9.73264 11.3504 9.61797C11.7765 9.50329 12.2252 9.50254 12.6517 9.61579ZM12.3144 17.0662L8.91379 20.4681C9.90102 20.7171 10.9348 20.8491 12 20.8491C17.6304 20.8491 22.398 17.1479 24.0002 12.0458C23.5043 10.4699 22.7021 9.00737 21.6397 7.74219L17.0204 12.3614C16.9435 13.5842 16.4229 14.7369 15.5565 15.6031C14.69 16.4693 13.5372 16.9896 12.3144 17.0662Z"
          fill="#DAE4ED"/>
  </g>
  <defs>
    <clipPath id="clip0">
      <rect width="24" height="24" fill="white"/>
    </clipPath>
  </defs>
</svg>
