<svg width="64" height="55" viewBox="0 0 64 55" fill="none" xmlns="http://www.w3.org/2000/svg">
  <path fill-rule="evenodd" clip-rule="evenodd"
        d="M43 0.5C38.8579 0.5 35.5 3.85786 35.5 8V11.6667H10.6667C7.73333 11.6667 5.33333 14.0667 5.33333 17.0001V43.6667C5.33333 46.6001 7.73333 49.0001 10.6667 49.0001H2.66667C1.2 49.0001 0 50.2001 0 51.6667C0 53.1334 1.2 54.3334 2.66667 54.3334H61.3333C62.8 54.3334 64 53.1334 64 51.6667C64 50.2001 62.8 49.0001 61.3333 49.0001H53.3333C56.2667 49.0001 58.64 46.6001 58.64 43.6667L58.6456 38.02C61.4823 36.9505 63.5 34.2109 63.5 31V8C63.5 3.85786 60.1421 0.5 56 0.5H43ZM53.3333 38.5H43C38.8579 38.5 35.5 35.1421 35.5 31V17.0001H13.3333C11.8667 17.0001 10.6667 18.2001 10.6667 19.6667V41.0001C10.6667 42.4667 11.8667 43.6667 13.3333 43.6667H50.6667C52.1333 43.6667 53.3333 42.4667 53.3333 41.0001V38.5ZM40.5 8C40.5 6.61929 41.6193 5.5 43 5.5H56C57.3807 5.5 58.5 6.61929 58.5 8V31C58.5 32.3807 57.3807 33.5 56 33.5H43C41.6193 33.5 40.5 32.3807 40.5 31V8Z"
        fill="#20B7F7"/>
</svg>
