<svg width="69" height="24" viewBox="0 0 69 24" fill="none" xmlns="http://www.w3.org/2000/svg">
  <path d="M26.0177 15.0783C25.4262 15.0783 24.8825 14.9416 24.3865 14.6681C23.8966 14.3946 23.5052 14.0142 23.2124 13.5267C22.9256 13.0333 22.7822 12.4805 22.7822 11.8682C22.7822 11.2559 22.9256 10.706 23.2124 10.2185C23.5052 9.73108 23.8966 9.35063 24.3865 9.07717C24.8825 8.80372 25.4262 8.66699 26.0177 8.66699C26.6092 8.66699 27.15 8.80372 27.6399 9.07717C28.1359 9.35063 28.5242 9.73108 28.8051 10.2185C29.0919 10.706 29.2353 11.2559 29.2353 11.8682C29.2353 12.4805 29.0919 13.0333 28.8051 13.5267C28.5183 14.0142 28.1299 14.3946 27.6399 14.6681C27.15 14.9416 26.6092 15.0783 26.0177 15.0783ZM26.0177 13.6872C26.5196 13.6872 26.9199 13.5208 27.2187 13.1879C27.5234 12.855 27.6758 12.4151 27.6758 11.8682C27.6758 11.3153 27.5234 10.8754 27.2187 10.5485C26.9199 10.2156 26.5196 10.0491 26.0177 10.0491C25.5098 10.0491 25.1035 10.2126 24.7988 10.5396C24.5001 10.8665 24.3507 11.3094 24.3507 11.8682C24.3507 12.421 24.5001 12.8639 24.7988 13.1968C25.1035 13.5238 25.5098 13.6872 26.0177 13.6872Z" fill="white"/>
  <path d="M33.7446 15.0159L32.4361 12.6529H32.0686V15.0159H30.536V8.75616H33.1083C33.6042 8.75616 34.0255 8.84236 34.372 9.01475C34.7245 9.18715 34.9874 9.42493 35.1607 9.72811C35.334 10.0253 35.4206 10.3582 35.4206 10.7268C35.4206 11.1429 35.3011 11.5145 35.0621 11.8414C34.8291 12.1684 34.4825 12.4002 34.0225 12.5369L35.4744 15.0159H33.7446ZM32.0686 11.5739H33.0187C33.2995 11.5739 33.5086 11.5056 33.646 11.3688C33.7894 11.2321 33.8611 11.0389 33.8611 10.7892C33.8611 10.5514 33.7894 10.3642 33.646 10.2275C33.5086 10.0907 33.2995 10.0224 33.0187 10.0224H32.0686V11.5739Z" fill="white"/>
  <path d="M38.3634 8.75616V15.0159H36.8308V8.75616H38.3634Z" fill="white"/>
  <path d="M44.0988 10.7357C43.9852 10.5277 43.8209 10.3701 43.6058 10.2631C43.3967 10.1502 43.1487 10.0937 42.8619 10.0937C42.366 10.0937 41.9687 10.2572 41.6699 10.5841C41.3712 10.9051 41.2218 11.3361 41.2218 11.8771C41.2218 12.4537 41.3771 12.9055 41.6878 13.2325C42.0045 13.5535 42.4377 13.714 42.9874 13.714C43.3638 13.714 43.6805 13.6189 43.9374 13.4286C44.2003 13.2384 44.3915 12.965 44.511 12.6083H42.5662V11.4847H45.9002V12.9025C45.7867 13.283 45.5925 13.6367 45.3177 13.9637C45.0488 14.2906 44.7052 14.5552 44.287 14.7573C43.8687 14.9594 43.3967 15.0604 42.8709 15.0604C42.2495 15.0604 41.6938 14.9267 41.2039 14.6592C40.7199 14.3857 40.3405 14.0082 40.0656 13.5267C39.7967 13.0452 39.6623 12.4953 39.6623 11.8771C39.6623 11.2589 39.7967 10.709 40.0656 10.2275C40.3405 9.74 40.7199 9.36251 41.2039 9.09501C41.6878 8.82155 42.2405 8.68483 42.8619 8.68483C43.6148 8.68483 44.2481 8.86614 44.762 9.22876C45.2818 9.59138 45.6254 10.0937 45.7927 10.7357H44.0988Z" fill="white"/>
  <path d="M48.7299 8.75616V15.0159H47.1973V8.75616H48.7299Z" fill="white"/>
  <path d="M55.9172 15.0159H54.3846L51.8213 11.1548V15.0159H50.2887V8.75616H51.8213L54.3846 12.635V8.75616H55.9172V15.0159Z" fill="white"/>
  <path d="M61.3929 13.9102H59.0447L58.6683 15.0159H57.0639L59.3404 8.75616H61.115L63.3915 15.0159H61.7693L61.3929 13.9102ZM60.9985 12.7331L60.2188 10.4415L59.448 12.7331H60.9985Z" fill="white"/>
  <path d="M66.0651 13.8388H68.0727V15.0159H64.5325V8.75616H66.0651V13.8388Z" fill="white"/>
  <path d="M14.3038 18.3386C15.3301 16.9616 15.9409 15.2419 15.9409 13.3782V13.1143H14.3172V13.3782C14.3172 16.1707 12.5959 18.5575 10.1855 19.482C10.3849 19.5027 10.5872 19.5135 10.7919 19.5135C12.1034 19.5134 13.317 19.0765 14.3038 18.3386Z" fill="white"/>
  <path d="M15.9411 3.83398H14.3174V5.3806H15.9411V3.83398Z" fill="white"/>
  <path d="M18.7623 5.38086H17.1387V6.92743H18.7623V5.38086Z" fill="white"/>
  <path d="M15.9411 6.92676H14.3174V8.47332H15.9411V6.92676Z" fill="white"/>
  <path d="M18.7623 8.47363H17.1387V10.0203H18.7623V8.47363Z" fill="white"/>
  <path d="M15.9411 10.0205H14.3174V11.5671H15.9411V10.0205Z" fill="white"/>
  <path d="M8.31094 21.5498C6.66336 21.0219 5.23413 19.9822 4.19955 18.6133C2.63804 17.4255 1.62363 15.5211 1.62363 13.3776V11.5219V11.0674V5.50029H2.82137V13.3775C2.82137 17.8882 6.39687 21.5578 10.7918 21.5578C15.1866 21.5578 18.7621 17.8882 18.7621 13.3775V13.1136V11.567H17.1384V13.1136V13.3775C17.1384 16.9693 14.2913 19.8915 10.7918 19.8915C7.29208 19.8915 4.44494 16.9693 4.44494 13.3775V3.83398H0.454417H0V11.0674V11.5219V13.3775C0 17.8882 3.57549 21.5578 7.97038 21.5578C8.08456 21.5578 8.19792 21.5547 8.31094 21.5498Z" fill="white"/>
</svg>
