<svg width="16" height="16" viewBox="0 0 16 16" fill="none" xmlns="http://www.w3.org/2000/svg">
  <path d="M8.00039 7.6C7.46996 7.6 6.96125 7.38929 6.58618 7.01421C6.2111 6.63914 6.00039 6.13043 6.00039 5.6C6.00039 5.06957 6.2111 4.56086 6.58618 4.18579C6.96125 3.81071 7.46996 3.6 8.00039 3.6C8.53082 3.6 9.03953 3.81071 9.4146 4.18579C9.78968 4.56086 10.0004 5.06957 10.0004 5.6C10.0004 5.86264 9.94866 6.12272 9.84815 6.36537C9.74764 6.60802 9.60032 6.8285 9.4146 7.01421C9.22889 7.19993 9.00841 7.34725 8.76576 7.44776C8.52311 7.54827 8.26303 7.6 8.00039 7.6ZM8.00039 0C6.51518 0 5.0908 0.589998 4.04059 1.6402C2.99039 2.69041 2.40039 4.11479 2.40039 5.6C2.40039 8.85936 5.77291 13.3232 7.28354 15.1592C7.65993 15.6166 8.34085 15.6166 8.71724 15.1592C10.2279 13.3232 13.6004 8.85936 13.6004 5.6C13.6004 4.11479 13.0104 2.69041 11.9602 1.6402C10.91 0.589998 9.4856 0 8.00039 0Z" fill="#20B7F7"/>
</svg>
