<svg width="112" height="92" viewBox="0 0 112 92" fill="none" xmlns="http://www.w3.org/2000/svg">
  <path d="M52.591 0.650196C54.0988 -0.21673 55.9574 -0.216733 57.4652 0.650194L111.027 31.4464C111.629 31.7926 112 32.4318 112 33.1234V70.7184C112 72.3631 110.658 73.6963 109.001 73.6963C107.345 73.6963 106.003 72.3631 106.003 70.7184V35.4539L57.4652 63.3614C55.9574 64.2283 54.0988 64.2283 52.5911 63.3614L0.972859 33.6828C-0.324284 32.9369 -0.324287 31.0747 0.972855 30.3289L52.591 0.650196Z" fill="#829AB2" fill-opacity="0.4"/>
  <path d="M20.0458 53.2094C20.0458 52.4636 20.8578 51.9976 21.507 52.3709L53.5658 70.8036C54.4705 71.3238 55.5857 71.3238 56.4903 70.8036L90.549 51.2211C91.1982 50.8478 92.0102 51.3137 92.0102 52.0596V70.9928C92.0102 72.0486 91.4343 73.0213 90.506 73.5335L57.9177 91.5136C56.7423 92.1621 55.3137 92.1621 54.1383 91.5136L21.55 73.5335C20.6217 73.0213 20.0458 72.0486 20.0458 70.9928V53.2094Z" fill="#829AB2" fill-opacity="0.4"/>
</svg>
