<svg width="18" height="20" viewBox="0 0 18 20" fill="none" xmlns="http://www.w3.org/2000/svg">
  <path fill-rule="evenodd" clip-rule="evenodd" d="M2.99961 8.80039V6.40039C2.99961 4.80909 3.63175 3.28297 4.75697 2.15775C5.88219 1.03253 7.40831 0.400391 8.99961 0.400391C10.5909 0.400391 12.117 1.03253 13.2423 2.15775C14.3675 3.28297 14.9996 4.80909 14.9996 6.40039V8.80039C15.6361 8.80039 16.2466 9.05325 16.6967 9.50333C17.1468 9.95342 17.3996 10.5639 17.3996 11.2004V17.2004C17.3996 17.8369 17.1468 18.4474 16.6967 18.8974C16.2466 19.3475 15.6361 19.6004 14.9996 19.6004H2.99961C2.36309 19.6004 1.75264 19.3475 1.30255 18.8974C0.852466 18.4474 0.599609 17.8369 0.599609 17.2004V11.2004C0.599609 10.5639 0.852466 9.95342 1.30255 9.50333C1.75264 9.05325 2.36309 8.80039 2.99961 8.80039ZM12.5996 6.40039V8.80039H5.39961V6.40039C5.39961 5.44561 5.77889 4.52994 6.45403 3.85481C7.12916 3.17968 8.04483 2.80039 8.99961 2.80039C9.95439 2.80039 10.8701 3.17968 11.5452 3.85481C12.2203 4.52994 12.5996 5.44561 12.5996 6.40039Z" fill="#829AB2"/>
</svg>
