<svg width="18" height="22" viewBox="0 0 18 22" fill="none" xmlns="http://www.w3.org/2000/svg">
  <path d="M1.28635 22C1.0655 21.9993 0.848547 21.9396 0.656406 21.8267C0.457823 21.7109 0.292465 21.5425 0.17726 21.3387C0.0620544 21.1348 0.00113792 20.9029 0.000745354 20.6667V3.10667C-0.0166339 2.30709 0.270501 1.53262 0.799922 0.951098C1.32934 0.369578 2.0584 0.0278593 2.82908 0H15.1709C15.9416 0.0278593 16.6707 0.369578 17.2001 0.951098C17.7295 1.53262 18.0166 2.30709 17.9993 3.10667V20.6667C17.9979 20.8994 17.9379 21.1276 17.8251 21.3288C17.7123 21.5299 17.5508 21.697 17.3565 21.8133C17.161 21.9304 16.9393 21.992 16.7136 21.992C16.488 21.992 16.2663 21.9304 16.0708 21.8133L8.78145 17.5333L1.92916 21.8C1.73574 21.9245 1.51392 21.9935 1.28635 22Z" fill="#2197FF"/>
</svg>
