<svg width="22" height="20" viewBox="0 0 22 20" fill="none" xmlns="http://www.w3.org/2000/svg">
  <path d="M9.80506 0.797547C10.2086 -0.26585 11.7914 -0.265849 12.1949 0.797549L14.0748 5.75104C14.2514 6.21635 14.7089 6.53218 15.2292 6.54797L20.7681 6.71608C21.9572 6.75217 22.4463 8.18246 21.5066 8.87577L17.1295 12.1053C16.7184 12.4087 16.5436 12.9197 16.6886 13.3948L18.232 18.4521C18.5633 19.5378 17.2828 20.4218 16.2985 19.7869L11.7134 16.8294C11.2827 16.5516 10.7173 16.5516 10.2866 16.8294L5.70147 19.7869C4.71716 20.4218 3.4367 19.5378 3.76802 18.4521L5.31139 13.3948C5.45637 12.9197 5.28162 12.4087 4.87045 12.1053L0.493353 8.87577C-0.446307 8.18246 0.0427892 6.75217 1.23187 6.71608L6.7708 6.54797C7.2911 6.53218 7.74859 6.21635 7.92518 5.75104L9.80506 0.797547Z" fill="#DAE4ED"/>
</svg>
