<svg width="16" height="16" viewBox="0 0 16 16" fill="none" xmlns="http://www.w3.org/2000/svg">
  <path d="M8 0C3.5888 0 0 3.5888 0 8C0 12.4112 3.5888 16 8 16C12.4112 16 16 12.4112 16 8C16 3.5888 12.4112 0 8 0ZM1.6 8C1.6 7.83616 1.60648 7.67382 1.61908 7.51316C1.67699 6.77496 2.55684 6.55684 3.08043 7.08043L3.2 7.2L4.50711 8.50711C4.69464 8.69464 4.8 8.949 4.8 9.21421V9.98579C4.8 10.251 4.90536 10.5054 5.09289 10.6929L6.4 12L7.2 12.8V13.2113C7.2 13.813 6.66792 14.284 6.09359 14.1044C3.49376 13.2914 1.6 10.8647 1.6 8ZM13.6215 11.0478C13.3533 11.5386 12.7011 11.6032 12.1782 11.4048C11.8345 11.2745 11.4847 11.2 11.2 11.2V10.4C11.2 9.97565 11.0314 9.56869 10.7314 9.26863C10.4313 8.96857 10.0243 8.8 9.6 8.8H7.4C6.84772 8.8 6.4 8.35228 6.4 7.8V6.4C6.82435 6.4 7.23131 6.23143 7.53137 5.93137C7.83143 5.63131 8 5.22435 8 4.8V4H8.8C9.22435 4 9.63131 3.83143 9.93137 3.53137C10.2314 3.23131 10.4 2.82435 10.4 2.4C10.4 2.2429 10.5591 2.13622 10.7014 2.20275C12.8833 3.2228 14.4 5.43646 14.4 8C14.3999 9.07049 14.1296 10.1179 13.6215 11.0478Z" fill="#20B7F7"/>
</svg>
