<svg width="16" height="16" viewBox="0 0 16 16" fill="none" xmlns="http://www.w3.org/2000/svg">
  <path fill-rule="evenodd" clip-rule="evenodd" d="M7.08267 1.16778C7.3926 0.988345 7.77482 0.988345 8.08474 1.16778L14.8978 5.11216C15.5154 5.46974 15.8957 6.12934 15.8957 6.84301V11.4912C15.8957 11.797 15.6478 12.0449 15.342 12.0449C15.0362 12.0449 14.7883 11.797 14.7883 11.4912V6.33101L14.5559 6.46556L14.0911 6.73467L13.1615 7.27287L11.3022 8.34929L8.58578 9.92197C7.96592 10.2808 7.20149 10.2808 6.58163 9.92197L0.766543 6.55534C0.101258 6.17017 0.101256 5.20965 0.766541 4.82448L7.08267 1.16778ZM2.4811 9.42606C2.4811 9.0409 2.89829 8.80037 3.23162 8.99335L6.58282 10.9335C7.20268 11.2924 7.96712 11.2924 8.58697 10.9335L12.2299 8.82443C12.5633 8.63145 12.9805 8.87198 12.9805 9.25714V12.4166C12.9805 12.7797 12.7836 13.1144 12.4661 13.2907L8.70207 15.3819C8.09802 15.7174 7.36354 15.7174 6.75949 15.3819L2.99546 13.2907C2.67799 13.1144 2.4811 12.7797 2.4811 12.4166V9.42606Z" fill="#20B7F7"/>
</svg>
