<svg width="33" height="24" viewBox="0 0 33 24" fill="none" xmlns="http://www.w3.org/2000/svg">
  <path fill-rule="evenodd" clip-rule="evenodd" d="M1.50556 1.17157C0.755412 1.92172 0.333984 2.93913 0.333984 4V14H32.334V4C32.334 2.93913 31.9126 1.92172 31.1624 1.17157C30.4123 0.421427 29.3948 0 28.334 0H4.33398C3.27312 0 2.2557 0.421427 1.50556 1.17157ZM22.6269 6.29289C22.8144 6.10536 23.0688 6 23.334 6H27.334C27.5992 6 27.8536 6.10536 28.0411 6.29289C28.2286 6.48043 28.334 6.73478 28.334 7V9C28.334 9.26522 28.2286 9.51957 28.0411 9.70711C27.8536 9.89464 27.5992 10 27.334 10H23.334C23.0688 10 22.8144 9.89464 22.6269 9.70711C22.4393 9.51957 22.334 9.26522 22.334 9V7C22.334 6.73478 22.4393 6.48043 22.6269 6.29289ZM0.333984 20V18H32.334V20C32.334 21.0609 31.9126 22.0783 31.1624 22.8284C30.4123 23.5786 29.3948 24 28.334 24H4.33398C3.27312 24 2.2557 23.5786 1.50556 22.8284C0.755412 22.0783 0.333984 21.0609 0.333984 20Z" fill="#829AB2"/>
</svg>
