<svg width="16" height="16" viewBox="0 0 16 16" fill="none" xmlns="http://www.w3.org/2000/svg">
<path fill-rule="evenodd" clip-rule="evenodd" d="M7.85503 0C8.33702 0 8.72776 0.408265 8.72776 0.911886V1H14C15.1046 1 16 1.89543 16 3V9C16 10.1046 15.1046 11 14 11H8.72776V11.5505L12.3999 14.0171C12.8053 14.2894 12.9227 14.8536 12.6621 15.2772C12.4014 15.7009 11.8615 15.8235 11.456 15.5512L8.72776 13.7186V15.0881C8.72776 15.5917 8.33702 16 7.85503 16C7.37304 16 6.9823 15.5917 6.9823 15.0881V13.7185L4.25395 15.5512C3.8485 15.8235 3.30854 15.7009 3.04789 15.2772C2.78725 14.8536 2.90464 14.2894 3.31008 14.0171L6.9823 11.5504V11H2C0.895431 11 0 10.1046 0 9V3C0 1.89543 0.895431 1 2 1H6.9823V0.911886C6.9823 0.408265 7.37304 0 7.85503 0ZM3.84581 4C3.48898 4 3.19971 4.30246 3.19971 4.67556C3.19971 5.04866 3.48898 5.35112 3.84581 5.35112H8.2599C8.61673 5.35112 8.906 5.04866 8.906 4.67556C8.906 4.30246 8.61673 4 8.2599 4H3.84581ZM3.19971 7.37777C3.19971 7.00467 3.48898 6.70221 3.84581 6.70221H12.4445C12.8013 6.70221 13.0906 7.00467 13.0906 7.37777C13.0906 7.75087 12.8013 8.05333 12.4445 8.05333H3.84581C3.48897 8.05333 3.19971 7.75087 3.19971 7.37777Z" fill="#20B7F7"/>
</svg>
