<svg width="22" height="22" viewBox="0 0 22 22" fill="none" xmlns="http://www.w3.org/2000/svg">
  <path fill-rule="evenodd" clip-rule="evenodd" d="M18.4629 16.5906C21.3532 12.6767 21.026 7.13286 17.4812 3.58811C13.576 -0.317131 7.24433 -0.317131 3.33909 3.58811C-0.566154 7.49335 -0.566154 13.825 3.33909 17.7302C6.88384 21.275 12.4277 21.6022 16.3415 18.7119L18.5419 20.9122C19.1277 21.498 20.0774 21.498 20.6632 20.9122C21.249 20.3264 21.249 19.3767 20.6632 18.7909L18.4629 16.5906ZM15.3599 5.70943C18.0936 8.4431 18.0936 12.8753 15.3599 15.6089C12.6262 18.3426 8.19408 18.3426 5.46041 15.6089C2.72674 12.8753 2.72674 8.4431 5.46041 5.70943C8.19408 2.97576 12.6262 2.97576 15.3599 5.70943Z" fill="#829AB2"/>
</svg>
