<svg width="93" height="74" viewBox="0 0 93 74" fill="none" xmlns="http://www.w3.org/2000/svg">
  <rect y="56.4375" width="92.7346" height="17.0625" rx="2" fill="#20B7F7"/>
  <path d="M0.909061 52.4758C0.463572 53.7741 1.42824 55.125 2.80078 55.125H89.8419C91.2402 55.125 92.2068 53.7269 91.7131 52.4187L78.8556 18.3562C78.5617 17.5777 77.8166 17.0625 76.9845 17.0625H14.4894C13.635 17.0625 12.875 17.6052 12.5977 18.4134L0.909061 52.4758Z" fill="#B8EAFF"/>
  <path d="M28.7344 39.375H63.9997" stroke="#20B7F7" stroke-width="2" stroke-linecap="round" stroke-linejoin="round"/>
  <path d="M45.7139 34.125L44.9792 33.5918C41.4872 31.0529 37.0686 28.1833 33.7961 23.9657C30.3473 19.5223 28.6927 14.959 28.7352 10.0136C28.7866 4.49135 32.8541 0 37.8025 0C41.7296 0 44.3409 2.48828 45.7139 4.28429C47.0869 2.48828 49.6982 0 53.6253 0C58.5736 0 62.6412 4.49135 62.6926 10.0109C62.7383 14.959 61.0837 19.5197 57.6316 23.963C54.3592 28.1833 49.9406 31.0529 46.4485 33.5918L45.7139 34.125Z" fill="#42DB92"/>
</svg>
