<svg width="60" height="48" viewBox="0 0 60 48" fill="none" xmlns="http://www.w3.org/2000/svg">
  <rect x="0.345703" y="36.4956" width="59.5407" height="10.9688" rx="2" fill="#20B7F7"/>
  <path d="M1.25338 33.0034C0.808492 34.3015 1.77314 35.6519 3.14535 35.6519H56.995C58.3929 35.6519 59.3595 34.2544 58.8664 32.9463L51.1498 12.4776C50.8561 11.6987 50.1108 11.1831 49.2783 11.1831H10.1605C9.3058 11.1831 8.54559 11.7262 8.2685 12.5347L1.25338 33.0034Z" fill="#B8EAFF"/>
  <path d="M18.7949 25.5269H41.4372" stroke="#20B7F7" stroke-width="2" stroke-linecap="round" stroke-linejoin="round"/>
  <path d="M29.6967 22.1519L29.225 21.8091C26.9829 20.1769 24.146 18.3322 22.0448 15.6209C19.8305 12.7644 18.7682 9.83086 18.7954 6.65164C18.8285 3.10165 21.44 0.214355 24.6171 0.214355C27.1386 0.214355 28.8152 1.81396 29.6967 2.96854C30.5782 1.81396 32.2548 0.214355 34.7763 0.214355C37.9534 0.214355 40.5649 3.10165 40.598 6.64993C40.6273 9.83086 39.565 12.7627 37.3485 15.6192C35.2474 18.3322 32.4105 20.1769 30.1684 21.8091L29.6967 22.1519Z" fill="#42DB92"/>
</svg>
