<svg width="24" height="24" viewBox="0 0 24 24" fill="none" xmlns="http://www.w3.org/2000/svg">
  <path d="M21.1289 16.985C21.1289 19.8253 18.8264 22.1278 15.986 22.1278H8.27176C5.43144 22.1278 3.12891 19.8253 3.12891 16.985L3.12891 13.5136C3.12891 12.8035 3.70454 12.2278 4.41462 12.2278C5.1247 12.2278 5.70033 12.8035 5.70033 13.5136V16.985C5.70033 18.4051 6.8516 19.5564 8.27176 19.5564H15.986C17.4062 19.5564 18.5575 18.4051 18.5575 16.985V13.5136C18.5575 12.8035 19.1331 12.2278 19.8432 12.2278C20.5533 12.2278 21.1289 12.8035 21.1289 13.5136V16.985Z" fill="white"/>
  <path d="M14.3052 2.87109H10.0073C9.51135 2.87109 9.09809 3.31191 9.09809 3.80783V8.79456H5.70931C5.40625 8.79456 5.15829 8.95987 5.02054 9.23538C4.99298 9.34558 4.99298 9.45579 4.99298 9.51089C4.99298 9.70375 5.04809 9.86905 5.18584 10.0068L11.6603 16.4813C11.9083 16.7844 12.4042 16.7568 12.6797 16.4813L19.1267 10.0068C19.5399 9.62109 19.292 8.79456 18.6307 8.79456H15.2144V3.80783C15.2144 3.31191 14.8011 2.87109 14.3052 2.87109Z" fill="white"/>
</svg>
