<svg width="16" height="15" viewBox="0 0 16 15" fill="none" xmlns="http://www.w3.org/2000/svg">
<path fill-rule="evenodd" clip-rule="evenodd" d="M7.08267 0.167777C7.3926 -0.0116547 7.77482 -0.0116549 8.08474 0.167777L14.8978 4.11216C15.5154 4.46974 15.8957 5.12934 15.8957 5.84301V10.4912C15.8957 10.797 15.6478 11.0449 15.342 11.0449C15.0362 11.0449 14.7883 10.797 14.7883 10.4912V5.33101L14.5559 5.46556L14.0911 5.73467L13.1615 6.27287L11.3022 7.34929L8.58578 8.92197C7.96592 9.28083 7.20149 9.28083 6.58163 8.92197L0.766543 5.55534C0.101258 5.17017 0.101256 4.20965 0.766541 3.82448L7.08267 0.167777ZM2.4811 8.42606C2.4811 8.0409 2.89829 7.80037 3.23162 7.99335L6.58282 9.93352C7.20268 10.2924 7.96712 10.2924 8.58697 9.93352L12.2299 7.82443C12.5633 7.63145 12.9805 7.87198 12.9805 8.25714V11.4166C12.9805 11.7797 12.7836 12.1144 12.4661 12.2907L8.70207 14.3819C8.09802 14.7174 7.36354 14.7174 6.75949 14.3819L2.99546 12.2907C2.67799 12.1144 2.4811 11.7797 2.4811 11.4166V8.42606Z" fill="#20B7F7"/>
</svg>
