<svg width="24" height="24" viewBox="0 0 24 24" fill="none" xmlns="http://www.w3.org/2000/svg">
  <path fill-rule="evenodd" clip-rule="evenodd"
        d="M10.949 1.12676C11.2589 0.947329 11.6412 0.94733 11.9511 1.12676L22.898 7.46447C23.5157 7.82205 23.896 8.48165 23.896 9.19532V16.7288C23.896 17.1867 23.5248 17.5578 23.0669 17.5578C22.6091 17.5578 22.2379 17.1867 22.2379 16.7288V9.00217L21.8899 9.20364L21.1939 9.60658L19.8019 10.4125L17.018 12.0242L12.4521 14.6676C11.8323 15.0265 11.0678 15.0265 10.448 14.6676L0.498964 8.90765C-0.166321 8.52248 -0.166321 7.56196 0.498964 7.17679L10.949 1.12676ZM3.80842 13.2048C3.80842 12.8196 4.2256 12.5791 4.55894 12.7721L10.4485 16.1818C11.0683 16.5407 11.8328 16.5407 12.4526 16.1818L18.7791 12.5191C19.1124 12.3261 19.5296 12.5667 19.5296 12.9518V18.4065C19.5296 18.7697 19.3327 19.1043 19.0152 19.2807L12.6403 22.8223C12.0362 23.1579 11.3018 23.1579 10.6977 22.8223L4.32278 19.2807C4.00531 19.1043 3.80842 18.7697 3.80842 18.4065V13.2048Z"
        fill="#42DB92"/>
</svg>
