<svg width="23" height="21" viewBox="0 0 23 21" fill="none" xmlns="http://www.w3.org/2000/svg">
  <path fill-rule="evenodd" clip-rule="evenodd" d="M2.21074 8.8421C2.21074 3.95874 6.16949 0 11.0528 0C15.9362 0 19.895 3.95875 19.895 8.8421V14.5526H20.5395C21.4042 14.5526 22.1053 15.2536 22.1053 16.1184C22.1053 16.9832 21.4042 17.6842 20.5395 17.6842H1.56579C0.701026 17.6842 0 16.9832 0 16.1184C0 15.2536 0.701028 14.5526 1.56579 14.5526H2.21074V8.8421ZM12.1572 21C13.3781 21 14.3678 20.0103 14.3678 18.7895L7.73619 18.7895C7.73619 20.0103 8.72588 21 9.94672 21H12.1572Z" fill="#20B7F7"/>
</svg>
