<svg width="16" height="16" viewBox="0 0 16 16" fill="none" xmlns="http://www.w3.org/2000/svg">
  <path fill-rule="evenodd" clip-rule="evenodd" d="M3.1065 0.984694C2.48989 0.368076 1.51514 0.343083 0.929358 0.92887C0.343571 1.51466 0.368565 2.4894 0.985182 3.10601L5.87933 8.00017L0.985444 12.8941C0.368826 13.5107 0.343833 14.4854 0.92962 15.0712C1.51541 15.657 2.49015 15.632 3.10676 15.0154L8.00066 10.1215L12.8943 15.0152C13.511 15.6318 14.4857 15.6568 15.0715 15.071C15.6573 14.4852 15.6323 13.5105 15.0157 12.8939L10.122 8.00017L15.0159 3.10621C15.6325 2.48959 15.6575 1.51485 15.0718 0.929066C14.486 0.34328 13.5112 0.368274 12.8946 0.984891L8.00066 5.87885L3.1065 0.984694Z" fill="#829AB2"/>
</svg>
