<svg width="16" height="14" viewBox="0 0 16 14" fill="none" xmlns="http://www.w3.org/2000/svg">
  <path fill-rule="evenodd" clip-rule="evenodd" d="M10.0776 0.199219C10.6012 0.199219 11.0253 0.550255 11.0253 0.981188V6.8903L11.033 6.88689V12.971C11.033 13.3917 10.6301 13.7317 10.132 13.7317L5.83201 10.9157L4.71129 10.2237C4.41627 10.0416 4.23667 9.71959 4.23667 9.37286V4.64226C4.23667 4.30853 4.40314 3.9968 4.68049 3.81119L10.0776 0.199219ZM3.34887 8.58043V4.41389H1.79768C0.707172 4.41389 0 5.33526 0 6.50481V7.37518C0 8.61528 0.653624 9.46524 1.79768 9.46524H2.12577H3.34887V8.58043ZM12.9459 3.69257L14.949 2.53574C15.0852 2.45584 15.1342 2.27787 15.0543 2.13984L14.6929 1.51331C14.6741 1.48039 14.6489 1.45151 14.6189 1.42831C14.5889 1.40512 14.5547 1.38805 14.5181 1.37811C14.4815 1.36816 14.4433 1.36551 14.4057 1.37033C14.368 1.37514 14.3317 1.38732 14.2988 1.40616L12.2957 2.56299C12.1577 2.64289 12.1105 2.82086 12.1904 2.95889L12.5518 3.58542C12.5706 3.61834 12.5958 3.64722 12.6258 3.67041C12.6558 3.69361 12.69 3.71067 12.7266 3.72062C12.7632 3.73057 12.8014 3.73322 12.839 3.7284C12.8767 3.72359 12.913 3.71141 12.9459 3.69257ZM12.624 9.60237C12.594 9.62557 12.5688 9.65445 12.55 9.68736L12.1904 10.3121C12.1521 10.3786 12.1416 10.4576 12.1614 10.5318C12.1811 10.606 12.2294 10.6693 12.2957 10.708L14.2988 11.8648C14.3317 11.8837 14.368 11.8958 14.4057 11.9006C14.4433 11.9055 14.4815 11.9028 14.5181 11.8929C14.5547 11.8829 14.5889 11.8659 14.6189 11.8427C14.6489 11.8195 14.6741 11.7906 14.6929 11.7577L15.0525 11.1329C15.1324 10.9949 15.0852 10.8169 14.9472 10.737L12.9441 9.58022C12.9112 9.56137 12.8749 9.5492 12.8372 9.54438C12.7996 9.53957 12.7614 9.54221 12.7248 9.55216C12.6882 9.56211 12.654 9.57917 12.624 9.60237ZM15.7099 7.29017H13.3854C13.2255 7.29017 13.0948 7.15942 13.0948 6.99961V6.27318C13.0948 6.11337 13.2255 5.98261 13.3854 5.98261H15.7099C15.8697 5.98261 16.0005 6.11337 16.0005 6.27318V6.99961C16.0005 7.15942 15.8697 7.29017 15.7099 7.29017Z" fill="#fff"/>
</svg>
