<svg width="16" height="17" viewBox="0 0 16 17" fill="none" xmlns="http://www.w3.org/2000/svg">
  <path fill-rule="evenodd" clip-rule="evenodd" d="M11.8725 0.550781C12.4885 0.550781 12.9875 0.963781 12.9875 1.47078V3.09578L5.00049 9.33878V5.14978C5.00049 4.64178 5.49949 4.22978 6.11449 4.22978L11.8725 0.550781ZM2.01868 13.5766C1.71577 13.8177 1.66563 14.2587 1.9067 14.5616C2.14778 14.8645 2.58879 14.9146 2.89172 14.6736L15.7947 4.4046C16.0977 4.16352 16.1478 3.72253 15.9067 3.41961C15.6656 3.11668 15.2246 3.06654 14.9217 3.30762L2.01868 13.5766ZM3.95367 5.50977V10.4118L2.51467 11.4528H2.12867C0.782672 11.4528 0.0136719 10.4528 0.0136719 8.99377V7.96977C0.0136719 6.59377 0.845672 5.50977 2.12867 5.50977H3.95367ZM6.87744 13.1589L11.9364 16.4719C12.5224 16.4719 12.9964 16.0719 12.9964 15.5769V8.41895L6.87744 13.1589Z" fill="white"/>
</svg>
