<svg width="24" height="24" viewBox="0 0 24 24" fill="none" xmlns="http://www.w3.org/2000/svg">
  <path
    d="M21.9477 18.2536L13.8317 3.30477C13.6168 2.90998 13.2995 2.58043 12.9131 2.35081C12.5267 2.12119 12.0855 2 11.636 2C11.1866 2 10.7454 2.12119 10.359 2.35081C9.9726 2.58043 9.65526 2.90998 9.44038 3.30477L1.31603 18.2536C1.10339 18.6353 0.994497 19.066 1.00021 19.5029C1.00593 19.9398 1.12606 20.3676 1.34862 20.7435C1.57118 21.1195 1.8884 21.4306 2.26866 21.6458C2.64892 21.861 3.07894 21.9728 3.51586 21.9699H19.7479C20.1812 21.9703 20.6072 21.8581 20.9841 21.6442C21.361 21.4303 21.6758 21.1221 21.8976 20.7499C22.1194 20.3776 22.2407 19.9541 22.2495 19.5209C22.2583 19.0876 22.1543 18.6595 21.9477 18.2786V18.2536ZM10.3903 7.58776C10.3903 7.25627 10.522 6.93835 10.7564 6.70395C10.9908 6.46955 11.3087 6.33786 11.6402 6.33786C11.9717 6.33786 12.2896 6.46955 12.524 6.70395C12.7584 6.93835 12.8901 7.25627 12.8901 7.58776V13.329C12.8901 13.6605 12.7584 13.9784 12.524 14.2128C12.2896 14.4472 11.9717 14.5789 11.6402 14.5789C11.3087 14.5789 10.9908 14.4472 10.7564 14.2128C10.522 13.9784 10.3903 13.6605 10.3903 13.329V7.58776ZM11.6735 18.8452C11.3901 18.8452 11.113 18.7611 10.8773 18.6037C10.6416 18.4462 10.4579 18.2223 10.3494 17.9604C10.2409 17.6986 10.2126 17.4104 10.2679 17.1324C10.3232 16.8544 10.4597 16.599 10.6601 16.3985C10.8605 16.1981 11.1159 16.0616 11.3939 16.0063C11.6719 15.951 11.9601 15.9794 12.222 16.0879C12.4839 16.1963 12.7077 16.38 12.8652 16.6157C13.0227 16.8514 13.1068 17.1285 13.1068 17.412C13.1068 17.7921 12.9558 18.1566 12.687 18.4254C12.4182 18.6942 12.0537 18.8452 11.6735 18.8452Z"
    fill="#F74420"/>
</svg>
