<svg width="22" height="17" viewBox="0 0 22 17" fill="none" xmlns="http://www.w3.org/2000/svg">
  <path fill-rule="evenodd" clip-rule="evenodd" d="M0.805456 0.805456C0.289731 1.32118 0 2.02065 0 2.75V9.625H22V2.75C22 2.02065 21.7103 1.32118 21.1945 0.805456C20.6788 0.289731 19.9793 0 19.25 0H2.75C2.02065 0 1.32118 0.289731 0.805456 0.805456ZM15.3264 4.32636C15.4553 4.19743 15.6302 4.125 15.8125 4.125H18.5625C18.7448 4.125 18.9197 4.19743 19.0486 4.32636C19.1776 4.4553 19.25 4.63016 19.25 4.8125V6.1875C19.25 6.36984 19.1776 6.5447 19.0486 6.67364C18.9197 6.80257 18.7448 6.875 18.5625 6.875H15.8125C15.6302 6.875 15.4553 6.80257 15.3264 6.67364C15.1974 6.5447 15.125 6.36984 15.125 6.1875V4.8125C15.125 4.63016 15.1974 4.4553 15.3264 4.32636ZM0 13.75V12.375H22V13.75C22 14.4793 21.7103 15.1788 21.1945 15.6945C20.6788 16.2103 19.9793 16.5 19.25 16.5H2.75C2.02065 16.5 1.32118 16.2103 0.805456 15.6945C0.289731 15.1788 0 14.4793 0 13.75Z" fill="#829AB2"/>
</svg>
