<svg width="20" height="20" viewBox="0 0 20 20" fill="none" xmlns="http://www.w3.org/2000/svg">
  <path fill-rule="evenodd" clip-rule="evenodd" d="M7.71436 0.5C6.88593 0.5 6.21436 1.17157 6.21436 2C6.21436 2.82843 6.88593 3.5 7.71436 3.5H16.2858C16.3426 3.5 16.3971 3.52258 16.4373 3.56276C16.4775 3.60295 16.5001 3.65745 16.5001 3.71429V12.2857C16.5001 13.1141 17.1716 13.7857 18.0001 13.7857C18.8285 13.7857 19.5001 13.1141 19.5001 12.2857V3.71429C19.5001 2.8618 19.1614 2.04424 18.5586 1.44144C17.9558 0.838647 17.1383 0.5 16.2858 0.5H7.71436ZM2 6H12C13.103 6 14 6.897 14 8V18C14 19.103 13.103 20 12 20H2C0.897 20 0 19.103 0 18V8C0 6.897 0.897 6 2 6Z" fill="#829AB2"/>
</svg>
