<svg width="10" height="10" viewBox="0 0 10 10" fill="none" xmlns="http://www.w3.org/2000/svg">
  <path d="M2.13365 0.366076C1.64554 -0.122025 0.854176 -0.122025 0.366076 0.366076C-0.122025 0.854176 -0.122025 1.64554 0.366076 2.13365L3.01743 4.785L0.366076 7.43635C-0.122025 7.92446 -0.122025 8.71582 0.366076 9.20392C0.854176 9.69203 1.64554 9.69203 2.13365 9.20392L4.785 6.55257L7.43635 9.20392C7.92446 9.69203 8.71582 9.69203 9.20392 9.20392C9.69203 8.71582 9.69203 7.92446 9.20392 7.43635L6.55257 4.785L9.20392 2.13365C9.69203 1.64554 9.69203 0.854176 9.20392 0.366076C8.71582 -0.122025 7.92446 -0.122025 7.43635 0.366076L4.785 3.01743L2.13365 0.366076Z" fill="#829AB2"/>
</svg>
