<svg width="26" height="29" viewBox="0 0 26 29" fill="none" xmlns="http://www.w3.org/2000/svg">
  <path fill-rule="evenodd" clip-rule="evenodd"
        d="M4.12461 12.7379V9.21289C4.12461 6.87567 5.05307 4.63418 6.70573 2.98151C8.3584 1.32885 10.5999 0.400391 12.9371 0.400391C15.2743 0.400391 17.5158 1.32885 19.1685 2.98151C20.8212 4.63418 21.7496 6.87567 21.7496 9.21289V12.7379C22.6845 12.7379 23.5811 13.1093 24.2422 13.7703C24.9032 14.4314 25.2746 15.328 25.2746 16.2629V25.0754C25.2746 26.0103 24.9032 26.9069 24.2422 27.5679C23.5811 28.229 22.6845 28.6004 21.7496 28.6004H4.12461C3.18972 28.6004 2.29312 28.229 1.63206 27.5679C0.970992 26.9069 0.599609 26.0103 0.599609 25.0754V16.2629C0.599609 15.328 0.970992 14.4314 1.63206 13.7703C2.29312 13.1093 3.18972 12.7379 4.12461 12.7379ZM18.2246 9.21289V12.7379H7.64961V9.21289C7.64961 7.81056 8.20668 6.46566 9.19828 5.47406C10.1899 4.48247 11.5348 3.92539 12.9371 3.92539C14.3394 3.92539 15.6843 4.48247 16.6759 5.47406C17.6675 6.46566 18.2246 7.81056 18.2246 9.21289Z"
        fill="#20B7F7"/>
</svg>
