<svg width="142" height="41" viewBox="0 0 142 41" fill="none" xmlns="http://www.w3.org/2000/svg">
  <path d="M54.2844 12.0093V22.3912C54.2844 23.5287 54.5737 24.4019 55.1524 25.0107C55.7311 25.6035 56.5444 25.8999 57.5923 25.8999C58.6558 25.8999 59.4769 25.6035 60.0556 25.0107C60.6343 24.4019 60.9236 23.5287 60.9236 22.3912V12.0093H64.2315V22.3672C64.2315 23.7931 63.9265 25.0027 63.3165 25.996C62.7222 26.9733 61.9167 27.7103 60.9001 28.2069C59.8992 28.7036 58.7809 28.9519 57.5453 28.9519C56.3254 28.9519 55.215 28.7036 54.214 28.2069C53.2287 27.7103 52.4467 26.9733 51.868 25.996C51.2893 25.0027 51 23.7931 51 22.3672V12.0093H54.2844Z" fill="#20B7F7"/>
  <path d="M70.6892 11V28.7837H67.4048V11H70.6892Z" fill="#20B7F7"/>
  <path d="M86.0161 21.8385C86.0161 22.3191 85.9848 22.7517 85.9223 23.1362H76.421C76.4992 24.0975 76.8276 24.8505 77.4063 25.3952C77.985 25.9399 78.6966 26.2123 79.5411 26.2123C80.7611 26.2123 81.6291 25.6756 82.1452 24.6021H85.6877C85.3123 25.8838 84.5929 26.9413 83.5294 27.7744C82.4658 28.5915 81.1599 29 79.6115 29C78.3603 29 77.2342 28.7196 76.2333 28.1589C75.248 27.5821 74.4738 26.773 73.9107 25.7316C73.3633 24.6903 73.0896 23.4887 73.0896 22.1268C73.0896 20.749 73.3633 19.5394 73.9107 18.498C74.4581 17.4566 75.2245 16.6555 76.2098 16.0948C77.1951 15.534 78.329 15.2537 79.6115 15.2537C80.8471 15.2537 81.9497 15.526 82.9194 16.0708C83.9047 16.6155 84.6633 17.3925 85.195 18.4019C85.7424 19.3952 86.0161 20.5407 86.0161 21.8385ZM82.6144 20.8772C82.5988 20.012 82.2938 19.3231 81.6995 18.8104C81.1052 18.2817 80.3779 18.0174 79.5177 18.0174C78.7044 18.0174 78.0162 18.2737 77.4532 18.7864C76.9058 19.283 76.5695 19.98 76.4444 20.8772H82.6144Z" fill="#20B7F7"/>
  <path d="M87.5689 22.0788C87.5689 20.733 87.8269 19.5394 88.3431 18.498C88.8748 17.4566 89.5864 16.6555 90.4779 16.0948C91.385 15.534 92.3938 15.2537 93.5043 15.2537C94.4739 15.2537 95.3185 15.4539 96.0379 15.8545C96.773 16.255 97.3595 16.7597 97.7975 17.3685V15.47H101.105V28.7837H97.7975V26.8371C97.3752 27.4619 96.7887 27.9826 96.0379 28.3992C95.3029 28.7997 94.4505 29 93.4808 29C92.386 29 91.385 28.7116 90.4779 28.1348C89.5864 27.5581 88.8748 26.749 88.3431 25.7076C87.8269 24.6502 87.5689 23.4406 87.5689 22.0788ZM97.7975 22.1268C97.7975 21.3097 97.6411 20.6128 97.3283 20.036C97.0154 19.4433 96.5932 18.9947 96.0614 18.6903C95.5297 18.3698 94.9588 18.2096 94.3488 18.2096C93.7389 18.2096 93.1758 18.3618 92.6597 18.6662C92.1436 18.9706 91.7213 19.4192 91.3929 20.012C91.0801 20.5888 90.9237 21.2777 90.9237 22.0788C90.9237 22.8798 91.0801 23.5848 91.3929 24.1936C91.7213 24.7864 92.1436 25.243 92.6597 25.5634C93.1915 25.8838 93.7545 26.0441 94.3488 26.0441C94.9588 26.0441 95.5297 25.8919 96.0614 25.5874C96.5932 25.267 97.0154 24.8184 97.3283 24.2417C97.6411 23.6489 97.7975 22.9439 97.7975 22.1268Z" fill="#20B7F7"/>
  <path d="M107.598 17.5367C108.02 16.8318 108.567 16.279 109.24 15.8785C109.928 15.478 110.71 15.2777 111.586 15.2777V18.8104H110.718C109.685 18.8104 108.903 19.0587 108.372 19.5554C107.856 20.0521 107.598 20.9172 107.598 22.1509V28.7837H104.313V15.47H107.598V17.5367Z" fill="#20B7F7"/>
  <path d="M121 15.2777C122.549 15.2777 123.8 15.7824 124.754 16.7917C125.708 17.785 126.185 19.1789 126.185 20.9733V28.7837H122.9V21.4299C122.9 20.3725 122.642 19.5634 122.126 19.0027C121.61 18.4259 120.906 18.1375 120.015 18.1375C119.108 18.1375 118.388 18.4259 117.857 19.0027C117.34 19.5634 117.082 20.3725 117.082 21.4299V28.7837H113.798V15.47H117.082V17.1282C117.52 16.5514 118.075 16.1028 118.748 15.7824C119.436 15.4459 120.187 15.2777 121 15.2777Z" fill="#20B7F7"/>
  <path d="M128.464 22.0788C128.464 20.733 128.722 19.5394 129.238 18.498C129.77 17.4566 130.481 16.6555 131.373 16.0948C132.28 15.534 133.289 15.2537 134.399 15.2537C135.369 15.2537 136.213 15.4539 136.933 15.8545C137.668 16.255 138.254 16.7597 138.692 17.3685V15.47H142V28.7837H138.692V26.8371C138.27 27.4619 137.683 27.9826 136.933 28.3992C136.198 28.7997 135.345 29 134.375 29C133.281 29 132.28 28.7116 131.373 28.1348C130.481 27.5581 129.77 26.749 129.238 25.7076C128.722 24.6502 128.464 23.4406 128.464 22.0788ZM138.692 22.1268C138.692 21.3097 138.536 20.6128 138.223 20.036C137.91 19.4433 137.488 18.9947 136.956 18.6903C136.424 18.3698 135.853 18.2096 135.244 18.2096C134.634 18.2096 134.071 18.3618 133.554 18.6662C133.038 18.9706 132.616 19.4192 132.288 20.012C131.975 20.5888 131.818 21.2777 131.818 22.0788C131.818 22.8798 131.975 23.5848 132.288 24.1936C132.616 24.7864 133.038 25.243 133.554 25.5634C134.086 25.8838 134.649 26.0441 135.244 26.0441C135.853 26.0441 136.424 25.8919 136.956 25.5874C137.488 25.267 137.91 24.8184 138.223 24.2417C138.536 23.6489 138.692 22.9439 138.692 22.1268Z" fill="#20B7F7"/>
  <path d="M30.4947 33.5793C32.6827 30.6286 33.9849 26.9434 33.9849 22.95V22.3843H30.5232V22.95C30.5232 28.9337 26.8536 34.0484 21.7148 36.0295C22.14 36.0739 22.5712 36.0969 23.0075 36.0969C25.8036 36.0968 28.3909 35.1605 30.4947 33.5793Z" fill="#20B7F7"/>
  <path d="M33.9851 2.5H30.5234V5.81418H33.9851V2.5Z" fill="#20B7F7"/>
  <path d="M40.0006 5.81482H36.5391V9.12889H40.0006V5.81482Z" fill="#20B7F7"/>
  <path d="M33.9851 9.12573H30.5234V12.4398H33.9851V9.12573Z" fill="#20B7F7"/>
  <path d="M40.0006 12.4404H36.5391V15.7546H40.0006V12.4404Z" fill="#20B7F7"/>
  <path d="M33.9851 15.7555H30.5234V19.0696H33.9851V15.7555Z" fill="#20B7F7"/>
  <path d="M17.7185 40.4625C14.206 39.3312 11.1589 37.1034 8.95324 34.17C5.62418 31.6246 3.46151 27.5438 3.46151 22.9505V18.9741V18.0002V6.07066H6.01503V22.9505C6.01503 32.6161 13.6378 40.4795 23.0076 40.4795C32.3771 40.4795 39.9999 32.6161 39.9999 22.9505V22.3848V19.0707H36.5383V22.3848V22.9505C36.5383 30.6471 30.4685 36.9089 23.0076 36.9089C15.5464 36.9089 9.47639 30.6471 9.47639 22.9505V2.5H0.968795H0V18.0002V18.9741V22.9505C0 32.6161 7.62278 40.4795 16.9925 40.4795C17.2359 40.4796 17.4776 40.473 17.7185 40.4625Z" fill="#20B7F7"/>
</svg>
