<svg width="114" height="40" viewBox="0 0 114 40" fill="none" xmlns="http://www.w3.org/2000/svg">
  <path d="M40.4704 14.1352V22.3825C40.4704 23.2861 40.7051 23.9797 41.1744 24.4634C41.6438 24.9343 42.3034 25.1697 43.1533 25.1697C44.0158 25.1697 44.6818 24.9343 45.1511 24.4634C45.6204 23.9797 45.8551 23.2861 45.8551 22.3825V14.1352H48.5379V22.3634C48.5379 23.4961 48.2906 24.457 47.7959 25.2461C47.3139 26.0225 46.6606 26.6079 45.8361 27.0025C45.0243 27.397 44.1173 27.5943 43.1152 27.5943C42.1258 27.5943 41.2252 27.397 40.4134 27.0025C39.6142 26.6079 38.98 26.0225 38.5106 25.2461C38.0413 24.457 37.8066 23.4961 37.8066 22.3634V14.1352H40.4704Z" fill="#20B7F7"/>
  <path d="M53.7754 13.3334V27.4606H51.1116V13.3334H53.7754Z" fill="#20B7F7"/>
  <path d="M66.2062 21.9434C66.2062 22.3252 66.1809 22.6688 66.1301 22.9743H58.4241C58.4876 23.7379 58.7539 24.3361 59.2233 24.7688C59.6926 25.2016 60.2698 25.4179 60.9547 25.4179C61.9442 25.4179 62.6482 24.9916 63.0668 24.1388H65.9399C65.6354 25.157 65.0519 25.997 64.1894 26.6588C63.3268 27.3079 62.2676 27.6325 61.0118 27.6325C59.9971 27.6325 59.0837 27.4097 58.2719 26.9643C57.4728 26.5061 56.8449 25.8634 56.3882 25.0361C55.9443 24.2088 55.7223 23.2543 55.7223 22.1725C55.7223 21.0779 55.9443 20.117 56.3882 19.2897C56.8322 18.4625 57.4538 17.8261 58.2529 17.3806C59.052 16.9352 59.9717 16.7125 61.0118 16.7125C62.0139 16.7125 62.9082 16.9288 63.6947 17.3616C64.4938 17.7943 65.109 18.4116 65.5403 19.2134C65.9842 20.0025 66.2062 20.9125 66.2062 21.9434ZM63.4473 21.1797C63.4346 20.4925 63.1873 19.9452 62.7052 19.5379C62.2232 19.1179 61.6334 18.9079 60.9357 18.9079C60.2761 18.9079 59.718 19.1116 59.2613 19.5188C58.8174 19.9134 58.5446 20.467 58.4432 21.1797H63.4473Z" fill="#20B7F7"/>
  <path d="M67.4656 22.1343C67.4656 21.0652 67.6749 20.117 68.0935 19.2897C68.5248 18.4625 69.1019 17.8261 69.8249 17.3806C70.5607 16.9352 71.3788 16.7125 72.2794 16.7125C73.0659 16.7125 73.7509 16.8716 74.3344 17.1897C74.9306 17.5079 75.4062 17.9088 75.7614 18.3925V16.8843H78.4442V27.4606H75.7614V25.9143C75.4189 26.4106 74.9432 26.8243 74.3344 27.1552C73.7382 27.4734 73.0469 27.6325 72.2604 27.6325C71.3725 27.6325 70.5607 27.4034 69.8249 26.9452C69.1019 26.487 68.5248 25.8443 68.0935 25.017C67.6749 24.177 67.4656 23.2161 67.4656 22.1343ZM75.7614 22.1725C75.7614 21.5234 75.6346 20.9697 75.3809 20.5116C75.1272 20.0406 74.7847 19.6843 74.3534 19.4425C73.9221 19.1879 73.4591 19.0606 72.9644 19.0606C72.4697 19.0606 72.0131 19.1816 71.5945 19.4234C71.1759 19.6652 70.8334 20.0216 70.567 20.4925C70.3133 20.9506 70.1865 21.4979 70.1865 22.1343C70.1865 22.7706 70.3133 23.3306 70.567 23.8143C70.8334 24.2852 71.1759 24.6479 71.5945 24.9025C72.0257 25.157 72.4824 25.2843 72.9644 25.2843C73.4591 25.2843 73.9221 25.1634 74.3534 24.9216C74.7847 24.667 75.1272 24.3106 75.3809 23.8525C75.6346 23.3816 75.7614 22.8216 75.7614 22.1725Z" fill="#20B7F7"/>
  <path d="M83.7097 18.5261C84.0522 17.9661 84.4961 17.527 85.0416 17.2088C85.5997 16.8906 86.2339 16.7316 86.9443 16.7316V19.5379H86.2403C85.4031 19.5379 84.7689 19.7352 84.3376 20.1297C83.919 20.5243 83.7097 21.2116 83.7097 22.1916V27.4606H81.0459V16.8843H83.7097V18.5261Z" fill="#20B7F7"/>
  <path d="M94.5798 16.7316C95.8356 16.7316 96.8504 17.1325 97.6241 17.9343C98.3979 18.7234 98.7848 19.8306 98.7848 21.2561V27.4606H96.121V21.6188C96.121 20.7788 95.9117 20.1361 95.4931 19.6906C95.0745 19.2325 94.5037 19.0034 93.7807 19.0034C93.045 19.0034 92.4615 19.2325 92.0302 19.6906C91.6116 20.1361 91.4023 20.7788 91.4023 21.6188V27.4606H88.7385V16.8843H91.4023V18.2016C91.7575 17.7434 92.2078 17.387 92.7532 17.1325C93.3113 16.8652 93.9202 16.7316 94.5798 16.7316Z" fill="#20B7F7"/>
  <path d="M100.633 22.1343C100.633 21.0652 100.842 20.117 101.261 19.2897C101.692 18.4625 102.269 17.8261 102.992 17.3806C103.728 16.9352 104.546 16.7125 105.447 16.7125C106.233 16.7125 106.918 16.8716 107.502 17.1897C108.098 17.5079 108.574 17.9088 108.929 18.3925V16.8843H111.612V27.4606H108.929V25.9143C108.586 26.4106 108.111 26.8243 107.502 27.1552C106.906 27.4734 106.214 27.6325 105.428 27.6325C104.54 27.6325 103.728 27.4034 102.992 26.9452C102.269 26.487 101.692 25.8443 101.261 25.017C100.842 24.177 100.633 23.2161 100.633 22.1343ZM108.929 22.1725C108.929 21.5234 108.802 20.9697 108.548 20.5116C108.295 20.0406 107.952 19.6843 107.521 19.4425C107.089 19.1879 106.626 19.0606 106.132 19.0606C105.637 19.0606 105.18 19.1816 104.762 19.4234C104.343 19.6652 104.001 20.0216 103.734 20.4925C103.481 20.9506 103.354 21.4979 103.354 22.1343C103.354 22.7706 103.481 23.3306 103.734 23.8143C104.001 24.2852 104.343 24.6479 104.762 24.9025C105.193 25.157 105.65 25.2843 106.132 25.2843C106.626 25.2843 107.089 25.1634 107.521 24.9216C107.952 24.667 108.295 24.3106 108.548 23.8525C108.802 23.3816 108.929 22.8216 108.929 22.1725Z" fill="#20B7F7"/>
  <path d="M22.0411 29.808C23.6225 27.6769 24.5637 25.0154 24.5637 22.1312V21.7227H22.0617V22.1312C22.0617 26.4528 19.4094 30.1467 15.6953 31.5775C16.0025 31.6096 16.3142 31.6262 16.6295 31.6262C18.6505 31.6262 20.5205 30.95 22.0411 29.808Z" fill="#20B7F7"/>
  <path d="M24.5637 7.36108H22.0618V9.75466H24.5637V7.36108Z" fill="#20B7F7"/>
  <path d="M28.9109 9.75513H26.409V12.1486H28.9109V9.75513Z" fill="#20B7F7"/>
  <path d="M24.5637 12.1465H22.0618V14.54H24.5637V12.1465Z" fill="#20B7F7"/>
  <path d="M28.9108 14.5399H26.4089V16.9335H28.9108V14.5399Z" fill="#20B7F7"/>
  <path d="M24.5637 16.9342H22.0618V19.3277H24.5637V16.9342Z" fill="#20B7F7"/>
  <path d="M12.8065 34.7784C10.2677 33.9614 8.06538 32.3524 6.47117 30.2339C4.06501 28.3955 2.50188 25.4482 2.50188 22.1309V19.259V18.5557V9.93989H4.34751V22.1309C4.34751 29.1116 9.85705 34.7907 16.6293 34.7907C23.4013 34.7907 28.9109 29.1116 28.9109 22.1309V21.7223V19.3288H26.4089V21.7223V22.1309C26.4089 27.6895 22.0218 32.2119 16.6293 32.2119C11.2365 32.2119 6.84929 27.6895 6.84929 22.1309V7.36108H0.70022H0V18.5557V19.259V22.1309C0 29.1116 5.50955 34.7907 12.2817 34.7907C12.4577 34.7908 12.6323 34.786 12.8065 34.7784Z" fill="#20B7F7"/>
</svg>
