<svg width="146" height="45" viewBox="0 0 146 45" fill="none" xmlns="http://www.w3.org/2000/svg">
  <path d="M54.2844 16.0093V26.3912C54.2844 27.5287 54.5737 28.4019 55.1524 29.0107C55.7311 29.6035 56.5444 29.8999 57.5923 29.8999C58.6558 29.8999 59.4769 29.6035 60.0556 29.0107C60.6343 28.4019 60.9236 27.5287 60.9236 26.3912V16.0093H64.2315V26.3672C64.2315 27.7931 63.9265 29.0027 63.3165 29.996C62.7222 30.9733 61.9167 31.7103 60.9001 32.2069C59.8992 32.7036 58.7809 32.9519 57.5453 32.9519C56.3254 32.9519 55.215 32.7036 54.214 32.2069C53.2287 31.7103 52.4467 30.9733 51.868 29.996C51.2893 29.0027 51 27.7931 51 26.3672V16.0093H54.2844Z" fill="#20B7F7"/>
  <path d="M70.6892 15V32.7837H67.4048V15H70.6892Z" fill="#20B7F7"/>
  <path d="M86.0161 25.8385C86.0161 26.3191 85.9848 26.7517 85.9223 27.1362H76.421C76.4992 28.0975 76.8276 28.8505 77.4063 29.3952C77.985 29.9399 78.6966 30.2123 79.5411 30.2123C80.7611 30.2123 81.6291 29.6756 82.1452 28.6021H85.6877C85.3123 29.8838 84.5929 30.9413 83.5294 31.7744C82.4658 32.5915 81.1599 33 79.6115 33C78.3603 33 77.2342 32.7196 76.2333 32.1589C75.248 31.5821 74.4738 30.773 73.9107 29.7316C73.3633 28.6903 73.0896 27.4887 73.0896 26.1268C73.0896 24.749 73.3633 23.5394 73.9107 22.498C74.4581 21.4566 75.2245 20.6555 76.2098 20.0948C77.1951 19.534 78.329 19.2537 79.6115 19.2537C80.8471 19.2537 81.9497 19.526 82.9194 20.0708C83.9047 20.6155 84.6633 21.3925 85.195 22.4019C85.7424 23.3952 86.0161 24.5407 86.0161 25.8385ZM82.6144 24.8772C82.5988 24.012 82.2938 23.3231 81.6995 22.8104C81.1052 22.2817 80.3779 22.0174 79.5177 22.0174C78.7044 22.0174 78.0162 22.2737 77.4532 22.7864C76.9058 23.283 76.5695 23.98 76.4444 24.8772H82.6144Z" fill="#20B7F7"/>
  <path d="M87.5689 26.0788C87.5689 24.733 87.8269 23.5394 88.3431 22.498C88.8748 21.4566 89.5864 20.6555 90.4779 20.0948C91.385 19.534 92.3938 19.2537 93.5043 19.2537C94.4739 19.2537 95.3185 19.4539 96.0379 19.8545C96.773 20.255 97.3595 20.7597 97.7975 21.3685V19.47H101.105V32.7837H97.7975V30.8371C97.3752 31.4619 96.7887 31.9826 96.0379 32.3992C95.3029 32.7997 94.4505 33 93.4808 33C92.386 33 91.385 32.7116 90.4779 32.1348C89.5864 31.5581 88.8748 30.749 88.3431 29.7076C87.8269 28.6502 87.5689 27.4406 87.5689 26.0788ZM97.7975 26.1268C97.7975 25.3097 97.6411 24.6128 97.3283 24.036C97.0154 23.4433 96.5932 22.9947 96.0614 22.6903C95.5297 22.3698 94.9588 22.2096 94.3488 22.2096C93.7389 22.2096 93.1758 22.3618 92.6597 22.6662C92.1436 22.9706 91.7213 23.4192 91.3929 24.012C91.0801 24.5888 90.9237 25.2777 90.9237 26.0788C90.9237 26.8798 91.0801 27.5848 91.3929 28.1936C91.7213 28.7864 92.1436 29.243 92.6597 29.5634C93.1915 29.8838 93.7545 30.0441 94.3488 30.0441C94.9588 30.0441 95.5297 29.8919 96.0614 29.5874C96.5932 29.267 97.0154 28.8184 97.3283 28.2417C97.6411 27.6489 97.7975 26.9439 97.7975 26.1268Z" fill="#20B7F7"/>
  <path d="M107.598 21.5367C108.02 20.8318 108.567 20.279 109.24 19.8785C109.928 19.478 110.71 19.2777 111.586 19.2777V22.8104H110.718C109.685 22.8104 108.903 23.0587 108.372 23.5554C107.856 24.0521 107.598 24.9172 107.598 26.1509V32.7837H104.313V19.47H107.598V21.5367Z" fill="#20B7F7"/>
  <path d="M121 19.2777C122.549 19.2777 123.8 19.7824 124.754 20.7917C125.708 21.785 126.185 23.1789 126.185 24.9733V32.7837H122.9V25.4299C122.9 24.3725 122.642 23.5634 122.126 23.0027C121.61 22.4259 120.906 22.1375 120.015 22.1375C119.108 22.1375 118.388 22.4259 117.857 23.0027C117.34 23.5634 117.082 24.3725 117.082 25.4299V32.7837H113.798V19.47H117.082V21.1282C117.52 20.5514 118.075 20.1028 118.748 19.7824C119.436 19.4459 120.187 19.2777 121 19.2777Z" fill="#20B7F7"/>
  <path d="M128.464 26.0788C128.464 24.733 128.722 23.5394 129.238 22.498C129.77 21.4566 130.481 20.6555 131.373 20.0948C132.28 19.534 133.289 19.2537 134.399 19.2537C135.369 19.2537 136.213 19.4539 136.933 19.8545C137.668 20.255 138.254 20.7597 138.692 21.3685V19.47H142V32.7837H138.692V30.8371C138.27 31.4619 137.683 31.9826 136.933 32.3992C136.198 32.7997 135.345 33 134.375 33C133.281 33 132.28 32.7116 131.373 32.1348C130.481 31.5581 129.77 30.749 129.238 29.7076C128.722 28.6502 128.464 27.4406 128.464 26.0788ZM138.692 26.1268C138.692 25.3097 138.536 24.6128 138.223 24.036C137.91 23.4433 137.488 22.9947 136.956 22.6903C136.424 22.3698 135.853 22.2096 135.244 22.2096C134.634 22.2096 134.071 22.3618 133.554 22.6662C133.038 22.9706 132.616 23.4192 132.288 24.012C131.975 24.5888 131.818 25.2777 131.818 26.0788C131.818 26.8798 131.975 27.5848 132.288 28.1936C132.616 28.7864 133.038 29.243 133.554 29.5634C134.086 29.8838 134.649 30.0441 135.244 30.0441C135.853 30.0441 136.424 29.8919 136.956 29.5874C137.488 29.267 137.91 28.8184 138.223 28.2417C138.536 27.6489 138.692 26.9439 138.692 26.1268Z" fill="#20B7F7"/>
  <path d="M30.4947 37.5793C32.6827 34.6286 33.9849 30.9434 33.9849 26.95V26.3843H30.5232V26.95C30.5232 32.9337 26.8536 38.0484 21.7148 40.0295C22.14 40.0739 22.5712 40.0969 23.0075 40.0969C25.8036 40.0968 28.3909 39.1605 30.4947 37.5793Z" fill="#20B7F7"/>
  <path d="M33.9851 6.5H30.5234V9.81418H33.9851V6.5Z" fill="#20B7F7"/>
  <path d="M40.0006 9.81482H36.5391V13.1289H40.0006V9.81482Z" fill="#20B7F7"/>
  <path d="M33.9851 13.1257H30.5234V16.4398H33.9851V13.1257Z" fill="#20B7F7"/>
  <path d="M40.0006 16.4404H36.5391V19.7546H40.0006V16.4404Z" fill="#20B7F7"/>
  <path d="M33.9851 19.7555H30.5234V23.0696H33.9851V19.7555Z" fill="#20B7F7"/>
  <path d="M17.7185 44.4625C14.206 43.3312 11.1589 41.1034 8.95324 38.17C5.62418 35.6246 3.46151 31.5438 3.46151 26.9505V22.9741V22.0002V10.0707H6.01503V26.9505C6.01503 36.6161 13.6378 44.4795 23.0076 44.4795C32.3771 44.4795 39.9999 36.6161 39.9999 26.9505V26.3848V23.0707H36.5383V26.3848V26.9505C36.5383 34.6471 30.4685 40.9089 23.0076 40.9089C15.5464 40.9089 9.47639 34.6471 9.47639 26.9505V6.5H0.968795H0V22.0002V22.9741V26.9505C0 36.6161 7.62278 44.4795 16.9925 44.4795C17.2359 44.4796 17.4776 44.473 17.7185 44.4625Z" fill="#20B7F7"/>
</svg>
