<svg width="114" height="40" viewBox="0 0 114 40" fill="none" xmlns="http://www.w3.org/2000/svg">
  <path d="M40.4391 14.1351V22.3823C40.4391 23.286 40.6736 23.9796 41.1426 24.4633C41.6115 24.9342 42.2707 25.1696 43.1199 25.1696C43.9818 25.1696 44.6472 24.9342 45.1162 24.4633C45.5852 23.9796 45.8197 23.286 45.8197 22.3823V14.1351H48.5004V22.3633C48.5004 23.496 48.2533 24.4569 47.759 25.246C47.2773 26.0223 46.6245 26.6078 45.8007 27.0023C44.9895 27.3969 44.0832 27.5942 43.0819 27.5942C42.0932 27.5942 41.1933 27.3969 40.3821 27.0023C39.5835 26.6078 38.9498 26.0223 38.4808 25.246C38.0118 24.4569 37.7773 23.496 37.7773 22.3633V14.1351H40.4391Z" fill="#20B7F7"/>
  <path d="M53.734 13.3333V27.4605H51.0722V13.3333H53.734Z" fill="#20B7F7"/>
  <path d="M66.1553 21.9433C66.1553 22.3251 66.1299 22.6687 66.0792 22.9742H58.3791C58.4425 23.7378 58.7087 24.336 59.1776 24.7687C59.6466 25.2014 60.2233 25.4178 60.9078 25.4178C61.8964 25.4178 62.5999 24.9914 63.0182 24.1387H65.8891C65.5849 25.1569 65.0018 25.9969 64.1399 26.6587C63.278 27.3078 62.2197 27.6323 60.9648 27.6323C59.9508 27.6323 59.0382 27.4096 58.227 26.9642C57.4285 26.506 56.8011 25.8633 56.3448 25.036C55.9011 24.2087 55.6793 23.2542 55.6793 22.1723C55.6793 21.0778 55.9011 20.1169 56.3448 19.2896C56.7884 18.4623 57.4095 17.826 58.208 17.3805C59.0065 16.9351 59.9255 16.7123 60.9648 16.7123C61.9662 16.7123 62.8598 16.9287 63.6456 17.3614C64.4441 17.7942 65.0589 18.4114 65.4898 19.2133C65.9335 20.0023 66.1553 20.9123 66.1553 21.9433ZM63.3984 21.1796C63.3858 20.4923 63.1386 19.9451 62.6569 19.5378C62.1753 19.1178 61.5859 18.9078 60.8888 18.9078C60.2297 18.9078 59.672 19.1114 59.2157 19.5187C58.772 19.9133 58.4995 20.4669 58.3981 21.1796H63.3984Z" fill="#20B7F7"/>
  <path d="M67.4137 22.1342C67.4137 21.0651 67.6228 20.1169 68.0411 19.2896C68.472 18.4623 69.0487 17.826 69.7712 17.3805C70.5064 16.9351 71.3239 16.7123 72.2238 16.7123C73.0097 16.7123 73.6942 16.8714 74.2772 17.1896C74.8729 17.5078 75.3483 17.9087 75.7032 18.3923V16.8842H78.3839V27.4605H75.7032V25.9142C75.3609 26.4105 74.8856 26.8242 74.2772 27.1551C73.6815 27.4733 72.9907 27.6323 72.2048 27.6323C71.3176 27.6323 70.5064 27.4033 69.7712 26.9451C69.0487 26.4869 68.472 25.8442 68.0411 25.0169C67.6228 24.1769 67.4137 23.216 67.4137 22.1342ZM75.7032 22.1723C75.7032 21.5233 75.5764 20.9696 75.3229 20.5114C75.0694 20.0405 74.7272 19.6842 74.2962 19.4423C73.8653 19.1878 73.4026 19.0605 72.9083 19.0605C72.414 19.0605 71.9577 19.1814 71.5394 19.4233C71.1211 19.6651 70.7789 20.0214 70.5127 20.4923C70.2592 20.9505 70.1325 21.4978 70.1325 22.1342C70.1325 22.7705 70.2592 23.3305 70.5127 23.8142C70.7789 24.2851 71.1211 24.6478 71.5394 24.9023C71.9703 25.1569 72.4266 25.2842 72.9083 25.2842C73.4026 25.2842 73.8653 25.1632 74.2962 24.9214C74.7272 24.6669 75.0694 24.3105 75.3229 23.8523C75.5764 23.3814 75.7032 22.8214 75.7032 22.1723Z" fill="#20B7F7"/>
  <path d="M83.6454 18.526C83.9876 17.966 84.4312 17.5269 84.9762 17.2087C85.5339 16.8905 86.1677 16.7314 86.8775 16.7314V19.5378H86.174C85.3375 19.5378 84.7037 19.7351 84.2728 20.1296C83.8545 20.5242 83.6454 21.2114 83.6454 22.1914V27.4605H80.9836V16.8842H83.6454V18.526Z" fill="#20B7F7"/>
  <path d="M94.5072 16.7314C95.762 16.7314 96.776 17.1323 97.5492 17.9342C98.3224 18.7233 98.709 19.8305 98.709 21.256V27.4605H96.0472V21.6187C96.0472 20.7787 95.8381 20.136 95.4198 19.6905C95.0015 19.2323 94.4311 19.0033 93.7087 19.0033C92.9735 19.0033 92.3905 19.2323 91.9595 19.6905C91.5412 20.136 91.3321 20.7787 91.3321 21.6187V27.4605H88.6703V16.8842H91.3321V18.2014C91.687 17.7433 92.137 17.3869 92.682 17.1323C93.2397 16.8651 93.8481 16.7314 94.5072 16.7314Z" fill="#20B7F7"/>
  <path d="M100.556 22.1342C100.556 21.0651 100.765 20.1169 101.183 19.2896C101.614 18.4623 102.191 17.826 102.913 17.3805C103.648 16.9351 104.466 16.7123 105.366 16.7123C106.152 16.7123 106.836 16.8714 107.419 17.1896C108.015 17.5078 108.49 17.9087 108.845 18.3923V16.8842H111.526V27.4605H108.845V25.9142C108.503 26.4105 108.028 26.8242 107.419 27.1551C106.824 27.4733 106.133 27.6323 105.347 27.6323C104.46 27.6323 103.648 27.4033 102.913 26.9451C102.191 26.4869 101.614 25.8442 101.183 25.0169C100.765 24.1769 100.556 23.216 100.556 22.1342ZM108.845 22.1723C108.845 21.5233 108.718 20.9696 108.465 20.5114C108.211 20.0405 107.869 19.6842 107.438 19.4423C107.007 19.1878 106.545 19.0605 106.05 19.0605C105.556 19.0605 105.1 19.1814 104.681 19.4233C104.263 19.6651 103.921 20.0214 103.655 20.4923C103.401 20.9505 103.275 21.4978 103.275 22.1342C103.275 22.7705 103.401 23.3305 103.655 23.8142C103.921 24.2851 104.263 24.6478 104.681 24.9023C105.112 25.1569 105.569 25.2842 106.05 25.2842C106.545 25.2842 107.007 25.1632 107.438 24.9214C107.869 24.6669 108.211 24.3105 108.465 23.8523C108.718 23.3814 108.845 22.8214 108.845 22.1723Z" fill="#20B7F7"/>
  <path d="M22.0246 29.8082C23.6048 27.6772 24.5453 25.0156 24.5453 22.1314V21.7229H22.0452V22.1314C22.0452 26.4531 19.3949 30.147 15.6836 31.5778C15.9906 31.6098 16.3021 31.6265 16.6172 31.6265C18.6366 31.6264 20.5052 30.9502 22.0246 29.8082Z" fill="#20B7F7"/>
  <path d="M24.545 7.36133H22.0449V9.7549H24.545V7.36133Z" fill="#20B7F7"/>
  <path d="M28.8887 9.75537H26.3887V12.1489H28.8887V9.75537Z" fill="#20B7F7"/>
  <path d="M24.545 12.1467H22.0449V14.5402H24.545V12.1467Z" fill="#20B7F7"/>
  <path d="M28.8887 14.5403H26.3887V16.9339H28.8887V14.5403Z" fill="#20B7F7"/>
  <path d="M24.545 16.9343H22.0449V19.3279H24.545V16.9343Z" fill="#20B7F7"/>
  <path d="M12.7967 34.7787C10.2599 33.9616 8.05922 32.3526 6.46623 30.2341C4.06191 28.3958 2.49998 25.4485 2.49998 22.1311V19.2593V18.5559V9.94014H4.34419V22.1311C4.34419 29.1119 9.84953 34.791 16.6166 34.791C23.3835 34.791 28.8888 29.1119 28.8888 22.1311V21.7226V19.329H26.3888V21.7226V22.1311C26.3888 27.6898 22.005 32.2122 16.6166 32.2122C11.2279 32.2122 6.84406 27.6898 6.84406 22.1311V7.36133H0.699686H0V18.5559V19.2593V22.1311C0 29.1119 5.50534 34.791 12.2723 34.791C12.4481 34.791 12.6227 34.7863 12.7967 34.7787Z" fill="#20B7F7"/>
</svg>
