<svg width="12" height="16" viewBox="0 0 12 16" fill="none" xmlns="http://www.w3.org/2000/svg">
<path d="M6.00039 7.6C5.46996 7.6 4.96125 7.38929 4.58618 7.01421C4.2111 6.63914 4.00039 6.13043 4.00039 5.6C4.00039 5.06957 4.2111 4.56086 4.58618 4.18579C4.96125 3.81071 5.46996 3.6 6.00039 3.6C6.53082 3.6 7.03953 3.81071 7.4146 4.18579C7.78968 4.56086 8.00039 5.06957 8.00039 5.6C8.00039 5.86264 7.94866 6.12272 7.84815 6.36537C7.74764 6.60802 7.60032 6.8285 7.4146 7.01421C7.22889 7.19993 7.00841 7.34725 6.76576 7.44776C6.52311 7.54827 6.26303 7.6 6.00039 7.6ZM6.00039 0C4.51518 0 3.0908 0.589998 2.04059 1.6402C0.990389 2.69041 0.400391 4.11479 0.400391 5.6C0.400391 8.85936 3.77291 13.3232 5.28354 15.1592C5.65993 15.6166 6.34085 15.6166 6.71724 15.1592C8.22788 13.3232 11.6004 8.85936 11.6004 5.6C11.6004 4.11479 11.0104 2.69041 9.96019 1.6402C8.90998 0.589998 7.4856 0 6.00039 0Z" fill="#20B7F7"/>
</svg>
