<svg width="24" height="17" viewBox="0 0 24 17" fill="none" xmlns="http://www.w3.org/2000/svg">
  <path fill-rule="evenodd" clip-rule="evenodd"
        d="M0.0498226 2.45261C0.0171005 2.63009 0 2.81305 0 3V14C0 15.6569 1.34315 17 3 17H21C22.6569 17 24 15.6569 24 14V3C24 2.81308 23.9829 2.63015 23.9502 2.45269L13.5518 10.6847C12.6425 11.4046 11.3576 11.4046 10.4483 10.6847L0.0498226 2.45261ZM21.9996 0.170577C21.687 0.0601074 21.3505 0 21 0H3C2.64953 0 2.3131 0.0600967 2.00045 0.170547L12.0001 8.08691L21.9996 0.170577Z"
        fill="#20B7F7"/>
</svg>
