<svg width="47" height="44" viewBox="0 0 47 44" fill="none" xmlns="http://www.w3.org/2000/svg">
  <path
    d="M35.8216 36.007C38.3919 32.5886 39.9216 28.3192 39.9216 23.6927V23.0374H35.8552V23.6927C35.8552 30.625 31.5444 36.5504 25.5078 38.8455C26.0072 38.897 26.5138 38.9236 27.0263 38.9236C30.311 38.9236 33.3502 37.8389 35.8216 36.007Z"
    fill="white"/>
  <path d="M39.9219 0H35.8555V3.83953H39.9219V0Z" fill="white"/>
  <path d="M46.9882 3.8396H42.9219V7.67901H46.9882V3.8396Z" fill="white"/>
  <path d="M39.9219 7.67896H35.8555V11.5184H39.9219V7.67896Z" fill="white"/>
  <path d="M46.9882 11.5188H42.9219V15.3583H46.9882V11.5188Z" fill="white"/>
  <path d="M39.9219 15.3582H35.8555V19.1976H39.9219V15.3582Z" fill="white"/>
  <path
    d="M20.8142 43.9806C16.688 42.6701 13.1086 40.089 10.5175 36.6908C6.6068 33.7418 4.06628 29.0141 4.06628 23.6928V19.086V17.9577V4.13716H7.06595V23.6927C7.06595 34.8905 16.0205 44.0004 27.0274 44.0004C38.0339 44.0004 46.9884 34.8905 46.9884 23.6927V23.0374V19.1979H42.9221V23.0374V23.6927C42.9221 32.6093 35.7917 39.8637 27.0273 39.8637C18.2625 39.8637 11.1321 32.6093 11.1321 23.6927V0.000488281H1.13806H0V17.9577V19.086V23.6927C0 34.8905 8.95459 44.0004 19.9613 44.0004C20.2473 44.0004 20.5312 43.9928 20.8142 43.9806Z"
    fill="white"/>
</svg>
