<svg width="16" height="16" viewBox="0 0 16 16" fill="none" xmlns="http://www.w3.org/2000/svg">
  <path fill-rule="evenodd" clip-rule="evenodd"
        d="M3.10553 0.985182C2.48891 0.368565 1.51417 0.343571 0.928381 0.929358C0.342595 1.51514 0.367588 2.48989 0.984206 3.1065L5.87836 8.00066L0.984467 12.8945C0.36785 13.5112 0.342856 14.4859 0.928643 15.0717C1.51443 15.6575 2.48917 15.6325 3.10579 15.0159L7.99968 10.122L12.8934 15.0157C13.51 15.6323 14.4847 15.6573 15.0705 15.0715C15.6563 14.4857 15.6313 13.511 15.0147 12.8943L10.121 8.00065L15.015 3.1067C15.6316 2.49008 15.6566 1.51534 15.0708 0.929555C14.485 0.343768 13.5103 0.368762 12.8936 0.985379L7.99968 5.87933L3.10553 0.985182Z"
        fill="#829AB2"/>
</svg>
