<svg width="16" height="17" viewBox="0 0 16 17" fill="none" xmlns="http://www.w3.org/2000/svg">
  <path fill-rule="evenodd" clip-rule="evenodd" d="M11.4769 3.60891C9.13367 1.93898 5.85958 2.15513 3.75736 4.25736C1.65513 6.35958 1.43898 9.63367 3.10891 11.9769L11.4769 3.60891ZM12.8911 5.02313L4.52313 13.3911C6.86633 15.061 10.1404 14.8449 12.2426 12.7426C14.3449 10.6404 14.561 7.36633 12.8911 5.02313ZM2.34315 2.84315C5.46734 -0.281049 10.5327 -0.281049 13.6569 2.84315C16.781 5.96734 16.781 11.0327 13.6569 14.1569C10.5327 17.281 5.46734 17.281 2.34315 14.1569C-0.781049 11.0327 -0.781049 5.96734 2.34315 2.84315Z" fill="#F74420"/>
</svg>
