<svg width="16" height="16" viewBox="0 0 16 16" fill="none" xmlns="http://www.w3.org/2000/svg">
  <path d="M1.06882 5.27529H11.7571C12.3449 5.27529 12.8259 5.75626 12.8259 6.34412C12.8259 6.93197 12.3449 7.41294 11.7571 7.41294H1.06882C0.48097 7.41294 0 6.93197 0 6.34412C0 5.75626 0.48097 5.27529 1.06882 5.27529ZM1.06882 1H11.7571C12.3449 1 12.8259 1.48097 12.8259 2.06882C12.8259 2.65668 12.3449 3.13765 11.7571 3.13765H1.06882C0.48097 3.13765 0 2.65668 0 2.06882C0 1.48097 0.48097 1 1.06882 1ZM1.06882 9.55058H7.48176C8.06961 9.55058 8.55058 10.0316 8.55058 10.6194C8.55058 11.2073 8.06961 11.6882 7.48176 11.6882H1.06882C0.48097 11.6882 0 11.2073 0 10.6194C0 10.0316 0.48097 9.55058 1.06882 9.55058ZM10.6882 10.4911V15.0123C10.6882 15.4291 11.1371 15.6856 11.5005 15.4719L15.2735 13.206C15.6155 13.0029 15.6155 12.5005 15.2735 12.2868L11.5005 10.0209C11.418 9.97374 11.3246 9.94908 11.2296 9.94935C11.1346 9.94963 11.0414 9.97482 10.9591 10.0224C10.8769 10.07 10.8086 10.1384 10.7611 10.2206C10.7136 10.3029 10.6884 10.3961 10.6882 10.4911Z" fill="#20B7F7"/>
</svg>
