<svg width="24" height="24" viewBox="0 0 24 24" fill="none" xmlns="http://www.w3.org/2000/svg">
  <circle opacity="0.22" cx="12" cy="12" r="12" fill="#42DB92"/>
  <path d="M10.3431 10.847C10.3431 10.2947 10.7908 9.84698 11.3431 9.84698L12.3725 9.84698C12.9248 9.84698 13.3725 10.2947 13.3725 10.847L13.3725 18.4199C13.3725 18.9722 12.9248 19.4199 12.3725 19.4199L11.3431 19.4199C10.7908 19.4199 10.3431 18.9722 10.3431 18.4199L10.3431 10.847ZM13.7158 6.85796C13.7158 7.11378 13.6687 7.35613 13.5744 7.58502C13.4802 7.81391 13.3523 8.00914 13.1907 8.17071C13.0157 8.34574 12.8137 8.48038 12.5848 8.57463C12.356 8.66888 12.1136 8.716 11.8578 8.716C11.602 8.716 11.3596 8.66888 11.1307 8.57463C10.9018 8.48038 10.7066 8.34574 10.545 8.17071C10.37 8.00914 10.2354 7.81391 10.1411 7.58502C10.0469 7.35613 9.99974 7.11378 9.99974 6.85796C9.99974 6.60214 10.0469 6.35979 10.1411 6.1309C10.2354 5.90201 10.37 5.70005 10.545 5.52502C10.7066 5.36345 10.9018 5.23554 11.1307 5.14129C11.3596 5.04705 11.602 4.99992 11.8578 4.99992C12.1136 4.99992 12.356 5.04705 12.5848 5.14129C12.8137 5.23554 13.0157 5.36345 13.1907 5.52502C13.3523 5.70005 13.4802 5.90201 13.5744 6.1309C13.6687 6.35979 13.7158 6.60215 13.7158 6.85796Z" fill="#42DB92"/>
</svg>
