<svg width="30" height="28" viewBox="0 0 30 28" fill="none" xmlns="http://www.w3.org/2000/svg">
  <path d="M13.4064 1.73039C13.9445 0.312526 16.0548 0.312527 16.5929 1.73039L19.0994 8.33505C19.3349 8.95546 19.9449 9.37657 20.6386 9.39762L28.0239 9.62176C29.6093 9.66988 30.2614 11.5769 29.0085 12.5013L23.1724 16.8074C22.6242 17.2119 22.3912 17.8933 22.5845 18.5267L24.6423 25.2699C25.0841 26.7175 23.3768 27.8961 22.0644 27.0495L15.9509 23.1062C15.3767 22.7357 14.6227 22.7357 14.0484 23.1062L7.93497 27.0495C6.62256 27.8961 4.91527 26.7175 5.35704 25.2699L7.41486 18.5267C7.60816 17.8933 7.37516 17.2119 6.82695 16.8074L0.990811 12.5013C-0.262068 11.5769 0.39006 9.66988 1.9755 9.62176L9.36074 9.39762C10.0545 9.37657 10.6645 8.95545 10.8999 8.33505L13.4064 1.73039Z" fill="#F2B71E"/>
</svg>
