<svg width="42" height="32" viewBox="0 0 42 32" fill="none" xmlns="http://www.w3.org/2000/svg">
  <mask id="path-1-outside-1" maskUnits="userSpaceOnUse" x="18.0254" y="0" width="24" height="33" fill="black">
    <rect fill="white" x="18.0254" width="24" height="33"/>
    <path d="M24.6622 29.92C24.4576 29.8336 24.2875 29.6816 24.1789 29.4878C24.0702 29.2941 24.0292 29.0697 24.0622 28.85L25.8822 17.0002H21.0523C20.8991 17.0043 20.7471 16.9732 20.6079 16.9092C20.4687 16.8453 20.3461 16.7502 20.2495 16.6314C20.1528 16.5125 20.0848 16.373 20.0506 16.2237C20.0164 16.0744 20.017 15.9192 20.0523 15.7702L23.0522 2.77035C23.105 2.54662 23.2333 2.34791 23.4154 2.20767C23.5976 2.06743 23.8224 1.99421 24.0522 2.00036H34.0521C34.2015 1.99985 34.3491 2.03282 34.4841 2.09685C34.6191 2.16088 34.738 2.25433 34.8321 2.37035C34.9275 2.48768 34.9951 2.62514 35.0298 2.77236C35.0644 2.91959 35.0652 3.07276 35.0321 3.22034L33.3021 11.0002H38.0521C38.2395 10.9999 38.4232 11.0522 38.5824 11.1512C38.7415 11.2502 38.8696 11.3919 38.952 11.5602C39.0237 11.7218 39.0513 11.8994 39.032 12.0751C39.0126 12.2507 38.9471 12.4181 38.842 12.5602L25.8422 29.56C25.7544 29.6902 25.637 29.798 25.4998 29.8744C25.3625 29.9508 25.2092 29.9939 25.0522 30C24.9184 29.9975 24.7862 29.9704 24.6622 29.92Z"/>
  </mask>
  <path d="M24.6622 29.92C24.4576 29.8336 24.2875 29.6816 24.1789 29.4878C24.0702 29.2941 24.0292 29.0697 24.0622 28.85L25.8822 17.0002H21.0523C20.8991 17.0043 20.7471 16.9732 20.6079 16.9092C20.4687 16.8453 20.3461 16.7502 20.2495 16.6314C20.1528 16.5125 20.0848 16.373 20.0506 16.2237C20.0164 16.0744 20.017 15.9192 20.0523 15.7702L23.0522 2.77035C23.105 2.54662 23.2333 2.34791 23.4154 2.20767C23.5976 2.06743 23.8224 1.99421 24.0522 2.00036H34.0521C34.2015 1.99985 34.3491 2.03282 34.4841 2.09685C34.6191 2.16088 34.738 2.25433 34.8321 2.37035C34.9275 2.48768 34.9951 2.62514 35.0298 2.77236C35.0644 2.91959 35.0652 3.07276 35.0321 3.22034L33.3021 11.0002H38.0521C38.2395 10.9999 38.4232 11.0522 38.5824 11.1512C38.7415 11.2502 38.8696 11.3919 38.952 11.5602C39.0237 11.7218 39.0513 11.8994 39.032 12.0751C39.0126 12.2507 38.9471 12.4181 38.842 12.5602L25.8422 29.56C25.7544 29.6902 25.637 29.798 25.4998 29.8744C25.3625 29.9508 25.2092 29.9939 25.0522 30C24.9184 29.9975 24.7862 29.9704 24.6622 29.92Z" fill="#DAE4ED"/>
  <path d="M24.0622 28.85L22.0854 28.5464L22.0845 28.5526L24.0622 28.85ZM25.8822 17.0002L27.859 17.3038L28.2128 15.0002H25.8822V17.0002ZM21.0523 17.0002V15.0002H21.0254L20.9985 15.0009L21.0523 17.0002ZM20.0523 15.7702L21.9985 16.2309L22.0011 16.2199L20.0523 15.7702ZM23.0522 2.77035L21.1057 2.31106L21.1035 2.32063L23.0522 2.77035ZM24.0522 2.00036L23.9988 3.99964L24.0255 4.00036H24.0522V2.00036ZM34.0521 2.00036V4.00037L34.0589 4.00035L34.0521 2.00036ZM34.8321 2.37035L33.2789 3.63034L33.2806 3.63246L34.8321 2.37035ZM35.0321 3.22034L33.0806 2.78245L33.0798 2.78622L35.0321 3.22034ZM33.3021 11.0002L31.3498 10.5661L30.8085 13.0002H33.3021V11.0002ZM38.0521 11.0002V13.0002L38.0561 13.0002L38.0521 11.0002ZM38.952 11.5602L40.7802 10.7492L40.7648 10.7144L40.748 10.6802L38.952 11.5602ZM38.842 12.5602L40.4308 13.7751L40.4406 13.7623L40.4502 13.7492L38.842 12.5602ZM25.8422 29.56L24.2535 28.3451L24.2174 28.3923L24.1842 28.4415L25.8422 29.56ZM25.0522 30L25.0149 31.9997L25.0726 32.0007L25.1302 31.9985L25.0522 30ZM25.44 28.0774C25.6446 28.1638 25.8147 28.3159 25.9233 28.5096L22.4344 30.466C22.7604 31.0473 23.2705 31.5034 23.8845 31.7626L25.44 28.0774ZM25.9233 28.5096C26.032 28.7034 26.073 28.9278 26.04 29.1474L22.0845 28.5526C21.9854 29.2116 22.1085 29.8848 22.4344 30.466L25.9233 28.5096ZM26.0391 29.1536L27.859 17.3038L23.9054 16.6966L22.0854 28.5464L26.0391 29.1536ZM25.8822 15.0002H21.0523V19.0002H25.8822V15.0002ZM20.9985 15.0009C21.1516 14.9968 21.3036 15.0279 21.4428 15.0918L19.773 18.7266C20.1906 18.9185 20.6467 19.0118 21.1061 18.9994L20.9985 15.0009ZM21.4428 15.0918C21.582 15.1558 21.7047 15.2508 21.8013 15.3697L18.6976 17.893C18.9875 18.2496 19.3554 18.5348 19.773 18.7266L21.4428 15.0918ZM21.8013 15.3697C21.8979 15.4886 21.966 15.628 22.0002 15.7773L18.1011 16.6701C18.2036 17.1181 18.4077 17.5365 18.6976 17.893L21.8013 15.3697ZM22.0002 15.7773C22.0344 15.9267 22.0338 16.0818 21.9985 16.2309L18.1061 15.3095C18.0002 15.7566 17.9985 16.2222 18.1011 16.6701L22.0002 15.7773ZM22.0011 16.2199L25.001 3.22007L21.1035 2.32063L18.1035 15.3205L22.0011 16.2199ZM24.9988 3.22963C24.946 3.45337 24.8177 3.65208 24.6356 3.79233L22.1952 0.62301C21.6488 1.04374 21.2641 1.63988 21.1057 2.31106L24.9988 3.22963ZM24.6356 3.79233C24.4535 3.93257 24.2286 4.00579 23.9988 3.99964L24.1057 0.00107181C23.4163 -0.0173583 22.7416 0.202278 22.1952 0.62301L24.6356 3.79233ZM24.0522 4.00036H34.0521V0.000357389H24.0522V4.00036ZM34.0589 4.00035C33.9095 4.00085 33.7619 3.96788 33.6269 3.90385L35.3413 0.289845C34.9363 0.0977598 34.4935 -0.0011549 34.0453 0.000368953L34.0589 4.00035ZM33.6269 3.90385C33.4919 3.83983 33.373 3.74637 33.2789 3.63034L36.3853 1.11036C36.1029 0.762299 35.7462 0.481927 35.3413 0.289845L33.6269 3.90385ZM33.2806 3.63246C33.1852 3.51513 33.1176 3.37767 33.0829 3.23044L36.9766 2.31429C36.8727 1.8726 36.6699 1.46024 36.3836 1.10824L33.2806 3.63246ZM33.0829 3.23044C33.0483 3.0832 33.0475 2.93003 33.0806 2.78245L36.9836 3.65823C37.0829 3.21549 37.0805 2.75598 36.9766 2.31429L33.0829 3.23044ZM33.0798 2.78622L31.3498 10.5661L35.2544 11.4344L36.9844 3.65447L33.0798 2.78622ZM33.3021 13.0002H38.0521V9.00024H33.3021V13.0002ZM38.0561 13.0002C37.8686 13.0006 37.6849 12.9483 37.5258 12.8493L39.639 9.45307C39.1616 9.15603 38.6103 8.99912 38.0481 9.00025L38.0561 13.0002ZM37.5258 12.8493C37.3666 12.7503 37.2385 12.6085 37.156 12.4402L40.748 10.6802C40.5007 10.1753 40.1164 9.75011 39.639 9.45307L37.5258 12.8493ZM37.1239 12.3712C37.0522 12.2097 37.0246 12.0321 37.0439 11.8564L41.02 12.2937C41.0779 11.7668 40.9952 11.2338 40.7802 10.7492L37.1239 12.3712ZM37.0439 11.8564C37.0633 11.6807 37.1288 11.5133 37.2339 11.3712L40.4502 13.7492C40.7654 13.3229 40.962 12.8207 41.02 12.2937L37.0439 11.8564ZM37.2533 11.3453L24.2535 28.3451L27.4309 30.7749L40.4308 13.7751L37.2533 11.3453ZM24.1842 28.4415C24.2721 28.3113 24.3894 28.2036 24.5266 28.1271L26.473 31.6217C26.8847 31.3923 27.2366 31.0692 27.5002 30.6785L24.1842 28.4415ZM24.5266 28.1271C24.6639 28.0507 24.8172 28.0077 24.9742 28.0015L25.1302 31.9985C25.6012 31.9801 26.0612 31.851 26.473 31.6217L24.5266 28.1271ZM25.0896 28.0003C25.2013 28.0024 25.3116 28.0251 25.4152 28.0671L23.9093 31.7729C24.2608 31.9157 24.6356 31.9926 25.0149 31.9997L25.0896 28.0003Z" fill="#F4F7FA" mask="url(#path-1-outside-1)"/>
  <mask id="path-3-outside-2" maskUnits="userSpaceOnUse" x="9.0127" y="0" width="24" height="33" fill="black">
    <rect fill="white" x="9.0127" width="24" height="33"/>
    <path d="M15.6495 29.92C15.4449 29.8336 15.2748 29.6816 15.1662 29.4878C15.0575 29.2941 15.0165 29.0697 15.0495 28.85L16.8695 17.0002H12.0396C11.8865 17.0043 11.7344 16.9732 11.5952 16.9092C11.456 16.8453 11.3334 16.7502 11.2368 16.6314C11.1401 16.5125 11.0721 16.373 11.0379 16.2237C11.0037 16.0744 11.0043 15.9192 11.0396 15.7702L14.0396 2.77035C14.0923 2.54662 14.2206 2.34791 14.4027 2.20767C14.5849 2.06743 14.8098 1.99421 15.0395 2.00036H25.0394C25.1888 1.99985 25.3364 2.03282 25.4714 2.09685C25.6064 2.16088 25.7253 2.25433 25.8194 2.37035C25.9149 2.48768 25.9824 2.62514 26.0171 2.77236C26.0517 2.91959 26.0525 3.07276 26.0194 3.22034L24.2894 11.0002H29.0394C29.2268 10.9999 29.4105 11.0522 29.5697 11.1512C29.7288 11.2502 29.8569 11.3919 29.9394 11.5602C30.011 11.7218 30.0386 11.8994 30.0193 12.0751C29.9999 12.2507 29.9344 12.4181 29.8294 12.5602L16.8295 29.56C16.7417 29.6902 16.6243 29.798 16.4871 29.8744C16.3498 29.9508 16.1965 29.9939 16.0395 30C15.9057 29.9975 15.7735 29.9704 15.6495 29.92Z"/>
  </mask>
  <path d="M15.6495 29.92C15.4449 29.8336 15.2748 29.6816 15.1662 29.4878C15.0575 29.2941 15.0165 29.0697 15.0495 28.85L16.8695 17.0002H12.0396C11.8865 17.0043 11.7344 16.9732 11.5952 16.9092C11.456 16.8453 11.3334 16.7502 11.2368 16.6314C11.1401 16.5125 11.0721 16.373 11.0379 16.2237C11.0037 16.0744 11.0043 15.9192 11.0396 15.7702L14.0396 2.77035C14.0923 2.54662 14.2206 2.34791 14.4027 2.20767C14.5849 2.06743 14.8098 1.99421 15.0395 2.00036H25.0394C25.1888 1.99985 25.3364 2.03282 25.4714 2.09685C25.6064 2.16088 25.7253 2.25433 25.8194 2.37035C25.9149 2.48768 25.9824 2.62514 26.0171 2.77236C26.0517 2.91959 26.0525 3.07276 26.0194 3.22034L24.2894 11.0002H29.0394C29.2268 10.9999 29.4105 11.0522 29.5697 11.1512C29.7288 11.2502 29.8569 11.3919 29.9394 11.5602C30.011 11.7218 30.0386 11.8994 30.0193 12.0751C29.9999 12.2507 29.9344 12.4181 29.8294 12.5602L16.8295 29.56C16.7417 29.6902 16.6243 29.798 16.4871 29.8744C16.3498 29.9508 16.1965 29.9939 16.0395 30C15.9057 29.9975 15.7735 29.9704 15.6495 29.92Z" fill="#DAE4ED"/>
  <path d="M15.0495 28.85L13.0727 28.5464L13.0718 28.5526L15.0495 28.85ZM16.8695 17.0002L18.8463 17.3038L19.2001 15.0002H16.8695V17.0002ZM12.0396 17.0002V15.0002H12.0127L11.9858 15.0009L12.0396 17.0002ZM11.0396 15.7702L12.9858 16.2309L12.9884 16.2199L11.0396 15.7702ZM14.0396 2.77035L12.093 2.31106L12.0908 2.32063L14.0396 2.77035ZM15.0395 2.00036L14.9861 3.99964L15.0128 4.00036H15.0395V2.00036ZM25.0394 2.00036V4.00037L25.0462 4.00035L25.0394 2.00036ZM25.8194 2.37035L24.2662 3.63034L24.2679 3.63246L25.8194 2.37035ZM26.0194 3.22034L24.0679 2.78245L24.0671 2.78622L26.0194 3.22034ZM24.2894 11.0002L22.3371 10.5661L21.7958 13.0002H24.2894V11.0002ZM29.0394 11.0002V13.0002L29.0434 13.0002L29.0394 11.0002ZM29.9394 11.5602L31.7675 10.7492L31.7521 10.7144L31.7353 10.6802L29.9394 11.5602ZM29.8294 12.5602L31.4181 13.7751L31.4279 13.7623L31.4375 13.7492L29.8294 12.5602ZM16.8295 29.56L15.2408 28.3451L15.2047 28.3923L15.1715 28.4415L16.8295 29.56ZM16.0395 30L16.0022 31.9997L16.0599 32.0007L16.1175 31.9985L16.0395 30ZM16.4273 28.0774C16.6319 28.1638 16.802 28.3159 16.9106 28.5096L13.4217 30.466C13.7477 31.0473 14.2578 31.5034 14.8718 31.7626L16.4273 28.0774ZM16.9106 28.5096C17.0193 28.7034 17.0603 28.9278 17.0273 29.1474L13.0718 28.5526C12.9727 29.2116 13.0958 29.8848 13.4217 30.466L16.9106 28.5096ZM17.0264 29.1536L18.8463 17.3038L14.8927 16.6966L13.0727 28.5464L17.0264 29.1536ZM16.8695 15.0002H12.0396V19.0002H16.8695V15.0002ZM11.9858 15.0009C12.1389 14.9968 12.2909 15.0279 12.4301 15.0918L10.7603 18.7266C11.1779 18.9185 11.634 19.0118 12.0934 18.9994L11.9858 15.0009ZM12.4301 15.0918C12.5693 15.1558 12.692 15.2508 12.7886 15.3697L9.68493 17.893C9.97482 18.2496 10.3427 18.5348 10.7603 18.7266L12.4301 15.0918ZM12.7886 15.3697C12.8852 15.4886 12.9533 15.628 12.9875 15.7773L9.08837 16.6701C9.19094 17.1181 9.39504 17.5365 9.68493 17.893L12.7886 15.3697ZM12.9875 15.7773C13.0217 15.9267 13.0211 16.0818 12.9858 16.2309L9.09338 15.3095C8.98752 15.7566 8.98581 16.2222 9.08837 16.6701L12.9875 15.7773ZM12.9884 16.2199L15.9883 3.22007L12.0908 2.32063L9.09081 15.3205L12.9884 16.2199ZM15.9861 3.22963C15.9333 3.45337 15.8051 3.65208 15.6229 3.79233L13.1825 0.62301C12.6361 1.04374 12.2514 1.63988 12.093 2.31106L15.9861 3.22963ZM15.6229 3.79233C15.4408 3.93257 15.2159 4.00579 14.9861 3.99964L15.093 0.00107181C14.4036 -0.0173583 13.7289 0.202278 13.1825 0.62301L15.6229 3.79233ZM15.0395 4.00036H25.0394V0.000357389H15.0395V4.00036ZM25.0462 4.00035C24.8968 4.00085 24.7492 3.96788 24.6142 3.90385L26.3286 0.289845C25.9236 0.0977598 25.4808 -0.0011549 25.0326 0.000368953L25.0462 4.00035ZM24.6142 3.90385C24.4792 3.83983 24.3603 3.74637 24.2662 3.63034L27.3726 1.11036C27.0902 0.762299 26.7335 0.481927 26.3286 0.289845L24.6142 3.90385ZM24.2679 3.63246C24.1725 3.51513 24.1049 3.37767 24.0702 3.23044L27.9639 2.31429C27.86 1.8726 27.6572 1.46024 27.3709 1.10824L24.2679 3.63246ZM24.0702 3.23044C24.0356 3.0832 24.0348 2.93003 24.0679 2.78245L27.9709 3.65823C28.0702 3.21549 28.0678 2.75598 27.9639 2.31429L24.0702 3.23044ZM24.0671 2.78622L22.3371 10.5661L26.2417 11.4344L27.9717 3.65447L24.0671 2.78622ZM24.2894 13.0002H29.0394V9.00024H24.2894V13.0002ZM29.0434 13.0002C28.8559 13.0006 28.6722 12.9483 28.5131 12.8493L30.6263 9.45307C30.1489 9.15603 29.5976 8.99912 29.0354 9.00025L29.0434 13.0002ZM28.5131 12.8493C28.3539 12.7503 28.2258 12.6085 28.1434 12.4402L31.7353 10.6802C31.488 10.1753 31.1037 9.75011 30.6263 9.45307L28.5131 12.8493ZM28.1112 12.3712C28.0395 12.2097 28.0119 12.0321 28.0313 11.8564L32.0073 12.2937C32.0652 11.7668 31.9825 11.2338 31.7675 10.7492L28.1112 12.3712ZM28.0313 11.8564C28.0506 11.6807 28.1161 11.5133 28.2212 11.3712L31.4375 13.7492C31.7527 13.3229 31.9493 12.8207 32.0073 12.2937L28.0313 11.8564ZM28.2406 11.3453L15.2408 28.3451L18.4182 30.7749L31.4181 13.7751L28.2406 11.3453ZM15.1715 28.4415C15.2594 28.3113 15.3767 28.2036 15.5139 28.1271L17.4603 31.6217C17.872 31.3923 18.2239 31.0692 18.4875 30.6785L15.1715 28.4415ZM15.5139 28.1271C15.6512 28.0507 15.8045 28.0077 15.9615 28.0015L16.1175 31.9985C16.5885 31.9801 17.0485 31.851 17.4603 31.6217L15.5139 28.1271ZM16.0769 28.0003C16.1886 28.0024 16.2989 28.0251 16.4025 28.0671L14.8966 31.7729C15.2481 31.9157 15.6229 31.9926 16.0022 31.9997L16.0769 28.0003Z" fill="#F4F7FA" mask="url(#path-3-outside-2)"/>
  <mask id="path-5-outside-3" maskUnits="userSpaceOnUse" x="0" y="0" width="24" height="33" fill="black">
    <rect fill="white" width="24" height="33"/>
    <path d="M6.63684 29.92C6.43219 29.8336 6.26214 29.6816 6.1535 29.4878C6.04485 29.2941 6.00381 29.0697 6.03684 28.85L7.85682 17.0002H3.02688C2.87376 17.0043 2.72174 16.9732 2.58254 16.9092C2.44335 16.8453 2.32071 16.7502 2.22408 16.6314C2.12745 16.5125 2.05941 16.373 2.02522 16.2237C1.99104 16.0744 1.99161 15.9192 2.02689 15.7702L5.02686 2.77035C5.07964 2.54662 5.2079 2.34791 5.39003 2.20767C5.57217 2.06743 5.79706 1.99421 6.02684 2.00036H16.0267C16.1761 1.99985 16.3237 2.03282 16.4587 2.09685C16.5937 2.16088 16.7126 2.25433 16.8067 2.37035C16.9022 2.48768 16.9697 2.62514 17.0044 2.77236C17.039 2.91959 17.0398 3.07276 17.0067 3.22034L15.2767 11.0002H20.0267C20.2141 10.9999 20.3978 11.0522 20.557 11.1512C20.7161 11.2502 20.8442 11.3919 20.9267 11.5602C20.9983 11.7218 21.0259 11.8994 21.0066 12.0751C20.9872 12.2507 20.9217 12.4181 20.8167 12.5602L7.81682 29.56C7.72896 29.6902 7.61165 29.798 7.4744 29.8744C7.33715 29.9508 7.18382 29.9939 7.02683 30C6.89302 29.9975 6.76082 29.9704 6.63684 29.92Z"/>
  </mask>
  <path d="M6.63684 29.92C6.43219 29.8336 6.26214 29.6816 6.1535 29.4878C6.04485 29.2941 6.00381 29.0697 6.03684 28.85L7.85682 17.0002H3.02688C2.87376 17.0043 2.72174 16.9732 2.58254 16.9092C2.44335 16.8453 2.32071 16.7502 2.22408 16.6314C2.12745 16.5125 2.05941 16.373 2.02522 16.2237C1.99104 16.0744 1.99161 15.9192 2.02689 15.7702L5.02686 2.77035C5.07964 2.54662 5.2079 2.34791 5.39003 2.20767C5.57217 2.06743 5.79706 1.99421 6.02684 2.00036H16.0267C16.1761 1.99985 16.3237 2.03282 16.4587 2.09685C16.5937 2.16088 16.7126 2.25433 16.8067 2.37035C16.9022 2.48768 16.9697 2.62514 17.0044 2.77236C17.039 2.91959 17.0398 3.07276 17.0067 3.22034L15.2767 11.0002H20.0267C20.2141 10.9999 20.3978 11.0522 20.557 11.1512C20.7161 11.2502 20.8442 11.3919 20.9267 11.5602C20.9983 11.7218 21.0259 11.8994 21.0066 12.0751C20.9872 12.2507 20.9217 12.4181 20.8167 12.5602L7.81682 29.56C7.72896 29.6902 7.61165 29.798 7.4744 29.8744C7.33715 29.9508 7.18382 29.9939 7.02683 30C6.89302 29.9975 6.76082 29.9704 6.63684 29.92Z" fill="#DAE4ED"/>
  <path d="M6.03684 28.85L4.06001 28.5464L4.05908 28.5526L6.03684 28.85ZM7.85682 17.0002L9.83364 17.3038L10.1874 15.0002H7.85682V17.0002ZM3.02688 17.0002V15.0002H2.99998L2.97309 15.0009L3.02688 17.0002ZM2.02689 15.7702L3.97314 16.2309L3.97568 16.2199L2.02689 15.7702ZM5.02686 2.77035L3.08028 2.31106L3.07807 2.32063L5.02686 2.77035ZM6.02684 2.00036L5.97339 3.99964L6.00011 4.00036H6.02684V2.00036ZM16.0267 2.00036V4.00037L16.0335 4.00035L16.0267 2.00036ZM16.8067 2.37035L15.2535 3.63034L15.2552 3.63246L16.8067 2.37035ZM17.0067 3.22034L15.0552 2.78245L15.0544 2.78622L17.0067 3.22034ZM15.2767 11.0002L13.3244 10.5661L12.7831 13.0002H15.2767V11.0002ZM20.0267 11.0002V13.0002L20.0307 13.0002L20.0267 11.0002ZM20.9267 11.5602L22.7548 10.7492L22.7394 10.7144L22.7227 10.6802L20.9267 11.5602ZM20.8167 12.5602L22.4054 13.7751L22.4152 13.7623L22.4248 13.7492L20.8167 12.5602ZM7.81682 29.56L6.22811 28.3451L6.19203 28.3923L6.15881 28.4415L7.81682 29.56ZM7.02683 30L6.9895 31.9997L7.04719 32.0007L7.10484 31.9985L7.02683 30ZM7.4146 28.0774C7.61924 28.1638 7.78931 28.3159 7.89795 28.5096L4.40904 30.466C4.73497 31.0473 5.24514 31.5034 5.85908 31.7626L7.4146 28.0774ZM7.89795 28.5096C8.0066 28.7034 8.04764 28.9278 8.01461 29.1474L4.05908 28.5526C3.95998 29.2116 4.08311 29.8848 4.40904 30.466L7.89795 28.5096ZM8.01366 29.1536L9.83364 17.3038L5.88 16.6966L4.06002 28.5464L8.01366 29.1536ZM7.85682 15.0002H3.02688V19.0002H7.85682V15.0002ZM2.97309 15.0009C3.12622 14.9968 3.27825 15.0279 3.41744 15.0918L1.74764 18.7266C2.16523 18.9185 2.6213 19.0118 3.08067 18.9994L2.97309 15.0009ZM3.41744 15.0918C3.55664 15.1558 3.67929 15.2508 3.77592 15.3697L0.672234 17.893C0.962123 18.2496 1.33005 18.5348 1.74764 18.7266L3.41744 15.0918ZM3.77592 15.3697C3.87255 15.4886 3.94058 15.628 3.97477 15.7773L0.0756752 16.6701C0.178241 17.1181 0.382346 17.5365 0.672234 17.893L3.77592 15.3697ZM3.97477 15.7773C4.00896 15.9267 4.00839 16.0818 3.9731 16.2309L0.0806845 15.3095C-0.0251756 15.7566 -0.0268903 16.2222 0.0756752 16.6701L3.97477 15.7773ZM3.97568 16.2199L6.97564 3.22007L3.07807 2.32063L0.0781122 15.3205L3.97568 16.2199ZM6.97341 3.22963C6.92062 3.45337 6.79236 3.65208 6.61022 3.79233L4.16985 0.62301C3.62344 1.04374 3.23867 1.63988 3.08031 2.31106L6.97341 3.22963ZM6.61022 3.79233C6.42808 3.93257 6.20319 4.00579 5.97339 3.99964L6.08029 0.00107181C5.39092 -0.0173583 4.71625 0.202278 4.16985 0.62301L6.61022 3.79233ZM6.02684 4.00036H16.0267V0.000357389H6.02684V4.00036ZM16.0335 4.00035C15.8841 4.00085 15.7365 3.96788 15.6015 3.90385L17.3159 0.289845C16.9109 0.0977598 16.4681 -0.0011549 16.0199 0.000368953L16.0335 4.00035ZM15.6015 3.90385C15.4666 3.83983 15.3476 3.74637 15.2535 3.63034L18.3599 1.11036C18.0775 0.762299 17.7208 0.481927 17.3159 0.289845L15.6015 3.90385ZM15.2552 3.63246C15.1598 3.51513 15.0922 3.37767 15.0576 3.23044L18.9512 2.31429C18.8473 1.8726 18.6445 1.46024 18.3582 1.10824L15.2552 3.63246ZM15.0576 3.23044C15.0229 3.0832 15.0221 2.93003 15.0552 2.78245L18.9582 3.65823C19.0575 3.21549 19.0551 2.75598 18.9512 2.31429L15.0576 3.23044ZM15.0544 2.78622L13.3244 10.5661L17.229 11.4344L18.959 3.65447L15.0544 2.78622ZM15.2767 13.0002H20.0267V9.00024H15.2767V13.0002ZM20.0307 13.0002C19.8432 13.0006 19.6595 12.9483 19.5004 12.8493L21.6136 9.45307C21.1362 9.15603 20.5849 8.99912 20.0227 9.00025L20.0307 13.0002ZM19.5004 12.8493C19.3412 12.7503 19.2131 12.6085 19.1307 12.4402L22.7227 10.6802C22.4753 10.1753 22.091 9.75011 21.6136 9.45307L19.5004 12.8493ZM19.0985 12.3712C19.0268 12.2097 18.9992 12.0321 19.0186 11.8564L22.9946 12.2937C23.0525 11.7668 22.9698 11.2338 22.7548 10.7492L19.0985 12.3712ZM19.0186 11.8564C19.0379 11.6807 19.1034 11.5133 19.2085 11.3712L22.4248 13.7492C22.74 13.3229 22.9366 12.8207 22.9946 12.2937L19.0186 11.8564ZM19.2279 11.3453L6.22811 28.3451L9.40554 30.7749L22.4054 13.7751L19.2279 11.3453ZM6.15881 28.4415C6.24667 28.3113 6.36399 28.2036 6.50124 28.1271L8.44756 31.6217C8.85932 31.3923 9.21125 31.0692 9.47483 30.6785L6.15881 28.4415ZM6.50124 28.1271C6.63849 28.0507 6.79182 28.0077 6.94882 28.0015L7.10484 31.9985C7.57581 31.9801 8.03581 31.851 8.44756 31.6217L6.50124 28.1271ZM7.06416 28.0003C7.17588 28.0024 7.28625 28.0251 7.38976 28.0671L5.88391 31.7729C6.23539 31.9157 6.61017 31.9926 6.9895 31.9997L7.06416 28.0003Z" fill="#F4F7FA" mask="url(#path-5-outside-3)"/>
</svg>
