<svg width="31" height="24" viewBox="0 0 31 24" fill="none" xmlns="http://www.w3.org/2000/svg">
  <path d="M8.67385 2.00027L6.28818 11.9767C5.94995 13.3911 7.02221 14.75 8.47648 14.75H10.4191L4.36262 22.67C4.29672 22.7677 4.20874 22.8485 4.1058 22.9058C4.00286 22.9631 3.88786 22.9954 3.77012 23C3.66977 22.9981 3.57062 22.9778 3.47763 22.94C3.32415 22.8752 3.1966 22.7612 3.11512 22.6159C3.03364 22.4706 3.00286 22.3023 3.02763 22.1375L4.39262 13.2501H0.770162C0.655319 13.2532 0.541302 13.2299 0.436907 13.1819C0.332512 13.134 0.24053 13.0627 0.168057 12.9735C0.0955849 12.8844 0.0445597 12.7798 0.0189186 12.6678C-0.00672244 12.5558 -0.00629387 12.4394 0.020171 12.3276L2.27014 2.57776C2.30973 2.40997 2.40593 2.26093 2.54252 2.15575C2.67912 2.05057 2.84779 1.99566 3.02013 2.00027H8.67385Z" fill="#DAE4ED"/>
  <path d="M19.2276 22.94C19.0741 22.8752 18.9466 22.7612 18.8651 22.6159C18.7836 22.4706 18.7529 22.3023 18.7776 22.1375L20.1426 13.2501H16.5202C16.4053 13.2532 16.2913 13.2299 16.1869 13.1819C16.0825 13.134 15.9905 13.0627 15.9181 12.9735C15.8456 12.8844 15.7946 12.7798 15.7689 12.6678C15.7433 12.5558 15.7437 12.4394 15.7702 12.3276L18.0201 2.57776C18.0597 2.40997 18.1559 2.26093 18.2925 2.15575C18.4291 2.05057 18.5978 1.99566 18.7701 2.00027H26.27C26.3821 1.99989 26.4928 2.02462 26.594 2.07264C26.6953 2.12066 26.7844 2.19075 26.855 2.27776C26.9266 2.36576 26.9773 2.46885 27.0033 2.57927C27.0293 2.68969 27.0299 2.80457 27.005 2.91526L25.7075 8.75018H29.27C29.4106 8.7499 29.5484 8.78913 29.6677 8.86339C29.7871 8.93765 29.8831 9.04395 29.945 9.17018C29.9987 9.29133 30.0194 9.42456 30.0049 9.5563C29.9904 9.68804 29.9413 9.81359 29.8625 9.92017L20.1126 22.67C20.0467 22.7677 19.9587 22.8485 19.8558 22.9058C19.7529 22.9631 19.6379 22.9954 19.5201 23C19.4198 22.9981 19.3206 22.9778 19.2276 22.94Z" fill="#DAE4ED"/>
  <path d="M16.1738 2.00027L13.7882 11.9767C13.45 13.3911 14.5222 14.75 15.9765 14.75H18.3029L12.2464 22.67C12.1805 22.7677 12.0925 22.8485 11.9896 22.9058C11.8867 22.9631 11.7717 22.9954 11.6539 23C11.5536 22.9981 11.4544 22.9778 11.3614 22.94C11.2079 22.8752 11.0804 22.7612 10.9989 22.6159C10.9174 22.4706 10.8866 22.3023 10.9114 22.1375L12.2764 13.2501H8.65395C8.53911 13.2532 8.42509 13.2299 8.3207 13.1819C8.2163 13.134 8.12432 13.0627 8.05185 12.9735C7.97937 12.8844 7.92835 12.7798 7.90271 12.6678C7.87707 12.5558 7.8775 12.4394 7.90396 12.3276L10.1539 2.57776C10.1935 2.40997 10.2897 2.26093 10.4263 2.15575C10.5629 2.05057 10.7316 1.99566 10.9039 2.00027H16.1738Z" fill="#DAE4ED"/>
</svg>
