<svg width="41" height="32" viewBox="0 0 41 32" fill="none" xmlns="http://www.w3.org/2000/svg">
  <path d="M12.0651 2.00036L8.88424 15.3023C8.43327 17.1881 9.86294 19 11.802 19H14.3921L6.31682 29.56C6.22896 29.6902 6.11165 29.798 5.9744 29.8744C5.83715 29.9508 5.68382 29.9939 5.52683 30C5.39302 29.9975 5.26082 29.9704 5.13684 29.92C4.93219 29.8336 4.76214 29.6816 4.6535 29.4878C4.54485 29.2941 4.50381 29.0697 4.53684 28.85L6.35682 17.0002H1.52688C1.37376 17.0043 1.22174 16.9732 1.08254 16.9092C0.943349 16.8453 0.820706 16.7502 0.724076 16.6314C0.627447 16.5125 0.559413 16.373 0.525225 16.2237C0.491037 16.0744 0.491608 15.9192 0.526895 15.7702L3.52686 2.77035C3.57964 2.54662 3.7079 2.34791 3.89003 2.20767C4.07217 2.06743 4.29706 1.99421 4.52684 2.00036H12.0651Z" fill="#DAE4ED"/>
  <path d="M26.1368 29.92C25.9322 29.8336 25.7621 29.6816 25.6535 29.4878C25.5449 29.2941 25.5038 29.0697 25.5368 28.85L27.3568 17.0002H22.5269C22.3738 17.0043 22.2217 16.9732 22.0825 16.9092C21.9433 16.8453 21.8207 16.7502 21.7241 16.6314C21.6274 16.5125 21.5594 16.373 21.5252 16.2237C21.491 16.0744 21.4916 15.9192 21.5269 15.7702L24.5269 2.77035C24.5796 2.54662 24.7079 2.34791 24.89 2.20767C25.0722 2.06743 25.2971 1.99421 25.5268 2.00036H35.5267C35.6761 1.99985 35.8237 2.03282 35.9587 2.09685C36.0937 2.16088 36.2126 2.25433 36.3067 2.37035C36.4022 2.48768 36.4697 2.62514 36.5044 2.77236C36.539 2.91959 36.5398 3.07276 36.5067 3.22034L34.7767 11.0002H39.5267C39.7141 10.9999 39.8978 11.0522 40.057 11.1512C40.2161 11.2502 40.3442 11.3919 40.4267 11.5602C40.4983 11.7218 40.5259 11.8994 40.5066 12.0751C40.4872 12.2507 40.4217 12.4181 40.3167 12.5602L27.3168 29.56C27.229 29.6902 27.1117 29.798 26.9744 29.8744C26.8371 29.9508 26.6838 29.9939 26.5268 30C26.393 29.9975 26.2608 29.9704 26.1368 29.92Z" fill="#DAE4ED"/>
  <path d="M22.0651 2.00036L18.8842 15.3023C18.4333 17.1881 19.8629 19 21.802 19H24.9038L16.8285 29.56C16.7407 29.6902 16.6234 29.798 16.4861 29.8744C16.3489 29.9508 16.1955 29.9939 16.0386 30C15.9047 29.9975 15.7725 29.9704 15.6486 29.92C15.4439 29.8336 15.2739 29.6816 15.1652 29.4878C15.0566 29.2941 15.0155 29.0697 15.0486 28.85L16.8685 17.0002H12.0386C11.8855 17.0043 11.7335 16.9732 11.5943 16.9092C11.4551 16.8453 11.3324 16.7502 11.2358 16.6314C11.1392 16.5125 11.0711 16.373 11.0369 16.2237C11.0028 16.0744 11.0033 15.9192 11.0386 15.7702L14.0386 2.77035C14.0914 2.54662 14.2196 2.34791 14.4018 2.20767C14.5839 2.06743 14.8088 1.99421 15.0386 2.00036H22.0651Z" fill="#DAE4ED"/>
</svg>
