<svg width="20" height="29" viewBox="0 0 20 29" fill="none" xmlns="http://www.w3.org/2000/svg">
  <path d="M5.30383 28.587C5.09919 28.5006 4.92913 28.3486 4.82049 28.1548C4.71185 27.9611 4.6708 27.7367 4.70384 27.517L6.52381 15.6672H1.69387C1.54075 15.6713 1.38873 15.6402 1.24953 15.5762C1.11034 15.5123 0.987698 15.4172 0.891068 15.2984C0.794439 15.1795 0.726405 15.04 0.692217 14.8907C0.658029 14.7414 0.6586 14.5862 0.693887 14.4372L3.69385 1.43734C3.74664 1.21361 3.87489 1.0149 4.05703 0.87466C4.23916 0.734418 4.46405 0.661206 4.69384 0.66735H14.6937C14.8431 0.666842 14.9907 0.699813 15.1257 0.763841C15.2607 0.827868 15.3796 0.921326 15.4737 1.03734C15.5691 1.15467 15.6367 1.29213 15.6714 1.43936C15.706 1.58659 15.7068 1.73975 15.6737 1.88733L13.9437 9.66724H18.6937C18.8811 9.66686 19.0648 9.71916 19.224 9.81818C19.3831 9.91719 19.5112 10.0589 19.5936 10.2272C19.6653 10.3888 19.6929 10.5664 19.6736 10.7421C19.6542 10.9177 19.5887 11.0851 19.4837 11.2272L6.48381 28.227C6.39595 28.3572 6.27864 28.4649 6.14139 28.5414C6.00414 28.6178 5.85081 28.6609 5.69382 28.667C5.56002 28.6645 5.42781 28.6374 5.30383 28.587Z" fill="#2197FF"/>
</svg>
