<svg width="15" height="21" viewBox="0 0 15 21" fill="none" xmlns="http://www.w3.org/2000/svg">
  <path d="M3.47763 20.94C3.32415 20.8752 3.1966 20.7612 3.11512 20.6159C3.03364 20.4706 3.00286 20.3023 3.02763 20.1375L4.39262 11.2501H0.770162C0.655319 11.2532 0.541302 11.2299 0.436907 11.1819C0.332512 11.134 0.24053 11.0627 0.168057 10.9735C0.0955849 10.8844 0.0445597 10.7798 0.0189186 10.6678C-0.00672244 10.5558 -0.00629387 10.4394 0.020171 10.3276L2.27014 0.577761C2.30973 0.409965 2.40593 0.260933 2.54253 0.155751C2.67912 0.0505693 2.84779 -0.00433942 3.02013 0.000268055H10.52C10.6321 -0.000112919 10.7428 0.0246155 10.844 0.0726364C10.9453 0.120657 11.0344 0.19075 11.105 0.277764C11.1766 0.365762 11.2273 0.468851 11.2533 0.579273C11.2793 0.689695 11.2799 0.804572 11.255 0.915256L9.95755 6.75018H13.52C13.6606 6.7499 13.7984 6.78913 13.9177 6.86339C14.0371 6.93765 14.1331 7.04395 14.195 7.17018C14.2487 7.29133 14.2694 7.42456 14.2549 7.5563C14.2404 7.68804 14.1913 7.81359 14.1125 7.92017L4.36262 20.67C4.29672 20.7677 4.20874 20.8485 4.1058 20.9058C4.00286 20.9631 3.88786 20.9954 3.77012 21C3.66977 20.9981 3.57062 20.9778 3.47763 20.94Z" fill="#2197FF"/>
</svg>
