<svg width="31" height="27" viewBox="0 0 31 27" fill="none" xmlns="http://www.w3.org/2000/svg">
  <path d="M13.4775 1.07669C14.0322 -0.358897 16.2078 -0.358896 16.7625 1.07669L19.3465 7.76391C19.5892 8.39207 20.2181 8.81845 20.9332 8.83976L28.5467 9.0667C30.1812 9.11542 30.8535 11.0463 29.5619 11.9823L23.5453 16.3422C22.9802 16.7517 22.74 17.4416 22.9393 18.0829L25.0607 24.9104C25.5161 26.3761 23.756 27.5695 22.4031 26.7123L16.1007 22.7197C15.5087 22.3446 14.7313 22.3446 14.1393 22.7197L7.83693 26.7123C6.48396 27.5695 4.7239 26.3761 5.17932 24.9104L7.30075 18.0829C7.50002 17.4416 7.25982 16.7517 6.69466 16.3422L0.678136 11.9823C-0.613469 11.0463 0.0588157 9.11542 1.69326 9.0667L9.30677 8.83976C10.0219 8.81845 10.6508 8.39207 10.8935 7.7639L13.4775 1.07669Z" fill="#DAE4ED"/>
</svg>
