<svg width="20" height="28" viewBox="0 0 20 28" fill="none" xmlns="http://www.w3.org/2000/svg">
  <path d="M4.63684 27.92C4.43219 27.8336 4.26214 27.6816 4.1535 27.4878C4.04485 27.2941 4.00381 27.0697 4.03684 26.85L5.85682 15.0002H1.02688C0.873759 15.0043 0.721736 14.9732 0.582542 14.9092C0.443349 14.8453 0.320706 14.7502 0.224076 14.6314C0.127447 14.5125 0.0594129 14.373 0.0252248 14.2237C-0.00896326 14.0744 -0.00839183 13.9192 0.0268947 13.7702L3.02686 0.770348C3.07964 0.54662 3.2079 0.347911 3.39003 0.207668C3.57217 0.0674258 3.79706 -0.00578589 4.02684 0.000357407H14.0267C14.1761 -0.000150558 14.3237 0.0328207 14.4587 0.0968485C14.5937 0.160876 14.7126 0.254333 14.8067 0.370353C14.9022 0.487682 14.9697 0.625135 15.0044 0.772364C15.039 0.919593 15.0398 1.07276 15.0067 1.22034L13.2767 9.00024H18.0267C18.2141 8.99987 18.3978 9.05217 18.557 9.15118C18.7161 9.2502 18.8442 9.39194 18.9267 9.56024C18.9983 9.72177 19.0259 9.89941 19.0066 10.0751C18.9872 10.2507 18.9217 10.4181 18.8167 10.5602L5.81682 27.56C5.72896 27.6902 5.61165 27.798 5.4744 27.8744C5.33715 27.9508 5.18382 27.9939 5.02683 28C4.89302 27.9975 4.76082 27.9704 4.63684 27.92Z" fill="#DAE4ED"/>
</svg>
