<svg width="22" height="21" viewBox="0 0 22 21" fill="none" xmlns="http://www.w3.org/2000/svg">
  <path fill-rule="evenodd" clip-rule="evenodd" d="M18.4629 16.0906C21.3532 12.1767 21.026 6.63286 17.4812 3.08811C13.576 -0.817131 7.24433 -0.817131 3.33909 3.08811C-0.566154 6.99335 -0.566154 13.325 3.33909 17.2302C6.88384 20.775 12.4277 21.1022 16.3415 18.2119L18.5419 20.4122C19.1277 20.998 20.0774 20.998 20.6632 20.4122C21.249 19.8264 21.249 18.8767 20.6632 18.2909L18.4629 16.0906ZM15.3599 5.20943C18.0936 7.9431 18.0936 12.3753 15.3599 15.1089C12.6262 17.8426 8.19408 17.8426 5.46041 15.1089C2.72674 12.3753 2.72674 7.9431 5.46041 5.20943C8.19408 2.47576 12.6262 2.47576 15.3599 5.20943Z" fill="#829AB2"/>
</svg>
