<svg width="24" height="24" viewBox="0 0 24 24" fill="none" xmlns="http://www.w3.org/2000/svg">
  <path fill-rule="evenodd" clip-rule="evenodd" d="M19.4629 17.5906C22.3532 13.6767 22.026 8.13286 18.4812 4.58811C14.576 0.682869 8.24433 0.682869 4.33909 4.58811C0.433846 8.49335 0.433846 14.825 4.33909 18.7302C7.88384 22.275 13.4277 22.6022 17.3415 19.7119L19.5419 21.9122C20.1277 22.498 21.0774 22.498 21.6632 21.9122C22.249 21.3264 22.249 20.3767 21.6632 19.7909L19.4629 17.5906ZM16.3599 6.70943C19.0936 9.4431 19.0936 13.8753 16.3599 16.6089C13.6262 19.3426 9.19408 19.3426 6.46041 16.6089C3.72674 13.8753 3.72674 9.4431 6.46041 6.70943C9.19408 3.97576 13.6262 3.97576 16.3599 6.70943Z" fill="#829AB2"/>
</svg>
