<svg width="16" height="16" viewBox="0 0 16 16" fill="none" xmlns="http://www.w3.org/2000/svg">
  <path fill-rule="evenodd" clip-rule="evenodd" d="M3.10601 0.984206C2.4894 0.367588 1.51466 0.342595 0.92887 0.928381C0.343083 1.51417 0.368076 2.48891 0.984694 3.10553L5.87885 7.99968L0.984955 12.8936C0.368338 13.5102 0.343345 14.4849 0.929131 15.0707C1.51492 15.6565 2.48966 15.6315 3.10628 15.0149L8.00017 10.121L12.8939 15.0147C13.5105 15.6313 14.4852 15.6563 15.071 15.0705C15.6568 14.4847 15.6318 13.51 15.0152 12.8934L10.1215 7.99968L15.0154 3.10572C15.6321 2.48911 15.6571 1.51436 15.0713 0.928578C14.4855 0.342792 13.5107 0.367786 12.8941 0.984402L8.00017 5.87836L3.10601 0.984206Z" fill="#20B7F7"/>
</svg>
