<svg width="48" height="57" viewBox="0 0 48 57" fill="none" xmlns="http://www.w3.org/2000/svg">
  <path fill-rule="evenodd" clip-rule="evenodd" d="M16.3583 29.3561C7.43054 30.5393 0.521484 38.1646 0.521484 47.3615V61.6956H47.478V47.3615C47.478 38.1648 40.567 30.5396 31.641 29.3562C30.8478 29.251 30.0387 29.1967 29.2171 29.1967H18.7824C17.9607 29.1967 17.1515 29.251 16.3583 29.3561ZM17.2824 24.7454C17.7631 25.0339 18.264 25.2924 18.7824 25.5183C20.3809 26.215 22.1458 26.6018 23.9997 26.6018C25.8537 26.6018 27.6186 26.215 29.2171 25.5183C29.7355 25.2924 30.2363 25.0339 30.7171 24.7454C34.5049 22.4725 37.0432 18.339 37.0432 13.6269C37.0432 6.47261 31.1919 0.6521 23.9997 0.6521C16.8076 0.6521 10.9563 6.47261 10.9563 13.6269C10.9563 18.339 13.4945 22.4725 17.2824 24.7454ZM42.978 57.1956V47.3615C42.978 39.8551 36.8212 33.6967 29.2171 33.6967H18.7824C11.1761 33.6967 5.02148 39.8547 5.02148 47.3615V57.1956H42.978ZM23.9997 5.1521C19.2704 5.1521 15.4563 8.98025 15.4563 13.6269C15.4563 18.2736 19.2704 22.1018 23.9997 22.1018C28.7291 22.1018 32.5432 18.2736 32.5432 13.6269C32.5432 8.98025 28.7291 5.1521 23.9997 5.1521Z" fill="white"/>
</svg>
