<svg width="16" height="17" viewBox="0 0 16 17" fill="none" xmlns="http://www.w3.org/2000/svg">
  <path fill-rule="evenodd" clip-rule="evenodd" d="M4 1.5C1.79086 1.5 0 3.29086 0 5.5V11.5C0 13.7091 1.79086 15.5 4 15.5H6.7C7.25229 15.5 7.7 15.0523 7.7 14.5C7.7 13.9477 7.25229 13.5 6.7 13.5H4C2.89543 13.5 2 12.6046 2 11.5V5.5C2 4.39543 2.89543 3.5 4 3.5H6.7C7.25229 3.5 7.7 3.05228 7.7 2.5C7.7 1.94772 7.25229 1.5 6.7 1.5H4ZM5 6.80704V10.1499C5 10.5356 5.34286 10.857 5.72857 10.857H9.60714V13.4928C9.60714 13.7285 9.73571 13.9213 9.95 14.0285C10.0357 14.0499 10.1214 14.0499 10.1643 14.0499C10.3143 14.0499 10.4429 14.007 10.55 13.8999L15.5857 8.86419C15.8214 8.67133 15.8 8.28562 15.5857 8.07133L10.55 3.05705C10.25 2.73562 9.60714 2.92847 9.60714 3.44276V6.0999H5.72857C5.34286 6.0999 5 6.42133 5 6.80704Z" fill="#829AB2"/>
</svg>
