<svg width="76" height="91" viewBox="0 0 76 91" fill="none" xmlns="http://www.w3.org/2000/svg">
  <path fill-rule="evenodd" clip-rule="evenodd" d="M25.6887 46.4627C11.3051 48.3689 0.173828 60.6541 0.173828 75.4713V98.5651H75.826V75.4713C75.826 60.6544 64.6916 48.3693 50.3109 46.4627C49.033 46.2933 47.7294 46.2058 46.4057 46.2058H29.5941C28.2703 46.2058 26.9667 46.2933 25.6887 46.4627ZM27.1775 39.0343C27.952 39.499 28.759 39.9155 29.5941 40.2795C32.1695 41.4019 35.0129 42.0251 37.9999 42.0251C40.9869 42.0251 43.8303 41.4019 46.4057 40.2795C47.2408 39.9155 48.0477 39.4991 48.8223 39.0343C54.9249 35.3723 59.0144 28.7129 59.0144 21.1212C59.0144 9.59477 49.5873 0.217285 37.9999 0.217285C26.4125 0.217285 16.9854 9.59477 16.9854 21.1212C16.9854 28.7128 21.0749 35.3723 27.1775 39.0343ZM68.576 91.3151V75.4713C68.576 63.3778 58.6568 53.4558 46.4057 53.4558H29.5941C17.3396 53.4558 7.42383 63.3771 7.42383 75.4713V91.3151H68.576ZM37.9999 7.46728C30.3805 7.46728 24.2354 13.6349 24.2354 21.1212C24.2354 28.6075 30.3805 34.7751 37.9999 34.7751C45.6194 34.7751 51.7644 28.6075 51.7644 21.1212C51.7644 13.6349 45.6194 7.46728 37.9999 7.46728Z" fill="white"/>
</svg>
