<svg width="16" height="14" viewBox="0 0 16 14" fill="none" xmlns="http://www.w3.org/2000/svg">
<path d="M15.6344 2.4984C16 3.924 16 6.9 16 6.9C16 6.9 16 9.876 15.6344 11.3016C15.4312 12.0896 14.8368 12.7096 14.084 12.9192C12.7168 13.3 8 13.3 8 13.3C8 13.3 3.2856 13.3 1.916 12.9192C1.16 12.7064 0.5664 12.0872 0.3656 11.3016C2.98023e-08 9.876 0 6.9 0 6.9C0 6.9 2.98023e-08 3.924 0.3656 2.4984C0.5688 1.7104 1.1632 1.0904 1.916 0.8808C3.2856 0.5 8 0.5 8 0.5C8 0.5 12.7168 0.5 14.084 0.8808C14.84 1.0936 15.4336 1.7128 15.6344 2.4984ZM6.4 9.7L11.2 6.9L6.4 4.1V9.7Z" fill="#829AB2"/>
</svg>
