<svg width="21" height="16" viewBox="0 0 21 16" fill="none" xmlns="http://www.w3.org/2000/svg">
  <path d="M9.55947 1.056V1.568C9.55947 1.86667 9.22026 2.624 8.54185 3.84C7.86344 5.03467 7.52423 6.02667 7.52423 6.816C7.52423 7.584 7.60646 8.29867 7.77093 8.96C7.93539 9.6 8.01762 10.432 8.01762 11.456L7.98678 12.128C7.92511 12.576 7.89427 12.8747 7.89427 13.024C7.89427 14.9653 6.70191 15.936 4.31718 15.936L3.85463 16H2.74449C0.914831 16 0 15.5947 0 14.784V13.92L0.123348 12.544C0.123348 9.87733 0.997063 7.12533 2.74449 4.288C4.49192 1.42933 6.22907 0 7.95595 0H8.14097C9.08664 0 9.55947 0.352 9.55947 1.056ZM19.3656 0H19.5507C20.5169 0 21 0.405333 21 1.216V1.376C21 1.76 20.6505 2.57067 19.9515 3.808C19.2731 5.024 18.9339 6.09067 18.9339 7.008L18.9956 7.68C19.0162 7.78667 19.0264 7.89333 19.0264 8L19.1806 8.704C19.3656 9.664 19.4582 10.784 19.4582 12.064C19.4582 13.344 19.1703 14.3147 18.5947 14.976C18.0396 15.616 17.094 15.936 15.7577 15.936L15.2952 16H14.185C12.3348 16 11.4097 15.5307 11.4097 14.592V14.176L11.4405 13.952L11.5022 13.024C11.5022 10.3787 12.4376 7.392 14.3084 4.064C15.0279 2.80533 15.9016 1.81333 16.9295 1.088C17.978 0.362667 18.79 0 19.3656 0Z" fill="#DAA0FF"/>
</svg>
