<svg width="41" height="32" viewBox="0 0 41 32" fill="none" xmlns="http://www.w3.org/2000/svg">
  <path
    d="M36.998 0H4.99805C2.79205 0 0.998047 1.794 0.998047 4V28C0.998047 30.206 2.79205 32 4.99805 32H36.998C39.204 32 40.998 30.206 40.998 28V4C40.998 1.794 39.204 0 36.998 0ZM9.99805 6C10.7937 6 11.5568 6.31607 12.1194 6.87868C12.682 7.44129 12.998 8.20435 12.998 9C12.998 9.79565 12.682 10.5587 12.1194 11.1213C11.5568 11.6839 10.7937 12 9.99805 12C9.2024 12 8.43934 11.6839 7.87673 11.1213C7.31412 10.5587 6.99805 9.79565 6.99805 9C6.99805 8.20435 7.31412 7.44129 7.87673 6.87868C8.43934 6.31607 9.2024 6 9.99805 6ZM20.998 26H6.99805L14.998 16L17.998 20L23.998 12L34.998 26H20.998Z"
    fill="#829AB2"/>
</svg>
