<svg width="24" height="19" viewBox="0 0 24 19" fill="none" xmlns="http://www.w3.org/2000/svg">
  <path
    d="M23.0797 2.22727C22.2309 2.59339 21.3073 2.85689 20.3559 2.95951C21.3437 2.37271 22.0834 1.44565 22.4362 0.352267C21.5093 0.903642 20.4939 1.29028 19.4351 1.49502C18.9925 1.0219 18.4573 0.645 17.8627 0.387791C17.2681 0.130582 16.6269 -0.00141952 15.9791 1.15118e-05C13.358 1.15118e-05 11.25 2.12464 11.25 4.73189C11.25 5.09801 11.2944 5.46414 11.3665 5.81639C7.44175 5.61114 3.94138 3.73614 1.61427 0.865396C1.19025 1.58964 0.968048 2.41428 0.970784 3.25352C0.970784 4.89553 1.80566 6.34339 3.07877 7.1949C2.32851 7.16536 1.59581 6.95914 0.940273 6.59302V6.65126C0.940273 8.95063 2.56564 10.8561 4.73188 11.2944C4.32514 11.4 3.90673 11.4541 3.4865 11.4553C3.17862 11.4553 2.88739 11.4247 2.59338 11.3831C3.19249 13.2581 4.93713 14.62 7.01461 14.6644C5.38924 15.9375 3.35336 16.6864 1.14275 16.6864C0.746117 16.6864 0.379992 16.6725 0 16.6281C2.09689 17.9734 4.58487 18.75 7.26424 18.75C15.9625 18.75 20.7221 11.544 20.7221 5.28939C20.7221 5.08414 20.7221 4.87889 20.7082 4.67364C21.6291 3.99964 22.4362 3.16477 23.0797 2.22727Z"
    fill="white"/>
</svg>
