<svg width="69" height="24" viewBox="0 0 69 24" fill="none" xmlns="http://www.w3.org/2000/svg">
  <path d="M26.0187 15.0779C25.4272 15.0779 24.8834 14.9412 24.3875 14.6678C23.8975 14.3943 23.5062 14.0139 23.2134 13.5264C22.9266 13.033 22.7832 12.4801 22.7832 11.8678C22.7832 11.2555 22.9266 10.7057 23.2134 10.2182C23.5062 9.73075 23.8975 9.35029 24.3875 9.07684C24.8834 8.80338 25.4272 8.66666 26.0187 8.66666C26.6102 8.66666 27.151 8.80338 27.6409 9.07684C28.1368 9.35029 28.5252 9.73075 28.806 10.2182C29.0928 10.7057 29.2362 11.2555 29.2362 11.8678C29.2362 12.4801 29.0928 13.033 28.806 13.5264C28.5192 14.0139 28.1309 14.3943 27.6409 14.6678C27.151 14.9412 26.6102 15.0779 26.0187 15.0779ZM26.0187 13.6869C26.5206 13.6869 26.9209 13.5205 27.2197 13.1876C27.5244 12.8547 27.6768 12.4147 27.6768 11.8678C27.6768 11.315 27.5244 10.8751 27.2197 10.5481C26.9209 10.2152 26.5206 10.0488 26.0187 10.0488C25.5108 10.0488 25.1045 10.2123 24.7998 10.5392C24.501 10.8662 24.3517 11.309 24.3517 11.8678C24.3517 12.4207 24.501 12.8636 24.7998 13.1965C25.1045 13.5234 25.5108 13.6869 26.0187 13.6869Z" fill="white"/>
  <path d="M33.7456 15.0155L32.4371 12.6525H32.0696V15.0155H30.537V8.75583H33.1093C33.6052 8.75583 34.0264 8.84202 34.373 9.01442C34.7255 9.18681 34.9884 9.4246 35.1617 9.72777C35.335 10.025 35.4216 10.3579 35.4216 10.7265C35.4216 11.1426 35.3021 11.5141 35.0631 11.8411C34.8301 12.168 34.4835 12.3999 34.0234 12.5366L35.4754 15.0155H33.7456ZM32.0696 11.5736H33.0196C33.3005 11.5736 33.5096 11.5052 33.647 11.3685C33.7904 11.2318 33.8621 11.0386 33.8621 10.7889C33.8621 10.5511 33.7904 10.3639 33.647 10.2271C33.5096 10.0904 33.3005 10.022 33.0196 10.022H32.0696V11.5736Z" fill="white"/>
  <path d="M38.3644 8.75583V15.0155H36.8318V8.75583H38.3644Z" fill="white"/>
  <path d="M44.0997 10.7354C43.9862 10.5273 43.8219 10.3698 43.6068 10.2628C43.3977 10.1498 43.1497 10.0934 42.8629 10.0934C42.367 10.0934 41.9696 10.2568 41.6709 10.5838C41.3721 10.9048 41.2228 11.3358 41.2228 11.8768C41.2228 12.4534 41.3781 12.9052 41.6888 13.2321C42.0055 13.5531 42.4387 13.7137 42.9884 13.7137C43.3648 13.7137 43.6815 13.6185 43.9384 13.4283C44.2013 13.2381 44.3925 12.9646 44.512 12.6079H42.5671V11.4844H45.9012V12.9022C45.7877 13.2827 45.5935 13.6364 45.3187 13.9633C45.0498 14.2903 44.7062 14.5548 44.288 14.7569C43.8697 14.9591 43.3977 15.0601 42.8719 15.0601C42.2505 15.0601 41.6948 14.9264 41.2048 14.6588C40.7209 14.3854 40.3414 14.0079 40.0666 13.5264C39.7977 13.0449 39.6633 12.495 39.6633 11.8768C39.6633 11.2585 39.7977 10.7086 40.0666 10.2271C40.3414 9.73966 40.7209 9.36218 41.2048 9.09467C41.6888 8.82122 42.2415 8.68449 42.8629 8.68449C43.6158 8.68449 44.2491 8.8658 44.763 9.22842C45.2828 9.59105 45.6264 10.0934 45.7937 10.7354H44.0997Z" fill="white"/>
  <path d="M48.7309 8.75583V15.0155H47.1983V8.75583H48.7309Z" fill="white"/>
  <path d="M55.9181 15.0155H54.3855L51.8223 11.1545V15.0155H50.2897V8.75583H51.8223L54.3855 12.6347V8.75583H55.9181V15.0155Z" fill="white"/>
  <path d="M61.3938 13.9098H59.0457L58.6692 15.0155H57.0649L59.3414 8.75583H61.116L63.3925 15.0155H61.7703L61.3938 13.9098ZM60.9995 12.7328L60.2197 10.4411L59.449 12.7328H60.9995Z" fill="white"/>
  <path d="M66.0661 13.8385H68.0737V15.0155H64.5335V8.75583H66.0661V13.8385Z" fill="white"/>
  <path d="M14.3038 18.3378C15.3301 16.9608 15.9409 15.241 15.9409 13.3774V13.1134H14.3172V13.3774C14.3172 16.1698 12.5959 18.5567 10.1855 19.4812C10.3849 19.5019 10.5872 19.5126 10.7919 19.5126C12.1034 19.5126 13.317 19.0757 14.3038 18.3378Z" fill="white"/>
  <path d="M15.9401 3.83331H14.3164V5.37993H15.9401V3.83331Z" fill="white"/>
  <path d="M18.7623 5.38013H17.1387V6.92669H18.7623V5.38013Z" fill="white"/>
  <path d="M15.9401 6.92575H14.3164V8.47232H15.9401V6.92575Z" fill="white"/>
  <path d="M18.7604 8.47238H17.1367V10.019H18.7604V8.47238Z" fill="white"/>
  <path d="M15.9401 10.0193H14.3164V11.5659H15.9401V10.0193Z" fill="white"/>
  <path d="M8.31094 21.5491C6.66336 21.0212 5.23413 19.9815 4.19955 18.6127C2.63804 17.4248 1.62363 15.5204 1.62363 13.3769V11.5212V11.0667V5.49962H2.82137V13.3769C2.82137 17.8875 6.39687 21.5571 10.7918 21.5571C15.1866 21.5571 18.7621 17.8875 18.7621 13.3769V13.1129V11.5663H17.1384V13.1129V13.3769C17.1384 16.9686 14.2913 19.8908 10.7918 19.8908C7.29208 19.8908 4.44494 16.9686 4.44494 13.3769V3.83331H0.454417H0V11.0667V11.5212V13.3769C0 17.8875 3.57549 21.5571 7.97038 21.5571C8.08456 21.5571 8.19792 21.554 8.31094 21.5491Z" fill="white"/>
</svg>
