<svg width="16" height="17" viewBox="0 0 16 17" fill="none" xmlns="http://www.w3.org/2000/svg">
  <path d="M14 16.1235H12C11.7292 16.1235 11.4948 16.0246 11.2969 15.8267C11.099 15.6287 11 15.3918 11 15.1157C11 14.8397 11.099 14.6053 11.2969 14.4126C11.4948 14.2199 11.7292 14.1235 12 14.1235H13.1406C13.3802 14.1235 13.5833 14.0402 13.75 13.8735C13.9167 13.7069 14 13.5037 14 13.2642V12.1235C14 11.8527 14.0964 11.6183 14.2891 11.4204C14.4818 11.2225 14.7161 11.1235 14.9922 11.1235C15.2682 11.1235 15.5052 11.2225 15.7031 11.4204C15.901 11.6183 16 11.8527 16 12.1235V14.1235C16 14.6756 15.8047 15.147 15.4141 15.5376C15.0234 15.9282 14.5521 16.1235 14 16.1235ZM14.9922 5.12354C14.7161 5.12354 14.4818 5.02718 14.2891 4.83447C14.0964 4.64176 14 4.40479 14 4.12354V2.98291C14 2.74333 13.9167 2.5402 13.75 2.37354C13.5833 2.20687 13.3802 2.12354 13.1406 2.12354H12C11.7292 2.12354 11.4948 2.02718 11.2969 1.83447C11.099 1.64176 11 1.40739 11 1.13135C11 0.855306 11.099 0.618327 11.2969 0.42041C11.4948 0.222493 11.7292 0.123535 12 0.123535H14C14.5521 0.123535 15.0234 0.318848 15.4141 0.709473C15.8047 1.1001 16 1.57145 16 2.12354V4.12354C16 4.40479 15.901 4.64176 15.7031 4.83447C15.5052 5.02718 15.2682 5.12354 14.9922 5.12354ZM4 2.12354H2.85938C2.61979 2.12354 2.41667 2.20687 2.25 2.37354C2.08333 2.5402 2 2.74333 2 2.98291V4.12354C2 4.40479 1.90104 4.64176 1.70312 4.83447C1.50521 5.02718 1.26823 5.12354 0.992188 5.12354C0.716146 5.12354 0.481771 5.02718 0.289062 4.83447C0.0963542 4.64176 0 4.40479 0 4.12354V2.12354C0 1.57145 0.195312 1.1001 0.585938 0.709473C0.976562 0.318848 1.44792 0.123535 2 0.123535H4C4.27083 0.123535 4.50521 0.222493 4.70312 0.42041C4.90104 0.618327 5 0.855306 5 1.13135C5 1.40739 4.90365 1.64176 4.71094 1.83447C4.51823 2.02718 4.28125 2.12354 4 2.12354ZM3 12.1235V4.12354C3 3.8527 3.09635 3.61833 3.28906 3.42041C3.48177 3.22249 3.71875 3.12354 4 3.12354H12C12.2708 3.12354 12.5052 3.22249 12.7031 3.42041C12.901 3.61833 13 3.8527 13 4.12354V12.1235C13 12.4048 12.901 12.6418 12.7031 12.8345C12.5052 13.0272 12.2708 13.1235 12 13.1235H4C3.71875 13.1235 3.48177 13.0272 3.28906 12.8345C3.09635 12.6418 3 12.4048 3 12.1235ZM5 10.6235C5 10.759 5.04948 10.8761 5.14844 10.9751C5.2474 11.0741 5.36458 11.1235 5.5 11.1235H10.5C10.6354 11.1235 10.7526 11.0741 10.8516 10.9751C10.9505 10.8761 11 10.759 11 10.6235V5.62354C11 5.48812 10.9505 5.37093 10.8516 5.27197C10.7526 5.17301 10.6354 5.12354 10.5 5.12354H5.5C5.36458 5.12354 5.2474 5.17301 5.14844 5.27197C5.04948 5.37093 5 5.48812 5 5.62354V10.6235ZM0.992188 11.1235C1.26823 11.1235 1.50521 11.2225 1.70312 11.4204C1.90104 11.6183 2 11.8527 2 12.1235V13.2642C2 13.5037 2.08333 13.7069 2.25 13.8735C2.41667 14.0402 2.61979 14.1235 2.85938 14.1235H4C4.27083 14.1235 4.50521 14.2199 4.70312 14.4126C4.90104 14.6053 5 14.8397 5 15.1157C5 15.3918 4.90104 15.6287 4.70312 15.8267C4.50521 16.0246 4.27083 16.1235 4 16.1235H2C1.44792 16.1235 0.976562 15.9282 0.585938 15.5376C0.195312 15.147 0 14.6756 0 14.1235V12.1235C0 11.8423 0.0963542 11.6053 0.289062 11.4126C0.481771 11.2199 0.716146 11.1235 0.992188 11.1235Z" fill="white"/>
</svg>
