<svg width="14" height="16" viewBox="0 0 14 16" fill="none" xmlns="http://www.w3.org/2000/svg">
  <path fill-rule="evenodd" clip-rule="evenodd" d="M6.36926 11.6651L2.59143 7.88586C2.42614 7.72058 2.20196 7.62772 1.96821 7.62772C1.73446 7.62772 1.51028 7.72058 1.34499 7.88586C1.34495 7.8859 1.34492 7.88593 1.34489 7.88596M6.36926 11.6651L6.36926 11.6653L2.59134 7.88596C2.42605 7.72067 2.20187 7.62781 1.96812 7.62781C1.73436 7.62781 1.51018 7.72067 1.34489 7.88596M6.6252 0.846707C6.62586 0.846045 6.62652 0.845383 6.62718 0.844723C6.79226 0.679642 7.01616 0.586901 7.24962 0.586901C7.48308 0.586901 7.70697 0.679642 7.87205 0.844723C8.03714 1.0098 8.12988 1.2337 8.12988 1.46716L8.12988 11.6655L8.12978 11.6656L8.12978 1.46725C8.12978 1.23379 8.03704 1.0099 7.87196 0.844817C7.70688 0.679736 7.48298 0.586994 7.24952 0.586994C7.01606 0.586994 6.79217 0.679736 6.62709 0.844817C6.62646 0.845446 6.62583 0.846076 6.6252 0.846707ZM11.9081 7.88587L11.908 7.88596C11.9898 7.80398 12.0869 7.73895 12.1939 7.69457C12.3008 7.65019 12.4154 7.62735 12.5312 7.62735C12.647 7.62735 12.7617 7.65019 12.8686 7.69457C12.9756 7.73895 13.0727 7.80398 13.1545 7.88596C13.2364 7.96773 13.3015 8.06487 13.3458 8.17181C13.3902 8.27875 13.4131 8.3934 13.4131 8.50918C13.4131 8.62497 13.3902 8.73962 13.3458 8.84656C13.3085 8.93649 13.2566 9.01949 13.1923 9.09225C13.2566 9.01947 13.3086 8.93644 13.3459 8.84646C13.3903 8.73952 13.4132 8.62487 13.4132 8.50909C13.4132 8.3933 13.3903 8.27866 13.3459 8.17171C13.3016 8.06477 13.2365 7.96763 13.1546 7.88587C13.0728 7.80389 12.9756 7.73885 12.8687 7.69448C12.7618 7.6501 12.6471 7.62726 12.5313 7.62726C12.4155 7.62726 12.3009 7.6501 12.194 7.69448C12.087 7.73885 11.9899 7.80389 11.9081 7.88587ZM13.1545 9.13241C13.1545 9.13238 13.1545 9.13235 13.1546 9.13231L13.1545 9.13241ZM6.68748 15.1473C6.50947 15.0734 6.34723 14.9647 6.21106 14.8283L0.930028 9.54727C0.654683 9.27193 0.499999 8.89848 0.499999 8.50909C0.499999 8.1197 0.654683 7.74625 0.930027 7.47091C1.20537 7.19556 1.57882 7.04088 1.96821 7.04088C2.3576 7.04088 2.73113 7.19564 3.00647 7.47098L5.78252 10.2481L5.78252 1.46716C5.78252 1.07806 5.93709 0.7049 6.21222 0.429765C6.48735 0.15463 6.86052 6.07231e-05 7.24962 6.07401e-05C7.63872 6.07571e-05 8.01188 0.15463 8.28701 0.429764C8.56215 0.704899 8.71672 1.07806 8.71672 1.46716L8.71672 10.2484L11.4931 7.47098C11.6293 7.33457 11.791 7.22633 11.969 7.15245C12.1473 7.07849 12.3384 7.04042 12.5313 7.04042C12.7243 7.04042 12.9154 7.07849 13.0936 7.15245C13.2717 7.22633 13.4334 7.33456 13.5696 7.47098C13.7059 7.60713 13.8141 7.76882 13.888 7.9468C13.9619 8.12504 14 8.31612 14 8.50909C14 8.70206 13.9619 8.89314 13.888 9.07138C13.8141 9.2495 13.7055 9.41157 13.569 9.5478L8.28795 14.8288C8.15178 14.9652 7.99007 15.0734 7.81206 15.1473C7.63382 15.2213 7.44274 15.2593 7.24977 15.2593C7.05679 15.2593 6.86571 15.2213 6.68748 15.1473Z" fill="white"/>
</svg>
