<svg width="22" height="20" viewBox="0 0 22 20" fill="none" xmlns="http://www.w3.org/2000/svg">
  <path
    d="M20.9477 16.2536L12.8317 1.30477C12.6168 0.909982 12.2995 0.580428 11.9131 0.350808C11.5267 0.121189 11.0855 0 10.636 0C10.1866 0 9.7454 0.121189 9.359 0.350808C8.9726 0.580428 8.65526 0.909982 8.44038 1.30477L0.316034 16.2536C0.103389 16.6353 -0.00550287 17.066 0.000214048 17.5029C0.00593096 17.9398 0.126056 18.3676 0.348617 18.7435C0.571177 19.1195 0.888398 19.4306 1.26866 19.6458C1.64892 19.861 2.07894 19.9728 2.51586 19.9699H18.7479C19.1812 19.9703 19.6072 19.8581 19.9841 19.6442C20.361 19.4303 20.6758 19.1221 20.8976 18.7499C21.1194 18.3776 21.2407 17.9541 21.2495 17.5209C21.2583 17.0876 21.1543 16.6595 20.9477 16.2786V16.2536ZM9.39031 5.58776C9.39031 5.25627 9.52199 4.93835 9.7564 4.70395C9.9908 4.46955 10.3087 4.33786 10.6402 4.33786C10.9717 4.33786 11.2896 4.46955 11.524 4.70395C11.7584 4.93835 11.8901 5.25627 11.8901 5.58776V11.329C11.8901 11.6605 11.7584 11.9784 11.524 12.2128C11.2896 12.4472 10.9717 12.5789 10.6402 12.5789C10.3087 12.5789 9.9908 12.4472 9.7564 12.2128C9.52199 11.9784 9.39031 11.6605 9.39031 11.329V5.58776ZM10.6735 16.8452C10.3901 16.8452 10.113 16.7611 9.87729 16.6037C9.64159 16.4462 9.4579 16.2223 9.34942 15.9604C9.24094 15.6986 9.21256 15.4104 9.26786 15.1324C9.32316 14.8544 9.45966 14.599 9.6601 14.3985C9.86054 14.1981 10.1159 14.0616 10.3939 14.0063C10.6719 13.951 10.9601 13.9794 11.222 14.0879C11.4839 14.1963 11.7077 14.38 11.8652 14.6157C12.0227 14.8514 12.1068 15.1285 12.1068 15.412C12.1068 15.7921 11.9558 16.1566 11.687 16.4254C11.4182 16.6942 11.0537 16.8452 10.6735 16.8452Z"
    fill="#F2B71E"/>
</svg>
