<svg width="28" height="32" viewBox="0 0 28 32" fill="none" xmlns="http://www.w3.org/2000/svg">
  <path d="M11.8774 19.0952C12.449 19.668 13.3383 19.7958 13.9985 19.3284C15.0888 18.5566 16.1688 17.5761 17.2387 16.3868C19.1007 14.3176 22.2571 10.6487 26.7111 5.38182C27.1619 4.84915 27.3963 4.16603 27.3678 3.46813C27.3393 2.77022 27.0499 2.10861 26.5571 1.61471C26.0643 1.1208 25.4041 0.830743 24.7078 0.80214C24.0115 0.773538 23.3299 1.00849 22.7984 1.46032C17.5526 5.91812 13.892 9.08322 11.8182 10.9556C10.6289 12.0272 9.64942 13.1089 8.88018 14.1989C8.41351 14.8602 8.54109 15.7513 9.11254 16.3241L11.8774 19.0952Z" fill="white"/>
  <path d="M7.09277 18.6859C6.47136 18.0633 5.49173 17.9827 4.77736 18.4955L4.48762 18.7034C3.56481 19.3658 2.87429 20.3033 2.51456 21.3823L1.09461 25.6413C0.780706 26.5828 1.67816 27.4774 2.61583 27.1577L6.85171 25.7133C7.91618 25.3503 8.84067 24.6627 9.49565 23.7467L9.71321 23.4425C10.2253 22.7263 10.1449 21.7438 9.52316 21.1209L7.09277 18.6859Z" fill="white"/>
  <path d="M11.7035 25.3998C11.7035 24.7371 12.2395 24.1998 12.9008 24.1998L26.0711 24.1998C26.7323 24.1998 27.2684 24.7371 27.2684 25.3998C27.2684 26.0625 26.7323 26.5998 26.0711 26.5998H12.9008C12.2395 26.5998 11.7035 26.0625 11.7035 25.3998Z" fill="white"/>
  <path d="M0.927734 30.1998C0.927734 29.5371 1.46378 28.9998 2.12504 28.9998H26.0478C26.709 28.9998 27.2451 29.5371 27.2451 30.1998C27.2451 30.8625 26.709 31.3998 26.0478 31.3998H2.12504C1.46378 31.3998 0.927734 30.8625 0.927734 30.1998Z" fill="white"/>
</svg>
